<svg id="Layer_1" data-name="Layer 1" xmlns="http://www.w3.org/2000/svg" xmlns:xlink="http://www.w3.org/1999/xlink" viewBox="0 0 491.04 389.3"><defs><style>.cls-1,.cls-12,.cls-13{fill:none;}.cls-2{opacity:0.5;}.cls-3{fill:#92a3e3;}.cls-4{opacity:0.7;}.cls-5{opacity:0.2;}.cls-11,.cls-6,.cls-9{fill:#fff;}.cls-6{opacity:0.3;}.cls-11,.cls-6,.cls-7{isolation:isolate;}.cls-7{opacity:0.15;}.cls-8{fill:#263238;}.cls-12,.cls-8{stroke:#263238;}.cls-12,.cls-13,.cls-8{stroke-linecap:round;stroke-linejoin:round;}.cls-10{clip-path:url(#clip-path);}.cls-11{opacity:0.6;}.cls-13{stroke:#fff;}.cls-14{clip-path:url(#clip-path-2);}.cls-15{clip-path:url(#clip-path-3);}.cls-16{clip-path:url(#clip-path-4);}.cls-17{clip-path:url(#clip-path-5);}.cls-18{clip-path:url(#clip-path-6);}.cls-19{clip-path:url(#clip-path-7);}</style><clipPath id="clip-path"><path class="cls-1" d="M263.07,108.65s.66,8.32-1.66,13-11.66,9.32-19.65,13.65-19.32,3.67-24,11-4.33,19.64-4.33,19.64-7.33,11.33-13.32,21.31-9.33,20.32-1.66,25.94,17-2.66,22-10.61,9.66-17,9.66-17,6.38,30.93,4.65,39.28-5.65,16.32-5.65,20,3,6.33,7.66,7.32,20.64,2.36,31.63,1.67,42.29-2.66,43.62-7,3.32-34.3,3.32-34.3S335,219.24,341,207.27s6.32-38.91,2-52.29-15.33-18.31-22-21.63-25-12-28.29-15.66S288.36,96,288.36,90s-.66-.33-7,4.33S263.07,108.65,263.07,108.65Z"/></clipPath><clipPath id="clip-path-2"><path class="cls-1" d="M321,133.29c-5.18-2.61-17.47-8.44-24.2-12.61-2.22,6.64-8.73,21.92-21.74,21.92-12,0-15.53-11.22-16.51-17.5-4,3.53-10.74,6.93-16.75,10.18-8,4.33-19.31,3.67-24,11s-4.32,19.64-4.32,19.64-2.48,3.83-5.72,9c13.45-.67,22.4,10.67,22.4,10.67s6.3,30.93,4.57,39.28-5.65,16.32-5.65,20,3,6.33,7.66,7.32,20.64,2.36,31.63,1.67,42.29-2.66,43.62-7,3.32-34.3,3.32-34.3l-2-26.3c16.73-11.06,28.42-3.31,32.26,0,.82-11.3-.12-23.58-2.63-31.31C338.65,141.61,327.66,136.61,321,133.29Z"/></clipPath><clipPath id="clip-path-3"><path class="cls-1" d="M198,194.09s-3.29,1.74-5.9,8.1-5.89,18.15-2.62,21.88,10.72.43,17.68-.44,36.11-17.94,40.92-20.8,8.76-3.93,10.29-6.56,1.1-12,1.31-16.64-.87-25.17-.87-25.17-1.53-5-4.16-4.59c0,0-3.07-1.75-3.72,0l-1.32,3.53s-2.84-.87-3.53.66a19.49,19.49,0,0,0-.88,4.6S242,160.19,242,162.2s.64,13.79.64,17.07-.43,8.32.66,10.5,2.2,4.16,2.2,4.16-16,2.2-22.77,2.2-18.6.21-20.79,1.3"/></clipPath><clipPath id="clip-path-4"><path class="cls-1" d="M331.11,204.7c-10.51-6.78-32.4-1.54-39.4-2s-26.48-11.17-26.48-11.17,3.94-3.93,4.15-6.34,0-9,0-12.7,1.09-7.43,1.32-10.28-3.54-.88-4.16,0-2.2,9.62-2.2,9.62-2-5.89-2-6.55-.43-8.76-1.53-12.05-3.71,0-3.71,0c-.23-2-.89-3.54-2.42-3.54s-2.84,5.49-2.84,5.49c0-3.29-1.1-3.07-2.19-2s-1.09,8.32-1.09,8.32l-1.32-2c-1.53-.44-2.36,2-2.36,4.16s.88,8.75.88,14.22a40,40,0,0,0,.66,8.32A33.59,33.59,0,0,0,251.26,197c3.72,5.47,16.2,12.25,23.86,18.16s30.2,15.76,41.37,17.51,18.86,5.9,21.44,1.1,7.44-28.46,5-36.33"/></clipPath><clipPath id="clip-path-5"><path class="cls-1" d="M234.58,288.4A25,25,0,0,1,228,284c-2.62-2.63,0-9.2-3.54-11.79s-10.5-3.54-11.79.45-2.19,6.56-4.82,7.43-5.68.88-10.5,3.07-4.81,10.07-4.81,10.07a133,133,0,0,1,27.11,6.56C232.36,304.63,238,302,238,302S238.52,293.18,234.58,288.4Z"/></clipPath><clipPath id="clip-path-6"><path class="cls-1" d="M266.54,299.31c-5.7-1.32-6.13,0-19.7-.45s-28.45-5.25-28.45-5.25-1.27.19-4.41-1.26c-2.26,2-5,5.1-5.22,9.14a12.34,12.34,0,0,0,3.71,9c2.36.62,4.63,1.18,6.79,1.54,9.63,1.76,21.45,6.13,27.58,8.76a38.29,38.29,0,0,0,15.76,3.54c4.81,0,2.93.72,6.45-.17s2.3-3.33,2.3-3.33a15.29,15.29,0,0,0,4.38-.88c2.62-.88,1.75-4.38,1.75-4.38a13.12,13.12,0,0,0,5-.82c2.68-1.4,2.68-4.35,1.52-7.07C282.3,303.51,272.23,300.61,266.54,299.31Z"/></clipPath><clipPath id="clip-path-7"><path class="cls-1" d="M255.41,46.72s-8.33,7.65-7.65,16-2,13-1,19,2.36,17.68,4.72,20.64,2.66,6.33,5,8,10.33,1.66,12-1,19.31-13,20.64-16.65,1-4.65,1-4.65,11.65-7,10-13-6.33-8.32-9-6.32-3,3-3,3-7-4.58-5.64-8.91S288,57,286.62,52s-11.29-2.5-21.89-1.68C256.37,50.92,259.12,43.66,255.41,46.72Z"/></clipPath></defs><g id="freepik--background-simple--inject-5" class="cls-2"><path class="cls-3" d="M80.42,331.74c-21.69-7.28-40.3-20.53-51.63-45.25C9,243.07,39.61,195.14,73.12,179.76s80.5-18.09,82.31-42.52-38-63.32-5.42-94.06C177.48,17.25,217.89,8.24,254.43,5.26c60.82-5,115.93,6.65,153.53,58.2,16.6,22.77,33.28,54.52,28.79,83.71-7.24,47-38.91,66-29.85,93.13s41.6,18.1,55.17,52.46c7.75,19.61,3.21,39-16.22,48.88-22.09,11.24-48.49,5.69-72.11,5.39-37.58-.48-75.16-1.46-112.73-2.52q-47.22-1.32-94.43-3C137.83,340.62,108,341,80.42,331.74Z"/></g><g id="freepik--Plants--inject-5" class="cls-4"><path class="cls-3" d="M473.34,149.54c-6.66-8-16.1,7.53-26.53,26.33-5.72,10.31-18.38,19.09-23.91,32-5.38,12.61-3.43,28.89-7.74,40.38-6.35,17-11.57,16.81-16.62,25.6-2.23-5.07-4.19-11.13-3.83-17.37.46-7.92,13.38-15.51,13.67-25.57.23-8.56-12.13-19.17-12.07-28.6,0-9,12.55-17.13,12.38-26.33s-13-19.17-13.44-28.09c-.48-9.61,11.37-18.71,10.51-27.28-1-10.32-14.74-18.75-16.44-26.48-3.14-14.25-2.22-30.21-8.15-29.94-5.58.26-2.35,17.57-4.91,32.5-1.4,8.25-14.86,15.66-15.56,26.65-.59,9.22,11.57,20.82,11.37,31.16-.19,9.66-12.76,18.44-12.69,28.45s12.79,20.88,13,30.65c.27,10.33-11.94,19.64-11.56,29,.2,4.78,2.77,9.5,5.65,14-3.6-4.83-8.25-9.8-10.05-15.52-2.61-8.18,1.45-18.63-1.85-26.6-3.53-8.64-14.08-13.76-18.36-20.52-5.72-9-8.07-21.05-14.89-23.24-10.52-3.4-8.93,9.81-4.85,26.27,2.16,8.72-1.31,21,3.22,32.11,3.88,9.57,15.23,17.06,20,26.91s3.46,22.88,8.49,31.76c4.2,7.4,11.08,12.47,16.7,17.05l.33.91a1.77,1.77,0,0,0,1.44.55,34,34,0,0,1,5.15,5.17c2.86,3.77-.33,11.14,1.5,13,5,5,5.28.92,5-3.46-.18-2.53,5.68-6.61,5.33-10.4a2.61,2.61,0,0,1,1.09-1c2-.45,11,7.22,12.26,4.72.91-1.82-10.07-9.43-9.43-11.79.45-1.66,8.15-1.1,11.79-1.83a1.44,1.44,0,0,1,.28.27c1.08,1.39,1.62,7.57,4.72,6.43,4.13-1.53,9.69-20.69,21.29-39,7-11.05,21-19.72,27.8-32.88s6.08-30.39,10.44-42.73C470.67,173.69,479.44,156.89,473.34,149.54ZM374.77,272.85c.5,9.35-2.67,13-5.7,16.23-1.87-10.61,5.41-10.61,1.8-24.52a15.56,15.56,0,0,0-1.46-3.53C372.17,265.25,374.58,269.23,374.77,272.85Zm4.64,31.57a2.45,2.45,0,0,1,.31,1.92c-1.17-.67-2.35-1.32-3.44-2,1.53-.31,2.73-.4,3.13.07Z"/><g class="cls-5"><polygon points="392.8 263.01 391.62 262.45 388.08 274.28 388.22 246.21 394.65 227.93 393.46 227.43 388.25 242.27 388.38 216.14 398.69 198.96 397.6 198.24 388.39 213.6 388.53 185 398.08 170.6 397.02 169.85 388.54 182.62 388.66 158.35 394.74 145.65 393.61 145.01 388.68 155.37 388.81 128.38 396.78 112.07 395.65 111.44 388.83 125.4 388.95 99.88 387.71 99.76 387.58 125.01 374.07 104.69 373.04 105.33 387.56 127.17 387.41 156.84 373.95 142.72 373.09 143.55 387.41 158.57 387.28 183.48 374.25 172.08 373.48 173 387.27 185.06 387.13 213.97 373.7 198.48 372.79 199.26 387.12 215.8 386.98 245.89 386.87 246.17 373.82 226.75 372.8 227.39 386.95 248.45 386.81 277.4 376.03 255.72 374.91 256.2 386.8 280.09 386.62 315.49 387.87 315.61 388.06 277.87 392.8 263.01"/><polygon points="459.84 199.63 459.28 198.46 446.27 203.84 452.82 190.38 467.45 182.13 466.76 181.02 453.82 188.32 464.68 166 463.55 165.38 453.89 185.2 456.34 163.12 455.09 162.86 452.24 188.59 445.25 202.96 446.06 180.2 444.81 180.05 443.89 205.76 435.95 222.09 433.7 205.96 432.46 206.02 434.98 224.08 425.89 242.76 425.11 223.15 423.86 223.09 424.74 245.15 414.6 265.98 413.52 257.98 412.27 258.01 413.57 268.08 397.29 301.55 398.43 302.18 413.84 270.5 413.9 271.08 428.44 265.24 427.88 264.06 414.95 269.25 414.87 268.41 425.73 246.08 439.61 241.79 439.15 240.58 426.49 244.49 436.3 224.33 452.19 217.61 451.62 216.44 437.17 222.56 445.41 205.59 459.84 199.63"/><polygon points="365.5 269.77 364.25 269.58 363.38 282.03 356.9 268.08 360.12 252.1 358.88 251.75 355.99 266.13 347.21 247.23 349.56 227.64 348.32 227.39 346.2 245.05 338.9 229.35 339.63 229.66 340.68 210.37 339.43 210.19 338.46 227.85 338.14 227.72 329.93 210.04 331.51 191.97 330.26 191.74 328.85 207.74 320.2 189.11 319.07 189.56 328.28 209.37 318.2 203.16 317.62 204.22 329.2 211.35 336.48 227.04 326.9 223.09 326.52 224.24 337.25 228.66 344.81 244.93 333.49 238.49 332.94 239.57 345.68 246.82 354.7 266.23 344.59 262.5 344.26 263.68 355.43 267.79 363.21 284.55 363.15 285.45 353.45 280.29 352.94 281.39 364.28 287.43 364.32 286.92 379.18 318.91 380.31 318.46 364.48 284.4 365.5 269.77"/></g><path class="cls-3" d="M375.6,317.27s1.11-3.64-6.65-8a106.16,106.16,0,0,0-9.62-5.06s1.83,5.46,5.83,8.36,5.72,4.22,5.72,4.22a26.23,26.23,0,0,0-10.36-2.63,16,16,0,0,0-9.16,2.6,94.79,94.79,0,0,0,10.43,4.71A41.52,41.52,0,0,0,375,323.85s-10.11-1.18-12.09.79a44.8,44.8,0,0,0-4.9,6.94,71,71,0,0,1,12.54.06c5.36.71,12.46-2,12.46-2l6.06,3,2.54-3.79s1.43-.13,6.25,2.36a103.84,103.84,0,0,0,13.74,5.28l-9-11.56,9.11,2.14c4.56,1.08,11.91-.17,11.91-.17s-.7-2.3-5.7-4.22-14.54-4.92-14.54-4.92,7.86,1.66,13.08-1.76a41,41,0,0,0,8.57-7.57s-7.45-4.38-14.47-2.85a36.21,36.21,0,0,0-13.14,6.5s4.6-3.67,6.07-8.54a44.43,44.43,0,0,0,1.77-8.14s-8.52,2.84-10.69,5.39-5.83,10-5.83,10,3.66-7.43-.61-11.79-7.86-7.76-7.86-7.76-3.6,5.23-4.34,9.43,4.66,11.72,4.66,11.72l-4.81-2.52Z"/><path class="cls-6" d="M375.6,317.27s1.11-3.64-6.65-8a106.16,106.16,0,0,0-9.62-5.06s1.83,5.46,5.83,8.36,5.72,4.22,5.72,4.22a26.23,26.23,0,0,0-10.36-2.63,16,16,0,0,0-9.16,2.6,94.79,94.79,0,0,0,10.43,4.71A41.52,41.52,0,0,0,375,323.85s-10.11-1.18-12.09.79a44.8,44.8,0,0,0-4.9,6.94,71,71,0,0,1,12.54.06c5.36.71,12.46-2,12.46-2l6.06,3,2.54-3.79s1.43-.13,6.25,2.36a103.84,103.84,0,0,0,13.74,5.28l-9-11.56,9.11,2.14c4.56,1.08,11.91-.17,11.91-.17s-.7-2.3-5.7-4.22-14.54-4.92-14.54-4.92,7.86,1.66,13.08-1.76a41,41,0,0,0,8.57-7.57s-7.45-4.38-14.47-2.85a36.21,36.21,0,0,0-13.14,6.5s4.6-3.67,6.07-8.54a44.43,44.43,0,0,0,1.77-8.14s-8.52,2.84-10.69,5.39-5.83,10-5.83,10,3.66-7.43-.61-11.79-7.86-7.76-7.86-7.76-3.6,5.23-4.34,9.43,4.66,11.72,4.66,11.72l-4.81-2.52Z"/><path class="cls-3" d="M176.83,165.64s-7.6-6.1-9.56-10c-1.65-3.34-2.85-8.05-1.18-11.6a6.47,6.47,0,0,1,8.5-3.4,5.72,5.72,0,0,1,.74.38c4.72,3,5.19,13.05,4,17.91C179.26,159.33,176.91,165.71,176.83,165.64Z"/><path class="cls-3" d="M247.17,216.49c-.32.29-5.75,4.29-5.78,4.19s-3-9.36-2.52-13.72c.42-3.71,2-8.32,5.34-10.33a6.51,6.51,0,0,1,9.35,2.68C255.85,204.43,250.8,213.13,247.17,216.49Z"/><path class="cls-3" d="M87.76,174.89s27.85,29.22,27.71,65.1-28.3,64.84-28.3,64.84-27.84-29.21-27.69-65.1S87.76,174.89,87.76,174.89Z"/><path class="cls-3" d="M127.47,261.49a9.66,9.66,0,0,1-1-1.29c-2-3.12-3.76-7.66-2.45-11.4a6.49,6.49,0,0,1,8.08-4.36,6.92,6.92,0,0,1,.76.28c3.78,1.82,5.63,8,6,13,1.51-.36,2.87-.63,4-.83.5-1.18,1-2.28,1.5-3.45s.95-2.36,1.43-3.6c.66-1.79,1.26-3.67,1.86-5.55-2.2-1-8.61-4-11-6.74s-4.84-7-4.11-10.88a6.53,6.53,0,0,1,7.38-5.56,6.24,6.24,0,0,1,.75.16c5.28,1.6,8.4,11.21,8.5,16.21,0,.16-.08,1.18-.19,2.47.54-1.85,1.08-3.69,1.55-5.59C152,229,153.17,223.5,154.42,218c.26-1.18.53-2.3.8-3.44-1.86-.84-8.84-4.08-11.34-6.88s-4.86-7-4.13-10.9a6.46,6.46,0,0,1,8.14-5.38c5.29,1.59,8.39,11.19,8.51,16.19,0,.19-.11,1.45-.23,2.87.71-3,1.47-6,2.35-8.89a120,120,0,0,1,5.2-14.75c-.66-.28-8.91-3.92-11.69-7.07-2.47-2.77-4.85-7-4.13-10.88a6.54,6.54,0,0,1,7.41-5.55,4.85,4.85,0,0,1,.74.15c5.28,1.6,8.39,11.21,8.5,16.21,0,.35-.4,4.92-.6,6.55l.07-.16a84.92,84.92,0,0,1,7.58-13.31A113.66,113.66,0,0,1,180,161.93c2.74-3.21,5.45-6,7.86-8.42q2-1.95,3.7-3.54h-.12c-.09,0,2.59-6.25,2.8-6.62,2.47-4.34,9.75-11.23,15.13-10a6.66,6.66,0,0,1,4.77,8.11c-.06.21-.12.41-.19.61-1.18,3.76-5.31,6.29-8.77,7.51s-11.36.64-13.29.47c-1.18,1.18-2.43,2.35-3.77,3.78-2.36,2.48-5,5.31-7.66,8.56-.71.87-1.44,1.84-2.16,2.76,1.53-1.3,3.66-3,3.89-3.18,4.16-2.69,13.74-5.4,18-1.82a6.7,6.7,0,0,1,.51,9.46c-.13.14-.26.28-.4.41-2.78,2.78-7.56,3.11-11.2,2.57s-10.61-4.88-12.06-5.84c-1.57,2-3.14,4.21-4.65,6.56a85,85,0,0,0-7.2,13.31c-.12.27-.2.55-.31.82.65-.76,4.52-4.71,4.82-5,3.85-3.14,13.08-6.9,17.69-3.81a6.69,6.69,0,0,1,1.53,9.34,3.94,3.94,0,0,1-.36.45c-2.45,3.07-7.17,3.93-10.85,3.8-4.24-.15-12.58-4.43-12.89-4.6A117.69,117.69,0,0,0,160.06,202c-1,3.62-1.77,7.32-2.56,11.05.87-1,4.47-4.72,4.71-4.92,3.85-3.13,13.08-6.89,17.69-3.8a6.69,6.69,0,0,1,1.53,9.34,5.37,5.37,0,0,1-.35.45c-2.46,3.07-7.18,3.94-10.85,3.8-4.14-.15-12.15-4.22-12.83-4.56-.36,1.68-.72,3.38-1.07,5.08-1.18,5.54-2.23,11.09-3.54,16.5-.43,1.89-.93,3.73-1.42,5.59,1.35-1.44,3.85-4,4.1-4.2,3.83-3.13,13.07-6.89,17.68-3.82a6.71,6.71,0,0,1,1.53,9.37,4.82,4.82,0,0,1-.35.44c-2.46,3.07-7.18,3.93-10.86,3.8s-10.5-3.41-12.41-4.36c-.84,3.07-1.73,6.1-2.76,9.05-.46,1.25-.86,2.57-1.38,3.75l-.78,1.89c.69-.09,1.08-.11,1.08-.11s.07,1.75-.1,4.6c4.06-2.94,9.89-5.46,13.7-3.69a6.69,6.69,0,0,1,2.9,9,4.91,4.91,0,0,1-.28.5,8.21,8.21,0,0,1-.85,1.18,26,26,0,0,1-5.23,11.85c-.22.25-3,2.83-4.4,4.11,1.39-.76,2.77-1.52,4.2-2.35,2.07-1.18,4.22-2.47,6.3-3.72l3.22-2.08c1.1-.69,2.08-1.48,3.14-2.22,1.53-1.12,3.05-2.36,4.57-3.54-1.3-2.06-5-8.25-5.53-11.79s-.25-8.57,2.48-11.4a6.47,6.47,0,0,1,9.12-.53,6.67,6.67,0,0,1,.59.6c3.54,4.29.92,14-1.71,18.29-.08.13-.73,1-1.51,2,1.45-1.25,2.9-2.49,4.33-3.8,4.06-3.73,8.06-7.64,12.11-11.54l2.53-2.43c-1.09-1.73-5.16-8.35-5.72-12.1s-.24-8.57,2.47-11.4a6.47,6.47,0,0,1,9.12-.53,6.67,6.67,0,0,1,.59.6c3.54,4.3.92,14-1.69,18.29-.1.15-.88,1.18-1.75,2.25,2.23-2.09,4.47-4.15,6.76-6.12a114,114,0,0,1,12.34-9.43c-.4-.61-5.32-8.25-5.9-12.44-.55-3.69-.24-8.56,2.47-11.39a6.47,6.47,0,0,1,9.12-.54,6.67,6.67,0,0,1,.59.6c3.54,4.31.92,14.06-1.69,18.29-.19.31-3,3.89-4.07,5.14l.15-.11a85.7,85.7,0,0,1,13.55-6.86,116.53,116.53,0,0,1,12.78-4.22c4-1.18,7.79-1.93,11.13-2.6,1.8-.36,3.46-.65,5-.9l-.1-.07c-.08-.07,5.54-3.77,5.9-4,4.42-2.23,14.23-3.9,18.07.12a6.69,6.69,0,0,1-.45,9.44c-.15.13-.3.26-.46.38-3,2.46-7.84,2.28-11.4,1.35s-9.82-5.82-11.34-7.07c-1.6.29-3.31.62-5.2,1-3.31.74-7.07,1.61-11,2.84-1.06.33-2.19.72-3.3,1.08,2-.21,4.71-.47,5-.47,4.92.09,14.39,3.21,16,8.57a6.65,6.65,0,0,1-4.72,8.13,5.41,5.41,0,0,1-.55.12c-3.82.76-8-1.65-10.74-4.15s-6.18-10-6.88-11.62c-2.43.84-4.91,1.76-7.44,2.86a82.81,82.81,0,0,0-13.23,7.08c-.25.16-.47.35-.72.52,1-.27,6.35-1.43,6.74-1.47,4.91-.46,14.65,1.58,16.81,6.75a6.63,6.63,0,0,1-3.74,8.62,5.89,5.89,0,0,1-.59.21c-3.72,1.18-8.13-.74-11.12-2.93-3.44-2.5-8.09-10.75-8.25-11.07a117.65,117.65,0,0,0-11.73,9.36c-2.76,2.48-5.45,5.11-8.13,7.77,1.27-.33,6.28-1.39,6.64-1.42,4.91-.46,14.65,1.58,16.81,6.73a6.65,6.65,0,0,1-3.74,8.63l-.6.2c-3.71,1.18-8.12-.74-11.1-2.91-3.37-2.45-7.85-10.34-8.25-11l-3.65,3.63c-3.93,4-7.88,8-11.89,11.86-1.38,1.33-2.8,2.59-4.21,3.85,1.9-.43,5.39-1.17,5.69-1.17,4.91-.46,14.65,1.57,16.81,6.74a6.65,6.65,0,0,1-3.74,8.63l-.59.2c-3.72,1.18-8.13-.74-11.12-2.93s-6.91-8.72-8-10.61c-2.36,2.1-4.72,4.12-7.21,6-1.07.77-2.12,1.65-3.19,2.35L165,280.23c-2.22,1.39-4.27,2.69-6.37,3.94-1.05.63-2.06,1.18-3.09,1.81,1.87-.74,4.84-1.86,5.12-1.93,4.79-1.18,14.71-.7,17.62,4.07a6.66,6.66,0,0,1-2.39,9.13,5.28,5.28,0,0,1-.58.3c-3.53,1.73-8.13.51-11.42-1.18-3.62-1.86-9.05-8.71-9.73-9.55-2.52,1.46-5,2.87-7.34,4.14-6.25,3.39-11.71,6.11-15.94,8.13-13.76,12.09-33.12,13.42-33.12,13.42s-1-23.58,12.64-39.07A47.72,47.72,0,0,1,127.47,261.49Zm24.56,23c-.43-1-3.73-8.45-3.95-12.67-.77-.14-1.53-.31-2.28-.48a55.05,55.05,0,0,1-8.54,20.75c2.49-1.18,5.21-2.55,8.08-4C147.48,286.93,149.73,285.72,152,284.46Z"/><path class="cls-3" d="M26,257s23.19.72,37.39,15.72,14,38.57,14,38.57-23.19-.72-37.4-15.71S26,257,26,257Z"/><g class="cls-5"><polygon points="86.62 272.17 63.83 251.35 64.81 250.24 86.63 270.19 86.75 242.89 86.63 242.98 67.36 214.34 68.56 213.5 86.76 240.54 87.03 174.89 88.5 174.89 88.31 219.46 102.81 206.7 103.77 207.82 88.3 221.43 88.17 253.29 110.15 233.52 111.12 234.63 88.15 255.27 88.03 284.29 104.55 271.11 105.46 272.27 88.02 286.18 87.94 304.86 86.48 304.85 86.62 272.17 86.62 272.17"/><polygon points="107.61 280.21 109.06 280.03 110.89 296.52 120.68 285.41 120.67 285.41 123.14 265.45 124.59 265.64 122.38 283.48 146.69 255.86 147.78 256.85 131.28 275.6 141.72 275.73 141.71 277.21 129.99 277.06 118.42 290.2 134.76 290.23 134.76 291.71 117.12 291.69 106.59 303.64 118.12 304.35 118.03 305.82 105.35 305.06 98.35 313.02 97.25 312.03 109.6 298.01 107.61 280.21"/><polygon points="52.55 286.08 33.16 282.08 33.45 280.62 50.8 284.2 25.5 257.5 26.55 256.46 43.72 274.58 44.63 264.01 46.08 264.14 45.06 276.01 57.1 288.71 58.34 272.15 59.8 272.27 58.46 290.14 69.4 301.7 70.95 290.07 72.39 290.27 70.69 303.07 77.98 310.75 76.93 311.79 64.09 298.23 46.48 298.93 46.42 297.44 62.74 296.81 52.56 286.06 52.55 286.08"/></g></g><g id="freepik--Ground--inject-5"><polygon class="cls-3" points="147.91 315.94 3.45 338.99 269.6 385.1 487.6 347.37 147.91 315.94"/></g><g id="freepik--Shadow--inject-5"><ellipse class="cls-7" cx="239.83" cy="343.08" rx="73.54" ry="8.76"/></g><g id="freepik--Character--inject-5"><path class="cls-8" d="M233.7,248.08s-6.13,1.76-24.94,1.32-46-9.19-56.47-9.19S130.38,244.14,126,252.9s-8.32,19.7,17.07,29.77,44.65,13.13,81,22.32,50.78,9.63,69.56,4.82,31.51-17.07,29.77-34.19-5.7-27.57-14.88-30.2S233.7,248.08,233.7,248.08Z"/><path class="cls-9" d="M263.07,108.65s.66,8.32-1.66,13-11.66,9.32-19.65,13.65-19.32,3.67-24,11-4.33,19.64-4.33,19.64-7.33,11.33-13.32,21.31-9.33,20.32-1.66,25.94,17-2.66,22-10.61,9.66-17,9.66-17,6.38,30.93,4.65,39.28-5.65,16.32-5.65,20,3,6.33,7.66,7.32,20.64,2.36,31.63,1.67,42.29-2.66,43.62-7,3.32-34.3,3.32-34.3S335,219.24,341,207.27s6.32-38.91,2-52.29-15.33-18.31-22-21.63-25-12-28.29-15.66S288.36,96,288.36,90s-.66-.33-7,4.33S263.07,108.65,263.07,108.65Z"/><g class="cls-10"><path class="cls-3" d="M343,154.92c-4.33-13.31-15.33-18.31-22-21.63s-25-12-28.29-15.66S288.36,96,288.36,90s-.66-.33-7,4.33-18.31,14.32-18.31,14.32a44.7,44.7,0,0,1,0,5.67c3.78,1.64,8.79,3.54,11.59,3.54,4.87,0,6.33,3.4,8.25,6.81s-1.46,7.3-1.46,7.3,15.57,1,20.92,2.43,19.47,3.4,28.23,10.71c6.92,5.76,11.7,16.36,14.85,23.21A63.65,63.65,0,0,0,343,154.92Z"/><path class="cls-11" d="M343,154.92c-4.33-13.31-15.33-18.31-22-21.63s-25-12-28.29-15.66S288.36,96,288.36,90s-.66-.33-7,4.33-18.31,14.32-18.31,14.32a44.7,44.7,0,0,1,0,5.67c3.78,1.64,8.79,3.54,11.59,3.54,4.87,0,6.33,3.4,8.25,6.81s-1.46,7.3-1.46,7.3,15.57,1,20.92,2.43,19.47,3.4,28.23,10.71c6.92,5.76,11.7,16.36,14.85,23.21A63.65,63.65,0,0,0,343,154.92Z"/></g><path class="cls-12" d="M263.07,108.65s.66,8.32-1.66,13-11.66,9.32-19.65,13.65-19.32,3.67-24,11-4.33,19.64-4.33,19.64-7.33,11.33-13.32,21.31-9.33,20.32-1.66,25.94,17-2.66,22-10.61,9.66-17,9.66-17,6.38,30.93,4.65,39.28-5.65,16.32-5.65,20,3,6.33,7.66,7.32,20.64,2.36,31.63,1.67,42.29-2.66,43.62-7,3.32-34.3,3.32-34.3S335,219.24,341,207.27s6.32-38.91,2-52.29-15.33-18.31-22-21.63-25-12-28.29-15.66S288.36,96,288.36,90s-.66-.33-7,4.33S263.07,108.65,263.07,108.65Z"/><path class="cls-8" d="M309.68,69.69c2.67-5,6.67-13.66,1.34-19.64s-8.66-2.36-9.33-8.33-2-12.32-8-12.32-10.32,2.36-14,0-6.66-9-16-9-9.31,14.32-11,16A8.35,8.35,0,0,1,250,37.7a2.39,2.39,0,0,1-1.6-1.31c-1.67-3.32,3-3,5-8s-3.66-8.32-7.66-5.33,4.33,2.67-.33,7.67-7.32,11-3,18.34,9.33,3,9.33,3c1-.66,1.88,3.09,10.76,4.72,8.45,1.54,14.23-1.18,14.9,8.11s9,14.49,11.29,15.82-3.66,8.67-2.35,12,5.66,3,8.32,2.67,1-4.33,6.66-5,7.65-2.36,10-8.66S307,74.69,309.68,69.69Z"/><path class="cls-13" d="M308.54,60.72a4.21,4.21,0,0,0,2.88-.74"/><path class="cls-13" d="M288.09,47.16s5.89-4.72,9.33,1.18c2.11,3.53,4.86,8.25,7.86,10.77"/><path class="cls-13" d="M285.17,63.49a41.66,41.66,0,0,1,11.09-.59c5.24.59,4.71,4.71,10.49,4.71"/><path class="cls-13" d="M260.83,41.38A10.6,10.6,0,0,0,262.48,43"/><path class="cls-13" d="M284.94,41.44s-1.51,5.13-7.35-1.86-9.88-15.09-16.5-8.15a6.79,6.79,0,0,0-2.22,5.72"/><path class="cls-13" d="M246.11,43.34a13.16,13.16,0,0,1-1.18-3.76"/><path class="cls-13" d="M256.6,48.9s-5.6.66-9.13-3.48"/><path class="cls-3" d="M321,133.29c-5.18-2.61-17.47-8.44-24.2-12.61-2.22,6.64-8.73,21.92-21.74,21.92-12,0-15.53-11.22-16.51-17.5-4,3.53-10.74,6.93-16.75,10.18-8,4.33-19.31,3.67-24,11s-4.32,19.64-4.32,19.64-2.48,3.83-5.72,9c13.45-.67,22.4,10.67,22.4,10.67s6.3,30.93,4.57,39.28-5.65,16.32-5.65,20,3,6.33,7.66,7.32,20.64,2.36,31.63,1.67,42.29-2.66,43.62-7,3.32-34.3,3.32-34.3l-2-26.3c16.73-11.06,28.42-3.31,32.26,0,.82-11.3-.12-23.58-2.63-31.31C338.65,141.61,327.66,136.61,321,133.29Z"/><g class="cls-14"><path class="cls-7" d="M343,154.92c-4.33-13.31-15.33-18.31-22-21.63s-25-12-28.29-15.66S288.36,96,288.36,90s-.66-.33-7,4.33-18.31,14.32-18.31,14.32a44.7,44.7,0,0,1,0,5.67c3.78,1.64,8.79,3.54,11.59,3.54,4.87,0,6.33,3.4,8.25,6.81s-1.46,7.3-1.46,7.3,15.57,1,20.92,2.43,19.47,3.4,28.23,10.71c6.92,5.76,11.7,16.36,14.85,23.21A63.65,63.65,0,0,0,343,154.92Z"/><path class="cls-7" d="M297.52,134s-4.87,9.24-14.15,12.17a32.32,32.32,0,0,1-16.5,1s6.81,3.89,17,1.46S297.52,134,297.52,134Z"/><path class="cls-7" d="M311.15,179.69s.48,15.58-5.36,19.47-24.33,7.29-31.63,5.35S260,192.34,253.24,194.29s-18.5,14.6-18.5,14.6l.48,8.76,20.93-10.22s14.15,8.25,29.68,18.49,1,12.66,1,12.66l-19.46,7.3S280,241,289.75,241s3.41,1.94,3.41,1.94h18.48l.39,3.87L315.57,223l-1-28.72S313.59,174.82,311.15,179.69Z"/></g><path class="cls-12" d="M321,133.29c-5.18-2.61-17.47-8.44-24.2-12.61-2.22,6.64-8.73,21.92-21.74,21.92-12,0-15.53-11.22-16.51-17.5-4,3.53-10.74,6.93-16.75,10.18-8,4.33-19.31,3.67-24,11s-4.32,19.64-4.32,19.64-2.48,3.83-5.72,9c13.45-.67,22.4,10.67,22.4,10.67s6.3,30.93,4.57,39.28-5.65,16.32-5.65,20,3,6.33,7.66,7.32,20.64,2.36,31.63,1.67,42.29-2.66,43.62-7,3.32-34.3,3.32-34.3l-2-26.3c16.73-11.06,28.42-3.31,32.26,0,.82-11.3-.12-23.58-2.63-31.31C338.65,141.61,327.66,136.61,321,133.29Z"/><path class="cls-12" d="M230.11,185.56s-5.15-15.83-3-24.15"/><path class="cls-12" d="M313.35,186.22a38.87,38.87,0,0,1,.9-18.68"/><path class="cls-12" d="M236.77,252.15s16.2-2.36,27.11-4.94"/><path class="cls-9" d="M198,194.09s-3.29,1.74-5.9,8.1-5.89,18.15-2.62,21.88,10.72.43,17.68-.44,36.11-17.94,40.92-20.8,8.76-3.93,10.29-6.56,1.1-12,1.31-16.64-.87-25.17-.87-25.17-1.53-5-4.16-4.59c0,0-3.07-1.75-3.72,0l-1.32,3.53s-2.84-.87-3.53.66a19.49,19.49,0,0,0-.88,4.6S242,160.19,242,162.2s.64,13.79.64,17.07-.43,8.32.66,10.5,2.2,4.16,2.2,4.16-16,2.2-22.77,2.2-18.6.21-20.79,1.3"/><g class="cls-15"><path class="cls-3" d="M258.44,196.21c.76-1.32,1.05-4.36,1.18-7.65l-10.52,2.28s1.07,4.81-4.82,8.56-38,14.45-40.09,15,20.34-9.62,11.79-9.09-18.73,9.63-24.61,9.63a10,10,0,0,1-2.78-.39c-.65,4-.61,7.69,1,9.43,3.28,3.73,10.73.44,17.69-.44s36.11-17.94,40.92-20.79S256.9,198.8,258.44,196.21Z"/><path class="cls-11" d="M258.44,196.21c.76-1.32,1.05-4.36,1.18-7.65l-10.52,2.28s1.07,4.81-4.82,8.56-38,14.45-40.09,15,20.34-9.62,11.79-9.09-18.73,9.63-24.61,9.63a10,10,0,0,1-2.78-.39c-.65,4-.61,7.69,1,9.43,3.28,3.73,10.73.44,17.69-.44s36.11-17.94,40.92-20.79S256.9,198.8,258.44,196.21Z"/></g><path class="cls-12" d="M198,194.09s-3.29,1.74-5.9,8.1-5.89,18.15-2.62,21.88,10.72.43,17.68-.44,36.11-17.94,40.92-20.8,8.76-3.93,10.29-6.56,1.1-12,1.31-16.64-.87-25.17-.87-25.17-1.53-5-4.16-4.59c0,0-3.07-1.75-3.72,0l-1.32,3.53s-2.84-.87-3.53.66a19.49,19.49,0,0,0-.88,4.6S242,160.19,242,162.2s.64,13.79.64,17.07-.43,8.32.66,10.5,2.2,4.16,2.2,4.16-16,2.2-22.77,2.2-18.6.21-20.79,1.3"/><path class="cls-9" d="M331.11,204.7c-10.51-6.78-32.4-1.54-39.4-2s-26.48-11.17-26.48-11.17,3.94-3.93,4.15-6.34,0-9,0-12.7,1.09-7.43,1.32-10.28-3.54-.88-4.16,0-2.2,9.62-2.2,9.62-2-5.89-2-6.55-.43-8.76-1.53-12.05-3.71,0-3.71,0c-.23-2-.89-3.54-2.42-3.54s-2.84,5.49-2.84,5.49c0-3.29-1.1-3.07-2.19-2s-1.09,8.32-1.09,8.32l-1.32-2c-1.53-.44-2.36,2-2.36,4.16s.88,8.75.88,14.22a40,40,0,0,0,.66,8.32A33.59,33.59,0,0,0,251.26,197c3.72,5.47,16.2,12.25,23.86,18.16s30.2,15.76,41.37,17.51,18.86,5.9,21.44,1.1,7.44-28.46,5-36.33"/><g class="cls-16"><path class="cls-3" d="M316.44,232.77c11.16,1.74,18.86,5.89,21.44,1.09,1.87-3.4,4.8-16.19,5.53-26.19-2.22,4.42-8.38,16-12.3,16.8-4.87,1-25.8-4.87-28.24-5.35s30.65-1.47,18.5-4.39-21.41-1-36.55-5.35-27.4-7.55-33.66-12.29c3.73,5.47,16.2,12.25,23.86,18.16S305.28,231,316.44,232.77Z"/><path class="cls-11" d="M316.44,232.77c11.16,1.74,18.86,5.89,21.44,1.09,1.87-3.4,4.8-16.19,5.53-26.19-2.22,4.42-8.38,16-12.3,16.8-4.87,1-25.8-4.87-28.24-5.35s30.65-1.47,18.5-4.39-21.41-1-36.55-5.35-27.4-7.55-33.66-12.29c3.73,5.47,16.2,12.25,23.86,18.16S305.28,231,316.44,232.77Z"/></g><path class="cls-12" d="M331.11,204.7c-10.51-6.78-32.4-1.54-39.4-2s-26.48-11.17-26.48-11.17,3.94-3.93,4.15-6.34,0-9,0-12.7,1.09-7.43,1.32-10.28-3.54-.88-4.16,0-2.2,9.62-2.2,9.62-2-5.89-2-6.55-.43-8.76-1.53-12.05-3.71,0-3.71,0c-.23-2-.89-3.54-2.42-3.54s-2.84,5.49-2.84,5.49c0-3.29-1.1-3.07-2.19-2s-1.09,8.32-1.09,8.32l-1.32-2c-1.53-.44-2.36,2-2.36,4.16s.88,8.75.88,14.22a40,40,0,0,0,.66,8.32A33.59,33.59,0,0,0,251.26,197c3.72,5.47,16.2,12.25,23.86,18.16s30.2,15.76,41.37,17.51,18.86,5.9,21.44,1.1,7.44-28.46,5-36.33"/><path class="cls-12" d="M264.34,171.91a23.07,23.07,0,0,1,1.76,9"/><path class="cls-12" d="M257.13,153.31a54.6,54.6,0,0,1,1.31,8.53c0,2.86.43,9.43.43,9.43"/><path class="cls-12" d="M251.87,155.29s.87,5,1.31,8.25a57.64,57.64,0,0,1,.22,8.31"/><path class="cls-12" d="M248.59,161.63s.65,3.94,1.09,5.7a48.22,48.22,0,0,1,.45,7"/><path class="cls-9" d="M234.58,288.4A25,25,0,0,1,228,284c-2.62-2.63,0-9.2-3.54-11.79s-10.5-3.54-11.79.45-2.19,6.56-4.82,7.43-5.68.88-10.5,3.07-4.81,10.07-4.81,10.07a133,133,0,0,1,27.11,6.56C232.36,304.63,238,302,238,302S238.52,293.18,234.58,288.4Z"/><g class="cls-17"><path class="cls-3" d="M229.28,293s-7.48-1.07-9.09-3.75,1.06-7.48-3.22-7.48-3.73,3.2-7.48,4.28-9.63-.55-7,2.67,13.38,9.62,19.8,10.7S233.56,296.76,229.28,293Z"/><path class="cls-11" d="M229.28,293s-7.48-1.07-9.09-3.75,1.06-7.48-3.22-7.48-3.73,3.2-7.48,4.28-9.63-.55-7,2.67,13.38,9.62,19.8,10.7S233.56,296.76,229.28,293Z"/></g><path class="cls-12" d="M234.58,288.4A25,25,0,0,1,228,284c-2.62-2.63,0-9.2-3.54-11.79s-10.5-3.54-11.79.45-2.19,6.56-4.82,7.43-5.68.88-10.5,3.07-4.81,10.07-4.81,10.07a133,133,0,0,1,27.11,6.56C232.36,304.63,238,302,238,302S238.52,293.18,234.58,288.4Z"/><path class="cls-8" d="M267.14,301.29a146.31,146.31,0,0,0,19.53-6.54C295,291.36,303.51,288,311.58,284c12.26-6.13,16.64-15.33,13.57-26.7s-8.31-20.14-30.65-16.2-29.41,17.38-38.9,27.57c-11.73,12.56-21.4,19-25.83,18.39-5.06-.7-6.13,8.75.87,12.27C242,305,254.86,304.3,267.14,301.29Z"/><path class="cls-13" d="M233.56,286.6s10.69-2.14,21.93-15,12.83-15,12.83-15"/><path class="cls-13" d="M313.89,283.15a41.64,41.64,0,0,0,5.26-5.11"/><path class="cls-13" d="M279,300.51s16.58-4.79,29.81-13.61"/><path class="cls-8" d="M146.16,241.24a41.64,41.64,0,0,0-11.79-.54c-10.51.87-17.51,7.44-19.25,13.13s4.37,20.14,17.94,29.77,27.57,11.79,46.4,17.07c16.68,4.66,34.19,10.14,33,9.84a12.34,12.34,0,0,1-3.71-9c.24-4,3-7.18,5.22-9.14-3.54-1.63-9.35-5.31-18.36-13.63-14.5-13.37-29.3-26.75-38-32.9"/><path class="cls-13" d="M153,246.67c-2.43-1.18-3.92-1.8-3.92-1.8"/><path class="cls-13" d="M198.25,279.11s-23-18.19-32.09-24.6a95.25,95.25,0,0,0-8.95-5.62"/><path class="cls-9" d="M266.54,299.31c-5.7-1.32-6.13,0-19.7-.45s-28.45-5.25-28.45-5.25-1.27.19-4.41-1.26c-2.26,2-5,5.1-5.22,9.14a12.34,12.34,0,0,0,3.71,9c2.36.62,4.63,1.18,6.79,1.54,9.63,1.76,21.45,6.13,27.58,8.76a38.29,38.29,0,0,0,15.76,3.54c4.81,0,2.93.72,6.45-.17s2.3-3.33,2.3-3.33a15.29,15.29,0,0,0,4.38-.88c2.62-.88,1.75-4.38,1.75-4.38a13.12,13.12,0,0,0,5-.82c2.68-1.4,2.68-4.35,1.52-7.07C282.3,303.51,272.23,300.61,266.54,299.31Z"/><g class="cls-18"><path class="cls-3" d="M269.05,324.09c2.18-.55,2.53-1.71,2.5-2.51a29.51,29.51,0,0,1-3.75.33c-7,0-15-5.9-28.36-8-7.32-1.18-19-3.14-28-4.72.35.45.69.87,1,1.26,2.36.63,4.63,1.18,6.79,1.55,9.63,1.75,21.45,6.13,27.58,8.76a38.12,38.12,0,0,0,15.76,3.53C267.41,324.25,265.53,325,269.05,324.09Z"/><path class="cls-11" d="M269.05,324.09c2.18-.55,2.53-1.71,2.5-2.51a29.51,29.51,0,0,1-3.75.33c-7,0-15-5.9-28.36-8-7.32-1.18-19-3.14-28-4.72.35.45.69.87,1,1.26,2.36.63,4.63,1.18,6.79,1.55,9.63,1.75,21.45,6.13,27.58,8.76a38.12,38.12,0,0,0,15.76,3.53C267.41,324.25,265.53,325,269.05,324.09Z"/></g><path class="cls-12" d="M266.54,299.31c-5.7-1.32-6.13,0-19.7-.45s-28.45-5.25-28.45-5.25-1.27.19-4.41-1.26c-2.26,2-5,5.1-5.22,9.14a12.34,12.34,0,0,0,3.71,9c2.36.62,4.63,1.18,6.79,1.54,9.63,1.76,21.45,6.13,27.58,8.76a38.29,38.29,0,0,0,15.76,3.54c4.81,0,2.93.72,6.45-.17s2.3-3.33,2.3-3.33a15.29,15.29,0,0,0,4.38-.88c2.62-.88,1.75-4.38,1.75-4.38a13.12,13.12,0,0,0,5-.82c2.68-1.4,2.68-4.35,1.52-7.07C282.3,303.51,272.23,300.61,266.54,299.31Z"/><path class="cls-12" d="M277.48,315.52a33.55,33.55,0,0,0-6.62-4.61"/><path class="cls-12" d="M271.35,320.75s-3.94-2.63-4.81-4.37"/><path class="cls-12" d="M265.23,323.77a9.89,9.89,0,0,1-4-3.89"/><path class="cls-12" d="M260,324.25a9.29,9.29,0,0,1-5.26-3.06"/><path class="cls-9" d="M255.41,46.72s-8.33,7.65-7.65,16-2,13-1,19,2.36,17.68,4.72,20.64,2.66,6.33,5,8,10.33,1.66,12-1,19.31-13,20.64-16.65,1-4.65,1-4.65,11.65-7,10-13-6.33-8.32-9-6.32-3,3-3,3-7-4.58-5.64-8.91S288,57,286.62,52s-11.29-2.5-21.89-1.68C256.37,50.92,259.12,43.66,255.41,46.72Z"/><g class="cls-19"><path class="cls-3" d="M300,75c-1.66-6-6.33-8.33-9-6.32s-3,3-3,3-7-4.59-5.64-8.91S287.9,57,286.57,52s-7.9-10.4-18.5-9.59c-2.44.19-4.21.38-5.59.63,4.42-.36,12.06-.33,16.06,3.32,5.89,5.35.49,10.71-1,16.07s1.95,12.65,1,18-5.84,9.25-5.84,16.06.49,9.25-5.89,13.63l-1.25.89a4.66,4.66,0,0,0,2.79-1.67c1.66-2.66,19.31-13,20.64-16.65S290,88,290,88,301.69,81,300,75Z"/><path class="cls-11" d="M300,75c-1.66-6-6.33-8.33-9-6.32s-3,3-3,3-7-4.59-5.64-8.91S287.9,57,286.57,52s-7.9-10.4-18.5-9.59c-2.44.19-4.21.38-5.59.63,4.42-.36,12.06-.33,16.06,3.32,5.89,5.35.49,10.71-1,16.07s1.95,12.65,1,18-5.84,9.25-5.84,16.06.49,9.25-5.89,13.63l-1.25.89a4.66,4.66,0,0,0,2.79-1.67c1.66-2.66,19.31-13,20.64-16.65S290,88,290,88,301.69,81,300,75Z"/></g><path class="cls-12" d="M255.41,46.72s-8.33,7.65-7.65,16-2,13-1,19,2.36,17.68,4.72,20.64,2.66,6.33,5,8,10.33,1.66,12-1,19.31-13,20.64-16.65,1-4.65,1-4.65,11.65-7,10-13-6.33-8.32-9-6.32-3,3-3,3-7-4.58-5.64-8.91S288,57,286.62,52s-11.29-2.5-21.89-1.68C256.37,50.92,259.12,43.66,255.41,46.72Z"/><path class="cls-12" d="M263.6,76s3.64,5,9.62,0"/><path class="cls-12" d="M248.75,75.35a3.52,3.52,0,0,0,4.95.66,2.83,2.83,0,0,0,.37-.32"/><path class="cls-12" d="M260.74,90.34c-2.67.67-6.32-.33-6.67-1.33s1.68-14,1.68-14l-2.36-4s-2-3-4.71-1"/><line class="cls-12" x1="254.75" y1="96.33" x2="262.62" y2="96.3"/><path class="cls-12" d="M275.39,70.69a14.37,14.37,0,0,0-15-.33"/><path class="cls-12" d="M297.45,76.19s-1.39-3.6-4.18-2.49-3.33,4.71-3.33,4.71,2.23-.84,2.23,2-2.5,1.66-2.5,1.66"/></g></svg>