<svg xmlns="http://www.w3.org/2000/svg" enable-background="new 0 0 66 66" viewBox="0 0 66 66"><path d="M60.3 60.1H46.2c-.8 1.2-2.1 1.9-3.4 1.9-1.4 0-2.7-.8-3.4-1.9H5.7L1.4 65h63.3L60.3 60.1zM22.9 23.7c-.5-1.6-.8-2.9-.6-4.4C16 16.9 12.6 9.6 12 2.8 11.9 1.7 10.9.9 9.8 1 8.7 1.1 7.9 2.1 8 3.2 9 13.6 14.9 21.7 22.9 23.7z"/><path d="M38.7 39.8l1 18.4c.1 1.6 1.4 2.8 3 2.8 1.7 0 3.1-1.4 3-3.2l-1.1-19.5-.6-.2C42.5 39.6 40.3 40.1 38.7 39.8zM23.1 14.8c3.2.2 5.8-2.3 6-5.4.2-3.2-2.3-5.8-5.4-6-3.2-.2-5.8 2.3-6 5.4C17.5 12 20 14.7 23.1 14.8z"/><path d="M23.3,21.5c1,5,5.1,14.3,14.4,17.2c2.2,0.7,4.6,0,6.2-1.7l6,2.6c1.9,0.8,4.1-0.5,4.2-2.6l0.4-12.4c0.1-1.7-1.2-3-2.9-3.1
		c-0.7,0-1.4,0.2-1.9,0.6c0.1,0.4,0,0.9-0.1,1.4c-0.2,0.6-0.6,1-1,1.4l-0.2,7.5L45.1,31c-0.6-1.7-2-3.2-3.9-3.8
		c-3.4-1.1-5.1-4.7-5.8-6.7L46,24.3c1,0.4,2.2-0.2,2.6-1.2c0.4-1-0.2-2.2-1.2-2.6l-15.5-5.6C27.4,12.8,22.4,16.6,23.3,21.5z"/></svg>