<svg xmlns="http://www.w3.org/2000/svg" enable-background="new 0 0 66 66" viewBox="0 0 66 66"><path d="M44.7 17.9c-1.8 1.1-4.7-.4-6-1.1-6.1-4.3-12.3-4.6-17.9 0-1.9.9-5.7 10.5-5.6 20.8 0 1.1.9 2 2 2 0 0 0 0 0 0 1.1 0 2-.9 2-2-.1-5.5 1-9.9 2-13l.8 11.1c.1.1.2.1.3.2 0 0 .6 0 .6 0 .3 0 .6.1.9.3 0 0 .6 0 .6 0 .8 0 1.4.6 1.4 1.4v3.9.5c0 .8-.6 1.4-1.4 1.4 0 0-.6 0-.6 0-.2.2-.4.3-.7.3-.1 0-.1 0-.2 0 0 0-.1 0-.3 0l0 .2c0 .2.2.4.3.5l-1.2 17.4c-.1 1.6 1.1 3.1 2.8 3.2 2 0 3.1-1.3 3.2-2.8 1.5-23.1 1.2-16.4 1.2-17.7h1.5c0 .6.4 6.5 1.2 17.7.1 1.6 1.4 2.8 3 2.8 1.7 0 3.1-1.5 3-3.2l-1.2-17.4c.6-.3.1.5 2.1-23.1 2.6 1.1 5.6 1.5 8.1.1 2.3-1.4 3.7-4.1 4-8.1h-4C46.5 15.7 45.8 17.3 44.7 17.9zM50.8 10.2c-.1-1.1-.9-2-2.1-1.9-1.1 0-1.9.9-1.9 2L50.8 10.2 50.8 10.2z"/><circle cx="29.8" cy="6.9" r="5.8"/><path d="M56.1 9.2h-.5c-.2 0-.4.2-.4.4v1.7h-.2v-2c0-.2-.2-.4-.4-.4H54c-.2 0-.4.2-.4.4v2h-.2V8.9c0-.2-.2-.4-.4-.4h-.5c-.2 0-.4.2-.4.4v2.4h-6.6V8.9c0-.2-.2-.4-.4-.4h-.5c-.2 0-.4.2-.4.4v2.4h-.2v-2c0-.2-.2-.4-.4-.4H43c-.2 0-.4.2-.4.4v2h-.2V9.6c0-.2-.2-.4-.4-.4h-.5c-.2 0-.4.2-.4.4V14c0 .2.2.4.4.4H42c.2 0 .4-.2.4-.4v-1.7h.2v2c0 .2.2.4.4.4h.5c.2 0 .4-.2.4-.4v-2h.2v2.3c0 .2.2.4.4.4h.5c.2 0 .4-.2.4-.4v-2.3h6.6v2.3c0 .2.2.4.4.4H53c.2 0 .4-.2.4-.4v-2.3h.2v2c0 .2.2.4.4.4h.5c.2 0 .4-.2.4-.4v-2h.2V14c0 .2.2.4.4.4h.5c.2 0 .4-.2.4-.4V9.6C56.4 9.4 56.3 9.2 56.1 9.2zM14.7 39.2h-.8v-2.4c0-.2-.2-.4-.4-.4H13c-.2 0-.4.2-.4.4v2.4h-.2v-2c0-.2-.2-.4-.4-.4h-.5c-.2 0-.4.2-.4.4v2h-.2v-1.7c0-.2-.2-.4-.4-.4H9.9c-.2 0-.4.2-.4.4v4.4c0 .2.2.4.4.4h.5c.2 0 .4-.2.4-.4v-1.7h.2v2c0 .2.2.4.4.4H12c.2 0 .4-.2.4-.4v-2h.2v2.4c0 .2.2.4.4.4h.6c.2 0 .4-.2.4-.4v-2.4h1.9C15.4 40 15 39.7 14.7 39.2zM22.1 42.2c0 .2.2.4.4.4H23c.2 0 .4-.2.4-.4v-2h.2v1.7c0 .2.2.4.4.4h.5c.2 0 .4-.2.4-.4v-4.4c0-.2-.2-.4-.4-.4H24c-.2 0-.4.2-.4.4v1.7h-.2v-2c0-.2-.2-.4-.4-.4h-.5c-.2 0-.4.2-.4.4v2h-.2v-2.4c0-.2-.2-.4-.4-.4h-.5c-.2 0-.4.2-.4.4v2.4h-.8c-.3.4-.7.8-1.1 1h1.9v2.4c0 .2.2.4.4.4h.5c.2 0 .4-.2.4-.4v-2.4h.2V42.2z"/></svg>