<svg xmlns="http://www.w3.org/2000/svg" enable-background="new 0 0 66 66" viewBox="0 0 66 66"><path d="M26.7,39.2c-5.1,0.4-9.1,4.6-9.1,9.8c0,5.4,4.4,9.9,9.9,9.9c5.4,0,9.9-4.4,9.9-9.9c0-2.7-1-5-2.7-6.8
		C32.1,41.5,29.4,40.6,26.7,39.2z"/><circle cx="59.2" cy="37" r="5.8"/><path d="M62.6,54.9c-6.2-2.2-10.2-10.3-11.7-13.8c0.9-1,1.5-2.4,1.6-4c0-3.3-2.6-6.1-5.9-6.1c-0.1,0-9.4-0.2-16.4-4.8
		c-1.8-1.2-3.9-1.3-5.7-0.5c-3.3-2.1-13-8.6-17.8-17.1C5.8,7.2,4,6.7,2.5,7.5c-1.4,0.8-1.9,2.7-1.1,4.1C6.8,21,16.8,28,20.9,30.6
		c-0.2,2.2,0.7,4.4,2.7,5.7c8,5.2,20.2,7.3,23.8,6.7c1.8,4.2,6.4,13,13.9,15.6c1,0.4,2.2-0.2,2.6-1.2C64.2,56.4,63.6,55.2,62.6,54.9
		z"/></svg>