<svg xmlns="http://www.w3.org/2000/svg" enable-background="new 0 0 66 66" viewBox="0 0 66 66"><path d="M19.7 39c-1.3 1-3.2.7-4.2-.7-1-1.3-.7-3.1.6-4.1-1-.3-2.1-.5-3.2-.5C6.3 33.8 1 39.1 1 45.7c0 6.6 5.3 11.9 11.9 11.9 6.5 0 11.9-5.3 11.9-11.9 0-3.1-1.2-6-3.2-8.1C20.9 38.1 20.3 38.6 19.7 39zM9.7 20.4c3.3 0 5.9-2.7 5.9-5.9 0-3.3-2.7-5.9-5.9-5.9-3.3 0-5.9 2.7-5.9 5.9C3.8 17.7 6.5 20.4 9.7 20.4zM63.5 49.2C54 43.8 46.3 34.7 43.6 31.3c.6-2 .2-4.2-1.4-5.9-5.3-5.6-15.7-11.6-16.9-12.2-2.9-1.6-6.5-.6-8.2 2.3-1.6 2.9-.6 6.5 2.3 8.2.2.1.5.3.8.5 0-2.4-.5-4.3-.5-4.3-.4-1.6.5-3.3 2.2-3.7 1.6-.4 3.2.5 3.7 2.1.1.3 1.2 4.6.5 9.5 2.8 1.9 5.7 4.1 7.5 5.9 1.4 1.4 3.4 2.2 5.7 1.7 3.2 4 11.2 13.1 21.3 19 1.4.8 3.3.3 4.1-1.1C65.4 51.9 65 50 63.5 49.2z"/><path d="M22.1,17.2c-1.1,0.3-1.7,1.4-1.4,2.4c0,0.1,2.7,10.6-4,15.4c-0.9,0.6-1.1,1.9-0.4,2.8c0.6,0.9,1.9,1.1,2.8,0.4
		c8.8-6.4,5.6-19.1,5.5-19.6C24.3,17.5,23.2,16.9,22.1,17.2z"/></svg>