<svg xmlns="http://www.w3.org/2000/svg" enable-background="new 0 0 66 66" viewBox="0 0 66 66"><path d="M30.9 21.6l2.8 2.3c.8.7 1.9.6 2.6-.1l5.9-5.4c.8-.8.9-2 .1-2.8-.8-.8-2-.9-2.8-.1l-4.6 4.3-4.9-4c.6 1 .9 2.2.9 3.5C30.9 19.9 30.9 20.8 30.9 21.6zM58.2 34.9L65 24.2c.4-.7.2-1.6-.5-2.1-.5-.3-1.1-.3-1.5 0l1.8-2.9c.3-.5.2-1.1-.3-1.4-.5-.3-1.1-.2-1.4.3l-5.6 9c-.3.5-.2 1.1.3 1.4.2.1.3.2.5.2.1 0 .2 0 .4-.1l-2.6 4.1H39.5c-.8 0-1.5.7-1.5 1.5 0 .8.7 1.5 1.5 1.5h6.8l11 25H2.9c-1.2 0-2.2 1-2.2 2.2 0 1.2 1 2.2 2.2 2.2h59.6c2 0 2.9-2.4 1.5-3.8L52.8 35.6H57C57.5 35.6 57.9 35.4 58.2 34.9zM24.1 12.5c3.2 0 5.8-2.6 5.8-5.8 0-3.2-2.6-5.8-5.8-5.8-3.2 0-5.8 2.6-5.8 5.8C18.3 9.9 20.9 12.5 24.1 12.5z"/><path d="M10.9,58.1l7.3-7.7c0.3-0.3,0.5-0.7,0.7-1.1l3.1-8.6c0.1,0,0.2,0,0.3,0l3.9,6.5l-2.3,8c-0.4,1.6,0.5,3.3,2.1,3.7
		c1.6,0.4,3.2-0.5,3.7-2.1l2.6-9.3c0.2-0.8,0.1-1.6-0.3-2.3l-4.7-7.8c0.1-0.2,0.2-0.4,0.3-0.6c2.2-6,2.4-12.6,2.4-17.6
		c0-3.3-2.7-5.9-6-5.9h-0.1c-1.4,0-2.7,0.5-3.8,1.4c0,0,0,0-0.1,0l-8.4,6c-0.7,0.5-1,1.5-0.7,2.3l3.1,8.6c0.4,1,1.5,1.6,2.6,1.2
		c1-0.4,1.6-1.5,1.2-2.6l-2.6-7.2l2.7-1.9c0,1.8-0.1,3.7-0.3,5.6l1.1,3.1c0.6,1.6-0.2,3.3-1.8,3.9c-0.3,0.1-0.7,0.2-1,0.2
		c-0.2,1.4,0.1,2.8,0.7,3.9l-3.2,9.1L6.6,54c-1.1,1.2-1.1,3.1,0.1,4.2C7.9,59.4,9.8,59.3,10.9,58.1z"/></svg>