<svg xmlns="http://www.w3.org/2000/svg" enable-background="new 0 0 66 66" viewBox="0 0 66 66"><path d="M35.2 33.8c-.1 2.6.2 3.6-.3 5.3l2.5-2-.6 7.2c-.1 1.6 1.1 3.1 2.8 3.2.1 0 .2 0 .2 0 1.5 0 2.9-1.2 3-2.8l.7-8.6c-.4.2-.8.3-1.3.3C40.8 36.5 36.4 34.5 35.2 33.8zM43.8 31c0-.1.4-2.3-1.6-3.3-2.2-1.2-3.7.8-4 .9C41.2 30.2 43.2 30.5 43.8 31z"/><circle cx="28.2" cy="6.8" r="5.8"/><path d="M25.1,19.8c0.2-1.5,1.5-2.8,3.3-2.6c1.6,0.2,2.8,1.7,2.6,3.3c0,0-0.1,2.6,3.2,5.5v-6c0-3.3-2.7-6-6-6c-3.3,0-6,2.7-6,6v17
		c0,0.9,0.2,1.8,0.6,2.6l0.4,8.6l-1.4,13.5c-0.2,1.6,1,3.1,2.7,3.3c1.6,0.2,3.1-1,3.3-2.7c1.6-16,1.6-12.6,1.2-19.4
		c3-0.4,5.2-2.9,5.2-5.9v-3.7C29.2,30.4,24.5,25,25.1,19.8z"/><path d="M42.8,31.6C29.7,27.2,30,20.7,30,20.3c0.1-1.1-0.7-2.1-1.8-2.2c-1.1-0.1-2.1,0.7-2.2,1.8c0,0.4-1,10,15.4,15.5
		C44,36.2,45.3,32.5,42.8,31.6z"/></svg>