<svg xmlns="http://www.w3.org/2000/svg" enable-background="new 0 0 66 66" viewBox="0 0 66 66"><path d="M12.7,28.1c-0.1-1.6,1.1-3.1,2.7-3.2c1.6-0.1,3.1,1.1,3.2,2.7c0.1,1.2,0.3,2.4,0.4,3.6c2.6-2,4.3-5.1,4.3-8.6
		c0-6-4.9-10.8-10.8-10.8c-6,0-10.8,4.9-10.8,10.8c0,6.2,5.2,11.3,11.7,10.8C13.1,31.7,12.8,29.9,12.7,28.1z"/><circle cx="6.7" cy="44.7" r="5.8"/><path d="M64.4,21.9c-1-1.3-2.9-1.5-4.2-0.5c-5.3,4.1-10.8,14.2-13.9,20.4c-1-0.4-2.2-0.6-3.4-0.4c-7.5,1.4-17.2,0.6-21.2,0.2
		c0.6,1.7,1.3,3.5,2.1,5.2c0.7,1.5,0,3.3-1.5,4c-1.6,0.7-3.3-0.1-4-1.5c-1-2.3-1.9-4.5-2.7-6.8c-1.3,0.9-2.2,2.4-2.5,4.1
		c-0.5,3.3,1.8,6.3,5.1,6.8c8.3,1,18.6,1.5,26.8,0c2.6-0.5,4.5-2.6,4.9-5.1c2.6-5.7,9-18.2,13.9-22C65.2,25.1,65.4,23.2,64.4,21.9z"/><path d="M15.5,25.9c-1.1,0.1-1.9,1.1-1.8,2.2c0.6,6.9,2.5,13.9,5.6,20.8c0.5,1,1.6,1.5,2.6,1c1-0.5,1.5-1.6,1-2.6
		c-2.9-6.5-4.7-13.1-5.3-19.5C17.6,26.6,16.6,25.8,15.5,25.9z"/></svg>