<svg xmlns="http://www.w3.org/2000/svg" enable-background="new 0 0 66 66" viewBox="0 0 66 66"><path d="M9.3 20.3c1.7 0 3-.9 3-1.9 0-.8-.8-1.5-1.9-1.8V16c-1.6-.1-1.7 0-2.2-.1v.6c-1.1.3-1.9 1-1.9 1.8C6.3 19.4 7.7 20.3 9.3 20.3zM8.2 9.6v.5C8.8 10 9.4 10 10.4 10V9.6c1.1-.3 1.9-1 1.9-1.8 0-1.1-1.3-1.9-3-1.9s-3 .9-3 1.9C6.3 8.6 7.1 9.3 8.2 9.6zM39.6 25.6c-.8 1.1-2 2-3.4 2.4 1.3 4.1 3.5 10.4 5.8 14.6.5 1 1.8 1.3 2.7.8 1-.5 1.3-1.7.8-2.7C43.2 36.5 40.8 29.4 39.6 25.6zM4 37.7c-1.6 0-3 1.3-3 3s1.3 3 3 3h4.3l-.8-6H4zM16.3 43.7h6.5c2.4 0 3.8-2.6 2.5-4.6l-4.4-7-6 1.6-.1 0 .1.2 2.3 3.8h-1.9L16.3 43.7z"/><path d="M13.9 32.9c.2 0 .4-.1.6-.1l21.1-5.6c3.2-.8 5.1-4.1 4.3-7.3-.8-3.2-4.1-5.1-7.3-4.3l-.8.2c.8.4 1.5.9 2.2 1.4 1.4.9 1.8 2.8.8 4.2-.9 1.4-2.8 1.7-4.2.8-2.4-1.6-5.2-2.9-8.2-3.9l-11 2.9c-3.2.9-5.3 4.3-4.1 7.7l3.8 28.7c.2 1.6 1.7 2.8 3.4 2.6 1.6-.2 2.8-1.7 2.6-3.4L13.9 32.9zM45.5 23.7c2.9.3 5.4-1.8 5.7-4.7.3-2.9-1.8-5.4-4.7-5.7-2.9-.3-5.4 1.8-5.7 4.7C40.5 20.9 42.6 23.5 45.5 23.7z"/><polygon points="65 44.7 18.2 44.7 18.2 47.3 20.8 47.3 20.8 59.7 22.8 59.7 22.8 47.3 60.4 47.3 60.4 59.7 62.3 59.7 62.3 47.3 65 47.3"/><path d="M9,11c-1.1,0-2,0.9-2,2c0,1.1,0.9,2,2,2c8.2,0.1,16.3,2.4,22.3,6.3c0.9,0.6,2.2,0.4,2.8-0.6c0.6-0.9,0.4-2.2-0.6-2.8
		C26.8,13.6,17.9,11.1,9,11C9,11,9,11,9,11z"/></svg>