<svg xmlns="http://www.w3.org/2000/svg" enable-background="new 0 0 66 66" viewBox="0 0 66 66"><path d="M26.9 24.8c1.2-.7 2.5-1.5 3.8-2.6 0-.1-.1-.1-.1-.2-.8-1.3-1.1-2.7-1-4.1-1.9 1.7-3.9 2.9-5.5 3.8C25.3 22.5 26.2 23.5 26.9 24.8zM22.8 33.3c-1.7 0-3-1.3-3-3 0-1.7 1.3-3 3-3 1.4 0 2.7-.2 3.8-.6-.9-3.1-3.8-5.4-7.2-5.4-4.1 0-7.5 3.4-7.5 7.5 0 4.1 3.4 7.5 7.5 7.5 2.6 0 4.8-1.3 6.2-3.3C24.7 33.2 23.8 33.3 22.8 33.3 22.8 33.3 22.8 33.3 22.8 33.3zM42 47.9l3-9.3c-1.3-.6-3.2-2.3-4.3-3.4l-4.1 13c-.1.3-.1.6-.1.9l-.1 12c0 1.7 1.3 3 3 3 0 0 0 0 0 0 1.7 0 3-1.3 3-3l0-8.8-.5-2.5C41.7 49.3 41.8 48.6 42 47.9zM29.1 13.4c3.2 0 5.7-2.6 5.7-5.8 0-3.2-2.6-5.8-5.7-5.8s-5.8 2.6-5.8 5.8C23.4 10.8 26 13.4 29.1 13.4z"/><path d="M53.3,35.3c1.5-2.7,0.8-6.2-1.8-7.9c-3.1-2.1-7.8-8.9-9.8-12.1c-1.7-2.8-5.4-3.7-8.2-2c-2.8,1.7-3.7,5.4-2,8.2
		c0.2,0.2,0.4,0.6,0.7,1.1c0.2-0.3,2.5-4.2,2.5-4.5c0.7-0.6,1.7-0.9,2.7-0.6c1.6,0.4,2.5,2.1,2.1,3.7c-0.5,1.8-1.7,4.4-3.8,6.7
		c2.1,2.9,7.1,9.1,10.5,10.3l-3.2,10.2c-0.2,0.5-0.2,1-0.1,1.5l2.4,12c0.3,1.4,1.5,2.4,2.9,2.4c1.9,0,3.3-1.7,2.9-3.6l-2.3-11.3
		C49.9,46,53.2,35.8,53.3,35.3z M34.6,18.1C34.6,18.1,34.6,18,34.6,18.1C34.6,18,34.6,18.1,34.6,18.1z"/><path d="M37.1,18.4c-1.1-0.3-2.2,0.3-2.5,1.4c0,0.1-2.4,8.4-11.9,8.5c-1.1,0-2,0.9-2,2c0,1.1,0.9,2,2,2c0,0,0,0,0,0
		c10-0.1,14.6-7.5,15.7-11.4C38.8,19.8,38.2,18.7,37.1,18.4z"/></svg>