<svg xmlns="http://www.w3.org/2000/svg" enable-background="new 0 0 66 66" viewBox="0 0 66 66"><path d="M11.1,41.1L8.7,54.7l0,0.5c0,1.6,1.4,3,3,3h0c1.7,0,3-1.4,3-3l-0.2-14.4L11.1,41.1z"/><polygon points="15.4 45.7 18 45.7 18 57.3 20.8 57.3 20.8 45.7 57.5 45.7 57.5 57.3 60.2 57.3 60.2 45.7 62.9 45.7 62.9 42.7 15.4 42.7"/><circle cx="58.7" cy="35.4" r="5.8"/><path d="M20.2,39c1.1,1.5,2.9,2.5,4.9,2.5h21.2c3.3,0,6-2.7,6-6c0-3.1-2.4-5.6-5.4-6c0.3,1.4,0.7,2.9,1.1,4.5
		c0.4,1.6-0.5,3.3-2.1,3.7c-1.5,0.4-3.2-0.4-3.7-2.1c-0.6-2.1-1.1-4.2-1.5-6.1H25.1c-2.4,0-4.5,1.5-5.5,3.5L7.3,34.6
		C6,34.8,4.9,35.7,4.7,37L1.6,54.6c-0.3,1.6,0.8,3.2,2.4,3.5c1.6,0.3,3.2-0.8,3.5-2.4l2.7-15.4L20.2,39z"/><path d="M40.1 20.4c.5 4.4 1.5 9.3 3.1 14.9.3 1.1 1.4 1.7 2.5 1.4 1.1-.3 1.7-1.4 1.4-2.5-1.5-5.4-2.5-10-3-14.2C42.9 20.5 41.5 20.6 40.1 20.4zM41.5 19.5c3.2 0 5.8-2.6 5.8-5.8 0-3.2-2.6-5.8-5.8-5.8-3.2 0-5.8 2.6-5.8 5.8C35.7 16.9 38.3 19.5 41.5 19.5zM41.5 11.8c1.1 0 1.9.9 1.9 1.9 0 1.1-.9 1.9-1.9 1.9-1.1 0-1.9-.9-1.9-1.9C39.6 12.6 40.5 11.8 41.5 11.8z"/></svg>