<svg xmlns="http://www.w3.org/2000/svg" enable-background="new 0 0 66 66" viewBox="0 0 66 66"><path d="M29.6 26.2C29.5 30 29.4 35 30 39c.2 1.3 1.4 2 2.5 1.8 1.2-.2 2-1.3 1.8-2.5-.6-4-.5-9.4-.3-13.1C32 26.4 30.2 26.1 29.6 26.2zM12.6 30.4c-.3-1.3-1.1-2.2-2.1-2.2-1.2 0-2.2 1.6-2.2 3.5s1 3.5 2.2 3.5c1 0 1.8-.9 2.1-2.2h2c-.7-.6-1.1-1.5-1.1-2.5H12.6zM20.5 30.4h-.9l0 .5c-.1.8-.5 1.6-1.1 2.1h2c.3 1.3 1.1 2.2 2.1 2.2 1.2 0 2.2-1.5 2.2-3.5s-1-3.5-2.2-3.5C21.7 28.2 20.9 29.1 20.5 30.4zM34.1 41.2c-1.1.8-2.7.9-3.8 0H17.1v2.1h3.8V55h2.5v-1.8h35v-2h-35v-7.9h35V55H61V43.3h3.8v-2.1H34.1zM31.6 21.1c-.8 1.4-2.7 1.9-4.1 1.1l-6.9-4L20 25.5l10.7-.3c3.3-.1 5.9-2.9 5.8-6.2-.1-3.3-2.9-5.9-6.2-5.8l-6.1.2 6.4 3.6C32 17.8 32.5 19.7 31.6 21.1z"/><circle cx="44.4" cy="17.4" r="6.4"/><path d="M7.7 25.8c.8.1 1.4 0 6.2-.1l1-12-6.9.2c-3.2.1-5.7 2.7-6 5.9-.1.8-1.7 20.2-.4 32.5.2 1.5 1.5 2.7 3 2.7 1.8 0 3.2-1.5 3-3.3C6.9 43.8 7.4 32.5 7.7 25.8zM18.6 30.8l1.2-14.2 8.3 4.8c1 .5 2.2.2 2.7-.7.5-1 .2-2.2-.7-2.7l-11-6.3c-1.3-.7-2.9.1-3 1.6l-1.5 17.3c-.1 1.1.7 2.1 1.8 2.2.1 0 .1 0 .2 0C17.6 32.6 18.5 31.8 18.6 30.8z"/></svg>