<svg xmlns="http://www.w3.org/2000/svg" enable-background="new 0 0 66 66" viewBox="0 0 66 66"><path d="M37.8 16.9c3.3 0 6.1-2.7 6.1-6.1 0-3.3-2.7-6.1-6.1-6.1-3.3 0-6.1 2.7-6.1 6.1C31.8 14.2 34.5 16.9 37.8 16.9zM30.8 24.6c-1.2-1.1-1.4-3-.3-4.3 1.1-1.3 3-1.4 4.3-.3 1.2 1.1 2.2 2.2 3.1 3.4.5-2.7-1-5.5-3.7-6.5-3.1-1.3-6.6.2-7.8 3.3l-6.7 16.3c-.3.9-.5 1.7-.4 2.6l-8.8.5c-1.1.1-2.1.8-2.6 1.8L1.3 56.8c-.7 1.5 0 3.3 1.6 4 1.5.7 3.3 0 4-1.6l5.9-13.6 12.6-.7c0 0 0 0 0 0 0 0 0 0 .1 0 2.4 0 4.6-1.4 5.6-3.7l4.4-10.7C34.1 28.3 32.7 26.3 30.8 24.6zM65 59.7c-8-14-4.1-39.7-4-40l-3-.5c-.1.7-1.7 10.9-.8 22.2H44.7c-.4.5-.9 1-1.5 1.2-1.4.4-2.7-.1-3.4-1.2h-.2v19h3v-16h14.9c.7 5.9 2.1 11.9 4.9 16.8L65 59.7z"/><path d="M34.2,20.9c-0.8-0.7-2.1-0.7-2.8,0.2c-0.7,0.8-0.7,2.1,0.2,2.8c4.7,4.2,6.8,10.4,8.8,16.5c0.4,1.1,1.5,1.6,2.5,1.3
		c1.1-0.4,1.6-1.5,1.3-2.5C41.8,32.2,39.6,25.7,34.2,20.9z"/></svg>