<svg xmlns="http://www.w3.org/2000/svg" enable-background="new 0 0 66 66" viewBox="0 0 66 66"><path d="M44.2 30.4c.7 0 1.3 0 2 0l4.5-2.6 9.2-1.7c1.6-.3 2.7-1.9 2.4-3.5-.3-1.6-1.9-2.7-3.5-2.4L49 21.9c-.3.1-.7.2-1 .4L41.6 26C43 27.1 43.9 28.7 44.2 30.4zM20.1 38.5H1v3h48.1v-3H24.4C23.3 39.7 21.3 39.8 20.1 38.5z"/><rect width="2.3" height="17.6" x="4.5" y="41.6"/><rect width="2.3" height="17.6" x="43.3" y="41.6"/><path d="M18.5 18.3c3.2 0 5.8-2.6 5.8-5.8 0-3.2-2.6-5.8-5.8-5.8-3.2 0-5.8 2.6-5.8 5.8C12.7 15.7 15.3 18.3 18.5 18.3zM62.2 32c-12.7-.9-8.8-.8-18.9-.6-.1-1.9-1-3.8-2.8-4.9-1.6-1-5.6-5.3-8.3-8.6-3.3-4-9.8-2.2-10.6 2.9l-2.3 7.5c-.1.3-.1.6-.1.9l1.1 7.6c.2 1.1 1.2 1.9 2.3 1.7 1.1-.2 1.9-1.2 1.7-2.3l-1-7.2.7-2.3c2.2 2.6 6.8 7.8 10.1 9.9 2.5 1.6 3.4.6 17.4.6L61.8 38c1.6.1 3.1-1.1 3.2-2.8C65.1 33.5 63.9 32.1 62.2 32z"/></svg>