<svg xmlns="http://www.w3.org/2000/svg" enable-background="new 0 0 66 66" viewBox="0 0 66 66"><path d="M64 54.2c-4.2-3.7-7.8-8.3-11.2-14 1.3-2.5.7-5.6-1.6-7.4-3.1-2.4-6.7-8.7-8.3-12.2-1.3-3-4.9-4.4-7.9-3-3 1.3-4.4 4.9-3 7.9.1.2.2.5.5 1 1.5-2.1 2.3-3.9 2.3-4 .6-1.5 2.4-2.3 3.9-1.6 1.5.6 2.3 2.4 1.6 3.9-.1.3-1.6 4-4.7 7.4 2.1 3.5 4.9 7.5 8.2 10.1 1.1.9 2.4 1.3 3.7 1.3.1 0 .2 0 .3 0 3.7 6.2 7.7 11.2 12.3 15.3 1.2 1.1 3.1 1 4.2-.3C65.3 57.2 65.2 55.3 64 54.2zM31.2 18c3.2.1 5.8-2.3 6-5.5.1-3.2-2.3-5.8-5.5-6-3.2-.1-5.8 2.3-6 5.5C25.6 15.2 28 17.9 31.2 18zM25.4 37.9c-.7 0-1.4-.3-1.9-.7-.5-.4-.9-1.1-1.1-1.8 0-.1 0-.3 0-.4H1v2.2h1.9v22h3.9v-22H22v22H26V37.8c0 0 0 0 0 0C25.7 37.8 25.6 37.9 25.4 37.9z"/><rect width="8.5" height="1.3" x="12.6" y="32.8"/><path d="M4.8 23.6l1.4 9.1H4c-.4 0-.7.3-.7.7s.3.7.7.7h5.2c.4 0 .7-.3.7-.7s-.3-.7-.7-.7H7.4L6 24.2c.1 0 .2 0 .3 0l.6 2.7C7 27.5 7.5 28 8.2 28c.1 0 .2 0 .3 0 .7-.2 1.2-.9 1-1.6L6.9 13.7c-.2-.7-.9-1.2-1.6-1h0c-.7.2-1.2.9-1.1 1.6L4.8 17c-1.2.2-1.8 2-1.4 4C3.7 22.1 4.2 23 4.8 23.6zM38.2 21.7c-1-.4-2.2.1-2.6 1.1 0 .1-3.7 8.9-10.6 10.1-1.1.2-1.8 1.2-1.6 2.3.2 1 1 1.7 2 1.7.1 0 .2 0 .3 0 9.1-1.5 13.4-12.1 13.6-12.5C39.7 23.3 39.3 22.1 38.2 21.7z"/></svg>