<svg xmlns="http://www.w3.org/2000/svg" enable-background="new 0 0 66 66" viewBox="0 0 66 66"><path d="M21.7,41.7l-0.3,8.7l-3.4,10.8c-0.5,1.6,0.4,3.2,2,3.7c1.4,0.5,3.2-0.3,3.7-2l3.5-11.2c0.1-0.3,0.1-0.5,0.1-0.8l0.3-8
		C25.8,43.4,23.5,43.1,21.7,41.7z"/><path d="M27.6,41.9l4,4.8l0.9,7.2c0.2,1.6,1.7,2.8,3.3,2.6c1.6-0.2,2.8-1.7,2.6-3.3l-1-8c-0.1-0.6-0.3-1.1-0.7-1.5l-5-6.1
		c0.2-0.9,0.1-1.2,0.4-5.2c-6-2.8-8.1-9.6-8.3-13.4c-0.1-1.6,1.1-3.1,2.8-3.2c1.6-0.1,3,1.1,3.2,2.8c0,0.3,0.3,4.2,2.8,6.8l0.3-5.9
		c0.2-3.3-2.4-6.1-5.7-6.3c-3.3-0.2-6.1,2.4-6.2,5.7L20,35.9C19.8,39.9,23.6,43,27.6,41.9z"/><path d="M37.4 27.1l-.1.8c1 .6 1.5 1.8 1.3 3-.2 1-.8 1.8-1.7 2.2l0 .5c-1.1.2-1.9.8-2 1.6-.1 1 1.1 1.9 2.7 2.1 1.6.1 2.9-.6 3-1.6.1-.8-.6-1.5-1.7-1.9l.5-6.5c1.1-.2 1.9-.8 2-1.6.1-1-1.1-1.9-2.7-2.1-1.6-.1-2.9.6-3 1.6C35.7 26 36.4 26.7 37.4 27.1zM46.9 58.3c-.1-.9-.9-1.6-1.8-1.6h-7.3c-1.3.9-3.2 1-4.6 0H31c-.9 0-1.7.7-1.8 1.6l-1.2 6h4.7l.7-1.8c.1-.5.5-.8 1-.8h7.5c.5 0 .9.4 1 .8l.6 1.8h4.7L46.9 58.3z"/><path d="M37.7,30.7c0.2-1.1-0.5-2.1-1.6-2.3c-6.8-1.3-7.4-9.4-7.5-9.8c-0.1-1.1-1-1.9-2.1-1.9c-1.1,0.1-1.9,1-1.9,2.1
		c0.3,4,2.8,12,10.7,13.4C36.5,32.5,37.5,31.8,37.7,30.7z"/><circle cx="27.5" cy="6.7" r="5.7"/></svg>