<svg xmlns="http://www.w3.org/2000/svg" enable-background="new 0 0 66 66" viewBox="0 0 66 66"><path d="M32.5,32.4c-0.5,0.1-0.8,0.3-1.1,0.6c1.1,0.2,2.2,0.4,3.3,0.6C34.3,32.8,33.4,32.2,32.5,32.4z"/><path d="M33.5,32.5c-0.9-0.2-1.8,0.3-2.1,1.1c1-0.2,2.1-0.4,3.1-0.6C34.3,32.7,33.9,32.5,33.5,32.5z"/><circle cx="33.2" cy="9.5" r="5.8"/><path d="M47.8,5.6C46.4,5.3,45,5,43.6,4.7l1.4,7.9l-4.9,5.4c-4.9-2.7-9.7-2.9-14.3,0L21,12.7l1.4-8.1c-1.4,0.2-2.8,0.5-4.2,0.8
		L16.9,13c-0.1,0.6,0.1,1.2,0.5,1.7l6.9,7.7l1.8,22.5c0,0.3,0.2,0.5,0.5,0.5L25.2,61c-0.1,1.7,1.1,3.1,2.7,3.2
		c1.7,0.1,3.1-1.1,3.2-2.7l1.4-16.1h1.1l1.4,16.1c0.1,1.7,1.6,2.9,3.2,2.7c1.7-0.1,2.9-1.6,2.7-3.2l-1.4-15.6
		c0.3-0.1,0.5-0.3,0.5-0.5l1.9-22.9l6.5-7.3c0.4-0.4,0.6-1.1,0.5-1.7L47.8,5.6z"/><path d="M60.1,4.1l0.2-0.5l-2.1-0.6l0.2-0.6l-2.1-0.6l-1.1,3.9C40,0.6,25.2,0.5,10.8,5.5L9.8,1.7L7.7,2.3l0.2,0.6L5.7,3.5l0.2,0.5
		L3.7,4.7l1.8,6.4l2.1-0.6l0.1,0.5l2.1-0.6l0.2,0.6l2.1-0.6l-1.1-4c14.2-4.9,28.8-4.9,43.7,0.1l-1.1,3.9l2.1,0.6l0.2-0.6l2.1,0.6
		l0.1-0.5l2.1,0.6l1.8-6.4L60.1,4.1z"/></svg>