<svg xmlns="http://www.w3.org/2000/svg" enable-background="new 0 0 66 66" viewBox="0 0 66 66"><path d="M43 43l-3.6-5.9c-1.3 1.3-3 2-4.8 2.1l-.4.9 3.5 5.7 2.9 10.2c.5 1.6 2.1 2.5 3.7 2.1 1.6-.5 2.5-2.1 2.1-3.7l-3-10.6C43.2 43.5 43.1 43.3 43 43zM24.9 24.2c.2 1 1 1.7 2.3 1.6 1.1-.2 1.8-1.2 1.6-2.3l-.8-4.8 2.5-.8.2-.6c.5-2.1 1.8-3.7 3.6-4.6-.2 0-.3 0-.5.1l-8.6 2.6c-1 .3-1.6 1.3-1.4 2.3L24.9 24.2zM57.4 58.7H4c-.8 0-1.6.3-2.1.9C1.3 60.1 1 60.8 1 61.7c0 1.7 1.4 3 3 3h53.3c.8 0 1.6-.3 2.1-.9.5-.5.9-1.3.9-2.1C60.4 60 59 58.7 57.4 58.7zM7.1 63.8c-1.2 0-2.1-1-2.1-2.1 0-1.2 1-2.1 2.1-2.1s2.1 1 2.1 2.1C9.2 62.9 8.3 63.8 7.1 63.8zM22.8 63.8c-1.2 0-2.1-1-2.1-2.1 0-1.2 1-2.1 2.1-2.1 1.2 0 2.1 1 2.1 2.1C25 62.9 24 63.8 22.8 63.8zM38.6 63.8c-1.2 0-2.1-1-2.1-2.1 0-1.2 1-2.1 2.1-2.1 1.2 0 2.1 1 2.1 2.1C40.7 62.9 39.8 63.8 38.6 63.8zM54.3 63.8c-1.2 0-2.1-1-2.1-2.1 0-1.2 1-2.1 2.1-2.1 1.2 0 2.1 1 2.1 2.1C56.4 62.9 55.5 63.8 54.3 63.8z"/><path d="M61.4,50.8V22.7l3.4-5.4c0.3-0.5,0.2-1.1-0.3-1.4c-0.5-0.3-1.1-0.2-1.4,0.3l-7.7,12.3c-0.3,0.5-0.2,1.1,0.3,1.4
		c0.5,0.3,1.1,0.2,1.4-0.3l2.4-3.8v24.9h-5.2v6.9h3.1c2.2,0,4,1.8,4,4c0,1.2-0.5,2.3-1.4,3h5V50.8H61.4z"/><circle cx="40.8" cy="7" r="5.8"/><path d="M38.6,18c-0.8-0.8-2-0.8-2.8,0c-0.8,0.8-0.8,2,0,2.8l5.5,5.6c0.6,0.6,1.6,0.8,2.3,0.4l8.1-4.2c1-0.5,1.4-1.7,0.8-2.7
		c-0.5-1-1.7-1.4-2.7-0.8l-6.8,3.5L38.6,18z"/><path d="M19.9,51.3l8.9-3.3c0.8-0.3,1.4-0.9,1.7-1.7l3.3-8.2c0.2,0,0.4,0,0.5,0c2.7,0,5.2-1.9,5.8-4.6l1.4-5.8
		c-0.4-0.1-0.7-0.4-1-0.7l-5.5-5.6c-1.2-1.2-1.2-3.1,0-4.2c1.2-1.2,3.1-1.1,4.2,0l3.9,3.9l0.2-0.9c0.8-3.2-1.2-6.5-4.5-7.2
		c-3.2-0.8-6.5,1.2-7.2,4.4l-3.2,13.4c-0.3,1.3-0.2,2.6,0.3,3.7l-3.4,8.3l-7.7,2.8c-1.6,0.6-2.3,2.3-1.8,3.9
		C16.6,51.1,18.4,51.9,19.9,51.3z"/></svg>