<svg xmlns="http://www.w3.org/2000/svg" enable-background="new 0 0 66 66" viewBox="0 0 66 66"><path d="M15.9 34c-1.4-.7-2.1-1-3-1.9-.1 4.1-.1 11.1.1 17 .1 1.8 2.2 2.6 3.4 1.3C16.2 50 16 49.5 16 49 15.8 44 15.9 38.1 15.9 34zM42.9 33.7c.2.1.4.2.6.3 14.3-4.4 8.5-1.9 20-8.6 1.4-.8 1.9-2.7 1.1-4.1-.8-1.4-2.7-1.9-4.1-1.1L52.2 25l-11.1 3.4C42.3 29.8 43 31.7 42.9 33.7z"/><circle cx="6.8" cy="20.8" r="5.8"/><path d="M19.1,26.8C19.1,26.8,19,26.8,19.1,26.8c-1.1,0-2,0.9-2.1,1.9c0,0.1-0.3,11.6,0,20.3c0.1,2.7,4.1,2.5,4-0.1
		c-0.3-8.6,0-19.9,0-20C21.1,27.7,20.2,26.8,19.1,26.8z"/><path d="M61.8,42.9c-7.6-0.7-16.4-6-20.1-8.4c0.8-3.6-1.7-6.8-5.1-7.3c-5.9-0.8-10.9-3-15.9-5.4c-2.9-1.6-6.5-0.6-8.2,2.3
		s-0.6,6.6,2.3,8.2c0.1,0,0.4,0.3,1.1,0.6c0-2.4,0.1-4,0.1-4.2c0.1-1.7,1.5-3,3.1-2.9c1.7,0,3,1.4,2.9,3.1c0,0-0.1,2.9-0.1,6.7
		c3.4,1.3,12.2,4.4,15.6,3.4c3.5,2.4,14,9,23.7,9.9c1.6,0.2,3.1-1,3.3-2.7C64.7,44.5,63.5,43,61.8,42.9z"/></svg>