<svg xmlns="http://www.w3.org/2000/svg" enable-background="new 0 0 66 66" viewBox="0 0 66 66"><path d="M39.8,42.9c0.2-0.1,0.3-0.3,0.3-0.5l0.5-6.5H25.5l0.5,6.5c0,0.2,0.1,0.4,0.3,0.5l-2.7,18c-0.2,1.6,0.9,3.2,2.5,3.4
		c1.6,0.2,3.2-0.9,3.4-2.5c2-13.4,2.8-18.3,2.8-18.8h1.5c0,0.5,0.8,5.4,2.8,18.8c0.2,1.6,1.8,2.8,3.4,2.5c1.6-0.2,2.8-1.8,2.5-3.4
		L39.8,42.9z"/><circle cx="33" cy="7.4" r="5.8"/><path d="M17.2 33.9h-4.7v-3.3h-1.9v3.3h-.3v-2.8H8.3v2.8H7.9v-2.3H6v2.3H4.6c-.3 0-.5.2-.5.5 0 .3.2.5.5.5H6v2.3h1.9v-2.3h.3v2.8h1.9v-2.8h.3v3.3h1.9v-3.3h4.7C17.1 34.6 17.1 34.3 17.2 33.9zM42.7 33.9H23.2c-.1.6 0 .4-.1 1h19.7C42.7 34.3 42.8 34.5 42.7 33.9zM61.4 33.9H60v-2.3h-1.9v2.3h-.3v-2.8h-1.9v2.8h-.3v-3.3h-1.9v3.3h-4.8c0 .4 0 .6 0 1h4.8v3.3h1.9v-3.3h.3v2.8h1.9v-2.8h.3v2.3H60v-2.3h1.4c.3 0 .5-.2.5-.5C61.9 34.2 61.7 33.9 61.4 33.9z"/><path d="M41.4,15.4c-1.5-1-3.1-1.8-4.6-2.3c-1.1,0.7-2.4,1.2-3.8,1.2c-1.5,0-2.8-0.5-4-1.3c-1.5,0.5-3.1,1.3-4.6,2.5
		c-0.5,0.2-0.9,0.6-1.1,1.1c-0.5,1.4-5.1,13.3-5.2,17.7c0,1.1,0.8,2,2,2c1.1,0,2-0.8,2-2c0-1.8,1.2-5.8,2.5-9.5l0.6,8h15.5l0.6-7.9
		c1.2,3.7,2.4,7.5,2.4,9.3c0,1.1,1,2,2,2c1.1,0,2-0.9,2-2c-0.1-4.4-4.7-16.4-5.2-17.7C42.4,16,41.9,15.6,41.4,15.4z"/></svg>