<svg xmlns="http://www.w3.org/2000/svg" enable-background="new 0 0 66 66" viewBox="0 0 66 66"><rect width="3" height="2.8" x="59.9" y="62.2"/><path d="M38.7,39.4c0-0.1,0-0.1-0.1-0.2h-0.5c-0.7,0-1.2,0.5-1.2,1.2v3.4h21.2v-3.4c0-0.7-0.5-1.2-1.2-1.2H44.5
		c-0.3,0.9-1,1.7-1.9,2C41,41.9,39.2,41,38.7,39.4z"/><rect width="3" height="2.8" x="32.3" y="62.2"/><path d="M48.7 49.5H57c.7 0 1.2-.5 1.2-1.2v-3.4H37v3.4c0 .6.5 1.2 1.2 1.2h8.3v12.7h-10V65h22.2v-2.8h-10V49.5zM34.8 39.5l.2-7.1c-3.3-5.4-7.4-10.5-7.4-10.6-1.1-1.3-.8-3.3.5-4.4 1.3-1.1 3.3-.8 4.4.5.1.2 1.3 1.7 3 3.9l0-1.2c.1-3.4-2.6-6.3-6-6.4-3.4-.1-6.3 2.6-6.4 6l-.7 18.9c0 1.2.3 2.4.9 3.4l-9.1 5.9c-.2.2-.4.3-.6.5L3.9 59.7c-1.1 1.3-1 3.2.3 4.4 1.3 1.1 3.2 1 4.4-.3l9.3-10.5 12.6-8.2C32.9 44.4 34.7 42.2 34.8 39.5zM29.5 13.3c3.4.1 6.2-2.5 6.4-5.9C36 4 33.4 1.1 30 1c-3.4-.1-6.2 2.5-6.4 5.9C23.5 10.3 26.1 13.2 29.5 13.3z"/><path d="M28.7,18.2c-0.9,0.7-1,2-0.3,2.9c0.1,0.1,8.8,11,11.2,17.9c0.4,1.1,1.6,1.6,2.6,1.3c1.1-0.4,1.6-1.6,1.3-2.6
		C40.8,30.1,32,19,31.6,18.6C30.9,17.7,29.6,17.5,28.7,18.2z"/></svg>