<svg xmlns="http://www.w3.org/2000/svg" enable-background="new 0 0 66 66" viewBox="0 0 66 66"><path d="M52.4 11.2c-.7-.1-1.3.2-1.7.7h3C53.4 11.5 52.9 11.2 52.4 11.2zM47.6 20.3c-1.2.4-3.7-1.6-5-3.2-.2-.3-.5-.5-.8-.6-.8-.6-1.6-1.1-2.4-1.5H26.3c-.7.4-1.5.9-2.2 1.5 0 0 0 0 0 0-.3.1-.5.3-.7.6-1.3 1.6-3.7 3.6-5 3.2C17.6 20 16.6 18.5 16 15h-4c.8 5.3 2.5 8.3 5.3 9.1 2.5.7 5-.6 7-2.3 1.9 22.5 1.4 21.9 2 22.2 0 .6.2 8.6.4 18.1 0 1.6 1.4 2.9 3 2.9 0 0 0 0 .1 0 1.7 0 3-1.4 2.9-3.1L32.2 44h1.5l-.4 17.9c0 1.7 1.3 3 2.9 3.1 0 0 0 0 .1 0 1.6 0 3-1.3 3-2.9.1-4 .4-17.6.4-18.1.6-.3.2.4 2-22.2C47 26.3 52.5 25.3 54 15h-4C49.4 18.5 48.4 20 47.6 20.3zM13.6 11.2c-.5.1-1 .3-1.3.7h3C14.9 11.4 14.3 11.1 13.6 11.2zM30.1 11.9h5.8c1.7-1 2.9-2.9 2.9-5C38.8 3.6 36.2 1 33 1c-3.2 0-5.8 2.6-5.8 5.8C27.2 9 28.3 10.9 30.1 11.9z"/><path d="M64.4,12.9h-1.5V9.8h-2.1v3.1h-0.9V9.2h-3.1v3.7H9.3V9.2H6.1v3.7H5.3V9.8H3.1v3.1H1.6c-0.3,0-0.5,0.2-0.5,0.5
		C1,13.7,1.3,14,1.6,14h1.5V17h2.2V14h0.9v3.7h3.1V14h47.4v3.7h3.1V14h0.9V17h2.1V14h1.5c0.3,0,0.6-0.2,0.6-0.6
		C65,13.1,64.7,12.9,64.4,12.9z"/></svg>