<svg xmlns="http://www.w3.org/2000/svg" enable-background="new 0 0 66 66" viewBox="0 0 66 66"><path d="M14.2 33.8c1.4-1.6 3.9-1.9 5.6-.5l8.8 7 1.6-1.8-11-8.7c-1.3-1-3.1-.8-4.2.4L2.7 44.4c-.8.9-.9 2.2-.4 3.3L14.2 33.8zM54.7 23.9c3.2 0 5.8-2.6 5.8-5.8 0-3.2-2.6-5.8-5.8-5.8-3.2 0-5.8 2.6-5.8 5.8C48.9 21.3 51.5 23.9 54.7 23.9z"/><path d="M46.4,28.6c1-1.3,3-1.5,4.3-0.5c1,0.8,2,1.6,2.8,2.5c0.6-2.2,0-4.7-1.8-6.3c-2.5-2.2-6.4-1.9-8.6,0.6L28.9,41.4
		c-0.1,0.1-0.1,0.2-0.2,0.2l-9.5-7.6c-1.3-1-3.1-0.8-4.2,0.4L2.7,48.7C1.6,50,1.8,51.9,3.1,53c1.3,1.1,3.2,0.9,4.3-0.3l10.4-12.1
		l12.5,9.9c1.6,1.3,5.5,1.5,7.9-1.2L50,35.7c-0.9-1-2-1.9-3-2.8C45.6,31.9,45.4,30,46.4,28.6z"/><path d="M63.8,48.3c-2.5-5.8-6.9-13.9-13.8-19.4c-0.9-0.7-2.1-0.5-2.8,0.3c-0.7,0.9-0.5,2.1,0.3,2.8c6.3,5,10.3,12.4,12.6,17.8
		c0.4,1,1.6,1.5,2.7,1.1C63.8,50.5,64.3,49.4,63.8,48.3z"/></svg>