<svg xmlns="http://www.w3.org/2000/svg" enable-background="new 0 0 66 66" viewBox="0 0 66 66"><path d="M29.7 45.2c-2.6-.7-4.9-1.9-7-3.5l-3.7 1c-.3 1.5-.8 2.8-1.2 3.9-.7 1.5-2.5 2.2-4 1.5-1.3-.6-2-2.1-1.7-3.5-1.8.7-2.4 2.9-1.4 4.4l6.9 10.6c.9 1.3 2.7 1.8 4.1.9 1.4-.9 1.8-2.8.9-4.1l-4.6-7.2 13.5-3.8C30.8 45.4 30.2 45.3 29.7 45.2zM60.7 49.8c-9.4-2.9-17.1-6.4-23.3-10.6.4-3-1.4-5.9-4.4-6.6-4.5-1.2-9.1-9.3-10.7-13.7-1.1-3.1-4.6-4.7-7.7-3.6-3.1 1.1-4.7 4.6-3.6 7.7.3.7 1.4 3.7 3.4 7.2.2-6.9-.3-8-.3-8.6 0-1.7 1.4-3 3.1-2.9 1 0 2 .6 2.5 1.4.9 1.4 1.1 10.1.1 17.6 2.7 2.9 6.1 5.4 10.1 6.5 1.3.3 2.5.3 3.7-.2 6.8 4.6 15.1 8.4 25.2 11.6 1.6.5 3.3-.4 3.8-2C63.1 52 62.2 50.3 60.7 49.8z"/><path d="M14.2 47.2c1 .4 2.2 0 2.6-1 3-6.8 3.1-23.7 2.1-25.5-.4-.6-1-.9-1.7-.9-1.1 0-2 .8-2 2 0 .1 1.2 15.6-2 22.8C12.7 45.5 13.2 46.7 14.2 47.2zM14.7 10.8C14.7 7.6 12.1 5 9 5c-3.2 0-5.8 2.6-5.8 5.8 0 3.2 2.6 5.8 5.8 5.8C12.1 16.5 14.7 13.9 14.7 10.8z"/></svg>