<svg xmlns="http://www.w3.org/2000/svg" enable-background="new 0 0 66 66" viewBox="0 0 66 66"><path d="M48.2,60.8l-3.9-9.1c-0.7-3.9-1.9-11-2.1-11.5c0.5-0.5,0.3,0.2-5.5-20.9c0.9-0.8,6.9-6.5,6.5-16.4c0-1.1-0.9-2-2.1-1.9
		c-1.1,0-2,1-1.9,2.1c0.3,6.8-3.1,11.1-4.6,12.7c-6.9-1.6-12.5,0.5-16,6.6l0,0c-0.2,0.2-0.3,0.5-0.3,0.7c-1.8,8.3-1.3,19.5,5.5,25.8
		c0.8,0.7,2.1,0.7,2.8-0.1c0.7-0.8,0.7-2.1-0.1-2.8c-4.5-4.2-5.6-11.2-5-17.5L29,44l-1,2.2c0.5,1.1,0.3,2.3-0.5,3.2
		c-0.4,0.4-0.8,0.7-1.3,0.8c-0.9,2.1,0.1-1-2.3,11.2c-0.3,1.6,0.8,3.2,2.4,3.5c1.7,0.3,3.2-0.9,3.5-2.4l1.7-9.6l4.7-10.5l0.4-0.1
		l1.9,10.8c0,0.2,0.1,0.4,0.2,0.7l4.1,9.4c0.7,1.5,2.4,2.2,3.9,1.6C48.2,64.1,48.9,62.3,48.2,60.8z"/><circle cx="23.9" cy="10" r="5.8"/></svg>