<svg xmlns="http://www.w3.org/2000/svg" enable-background="new 0 0 66 66" viewBox="0 0 66 66"><path d="M38.8 36.3l-6.9 3.8c-1.3.7-1.9 2.2-1.4 3.6l4.6 13.2c.6 1.6 2.3 2.4 3.8 1.8 1.6-.6 2.4-2.3 1.8-3.8L37 44.1l7.8-4.3C41.3 39.8 39.8 37.5 38.8 36.3zM5.4 22.6c6.8 1.1 12.2.5 16.1-.6-.5-.8-.8-1.8-1-2.8-4.1 1.2-9.7 1.9-16.8.7-1.1-.2-2.1.6-2.3 1.7-.2.9.3 1.8 1.1 2.1C3.1 22.9 4.2 22.4 5.4 22.6z"/><path d="M14.3 19.2c3.3.4 6.3-2.1 6.7-5.4.4-3.3-2.1-6.3-5.4-6.7-3.3-.4-6.3 2.1-6.7 5.4C8.5 15.8 11 18.8 14.3 19.2zM32.9 19.2c-.7-.8-2-.9-2.8-.2-.1.1-8.6 7.2-24.9 4.6-1.1-.2-2.1.6-2.3 1.7s.6 2.1 1.7 2.3c12.9 2.1 23.4-1.4 28.1-5.5C33.5 21.3 33.6 20.1 32.9 19.2z"/><path d="M64.3,48.5c-0.8-1.4-2.7-1.9-4.1-1.1l-5.6,3.3c-3.4-16.8-3.1-19.2-4.7-21.3c-6.3-8.7-18.9-15.9-19.4-16.2
		c-2.9-1.6-6.5-0.6-8.2,2.3c-0.6,1.1-0.9,2.4-0.7,3.6c0.1,1,0.4,1.9,1,2.8c4.5-1.4,6.8-3.3,7-3.5c1.3-1.1,3.2-0.9,4.2,0.3
		c1.1,1.3,1,3.1-0.3,4.2c-0.2,0.1-1.9,1.6-5.1,3.1c3.8,2.6,9,6.5,11.8,10.4c1.3,1.8,3.6,2.9,6.1,2.4L49.4,56c0.4,2,2.7,3.1,4.5,2
		l9.3-5.4C64.6,51.8,65.1,49.9,64.3,48.5z"/></svg>