<svg xmlns="http://www.w3.org/2000/svg" enable-background="new 0 0 66 66" viewBox="0 0 66 66"><path d="M17.7 44.8c.9-4.5 1.2-9.8 1.2-13.9-1.2 0-2.2-.4-3.2-.9 0 4.3-.1 10.1-1.2 15.1-.2 1.1.5 2.1 1.5 2.4.7.1 1.4-.1 1.9-.6C17.7 46.2 17.6 45.5 17.7 44.8zM57.3 29.6c-1.6.1-5 0-7.3-.1-3.6 1.4-6.1 4.9-6.1 8.9 0 5.3 4.3 9.6 9.6 9.6s9.6-4.3 9.6-9.6C63.1 34.5 60.7 31.1 57.3 29.6zM21.5 21.8c-1.1.1-1.9 1-1.8 2.1 0 .1.9 12.1-.9 21.1-.2 1.1.5 2.1 1.6 2.4 1.1.2 2.1-.5 2.4-1.6 2-9.5 1.1-21.7 1-22.2C23.5 22.5 22.6 21.7 21.5 21.8z"/><path d="M65.2,25c-0.2-1.6-1.7-2.8-3.3-2.6c-5,0.6-13,0.1-18-0.2c-0.7-2.5-3-4.3-5.7-4.3H19.3c-3.3,0-6,2.7-6,6
		c0,3.2,2.5,5.8,5.6,6c0-3.4-0.2-5.8-0.2-5.9c-0.1-1.6,1.1-3.1,2.8-3.2c1.7-0.1,3.1,1.1,3.2,2.8c0,0.2,0.2,2.8,0.2,6.3h13.3
		c1.7,0,3.2-0.7,4.3-1.8c5.7,0.4,14.4,0.9,20.1,0.3C64.2,28.2,65.3,26.7,65.2,25z"/><circle cx="6.6" cy="24.2" r="5.8"/></svg>