<svg xmlns="http://www.w3.org/2000/svg" enable-background="new 0 0 66 66" viewBox="0 0 66 66"><circle cx="33" cy="6.8" r="5.8"/><path d="M47.8,16.4c0,0.1-0.1,0.2-0.1,0.3l-0.5,3.6C43.8,18,42.4,17,42,16.8c-6.2-4.4-12.4-4.6-18.1,0c0,0-0.1,0-0.1,0.1l-5.1,3.4
		c-0.5-3.6-0.5-3.7-0.6-3.9h-3.8c-0.3,0.8,0,0.8,0.9,7.7c0.2,1.5,1.9,2.2,3.1,1.4l5.8-4c1.9,23.3,1.5,22.5,2,22.8l-1.5,17.4
		c-0.1,1.7,1.1,3.1,2.7,3.3c1.7,0.1,3.1-1.1,3.3-2.7c0.4-5,1.5-17.3,1.5-17.9h1.6c0,0.6-0.2-2.3,1.5,17.9c0.1,1.6,1.6,2.9,3.3,2.7
		c1.7-0.1,2.9-1.6,2.7-3.3l-1.5-17.4c0.6-0.3,0.1,0.5,2-22.8l5.8,4c1.2,0.8,2.9,0.1,3.1-1.4l1-6.8c0-0.3,0-0.6-0.1-0.9H47.8z"/><path d="M54.9 11.5c-.8 0-1.5.8-1.7 1.8h-6.6c-.3-1.1-.9-1.8-1.7-1.8-1 0-1.9 1.3-1.9 2.9 0 1.6.8 2.9 1.9 2.9.8 0 1.5-.8 1.7-1.8h6.6c.3 1.1.9 1.8 1.7 1.8 1 0 1.9-1.3 1.9-2.9C56.8 12.8 55.9 11.5 54.9 11.5zM21.1 17.2c1 0 1.9-1.3 1.9-2.9 0-1.6-.8-2.9-1.9-2.9-.8 0-1.5.8-1.7 1.8h-6.6c-.3-1.1-.9-1.8-1.7-1.8-1 0-1.9 1.3-1.9 2.9 0 1.6.8 2.9 1.9 2.9.8 0 1.5-.8 1.7-1.8h6.6C19.7 16.5 20.3 17.2 21.1 17.2z"/></svg>