<svg xmlns="http://www.w3.org/2000/svg" enable-background="new 0 0 66 66" viewBox="0 0 66 66"><path d="M35.8 36.2l.7-3.9H24.3L24 34.1c-.4 2.5.7 4.8 2.7 6.1l-1.4 6.7-9.5 10.3c-1.1 1.2-1 3.1.2 4.2 1.2 1.1 3.1 1 4.2-.2l10-10.9c.4-.4.6-.9.7-1.4l1.9-8.6C34.4 39.5 35.5 38 35.8 36.2zM35.7 19.2c-.4 1.6-2 2.6-3.6 2.3l-5-1.1.7 6c.1.5 0 .9-.1 1.3h9.6l1.3-7.7c.5-3.3-1.6-6.4-4.9-6.9-1.9-.3-3.8.3-5.1 1.5l4.8 1.1C35.1 16 36.1 17.6 35.7 19.2z"/><path d="M51 28.7H27.1c-1.2 1.4-3.3 1.4-4.5 0h-2.7v2.5h25.6v32.1H34.5V65h12.9V31.2H51V28.7zM35.1 12.5c3.2 0 5.8-2.6 5.8-5.8 0-3.2-2.6-5.8-5.8-5.8-3.2 0-5.8 2.6-5.8 5.8C29.4 9.9 32 12.5 35.1 12.5z"/><path d="M22.9,27c0.1,1,1,1.8,2,1.8c1.2,0,2.1-1,2-2.2L26,19.1l6.4,1.4c1.1,0.2,2.1-0.4,2.4-1.5s-0.4-2.1-1.5-2.4l-9.2-2
		c-1.4-0.3-2.6,0.8-2.4,2.2L22.9,27z"/></svg>