<svg xmlns="http://www.w3.org/2000/svg" enable-background="new 0 0 66 66" viewBox="0 0 66 66"><path d="M17.1,46.4c0.9-4.1,1-10.7,0.9-14.9c-1.3-0.6-2.6-0.8-4-2.1c0.1,4.7,0.1,13.4-1,17.1H17.1z"/><path d="M19.8 45.6c-.8 0-1.5.8-1.7 1.8h-6.6c-.3-1.1-.9-1.8-1.7-1.8-1 0-1.9 1.3-1.9 2.9 0 1.6.8 2.9 1.9 2.9.8 0 1.5-.8 1.7-1.8H18c.3 1.1.9 1.8 1.7 1.8 1 0 1.9-1.3 1.9-2.9C21.6 46.9 20.8 45.6 19.8 45.6zM32 37.4c-.8-.1-1.6.5-2 1.5l-1.4-.2c-1.4 1.3-3.8.9-4.7-.8l-.4-.1c-.1-1.1-.6-2-1.4-2.1-1-.2-2 1-2.3 2.5-.3 1.6.3 3 1.4 3.2.8.1 1.6-.5 2-1.5l6.5 1.1c.1 1.1.6 2 1.4 2.1 1 .2 2-1 2.3-2.5C33.6 39 33 37.6 32 37.4zM16.5 29.9l7.4 3 .7-6.2-3.6 1c-1.6.4-3.3-.5-3.7-2.1-.5-1.6.5-3.3 2.1-3.7l5.6-1.6-4-1.6c-3.1-1.2-6.6.3-7.8 3.3C11.9 25.1 13.4 28.6 16.5 29.9z"/><circle cx="6.6" cy="20.4" r="5.8"/><path d="M64 40.8c-.3-.2-7.2-5.4-23.8-11.5-.4-1.9-1.7-3.6-3.6-4.3l-5.4-2.2v.1l-1.4 12.3 2.4 1c2.2.9 4.6.4 6.2-1.1 15.4 5.7 21.9 10.5 22 10.6 1.3 1 3.2.7 4.2-.6C65.5 43.7 65.3 41.8 64 40.8zM18.3 25.4c.3 1.1 1.4 1.7 2.5 1.4l5.1-1.5-1.3 11c-.1 1.1.7 2.1 1.8 2.2 1.1.1 2.1-.7 2.2-1.8l1.6-13.9c.2-1.4-1.2-2.5-2.5-2.2l-8 2.3C18.6 23.2 18 24.3 18.3 25.4z"/></svg>