<svg xmlns="http://www.w3.org/2000/svg" enable-background="new 0 0 66 66" viewBox="0 0 66 66"><circle cx="31.6" cy="12.8" r="5.1"/><polygon points="59.5 1 59.5 5.4 6.5 5.4 6.5 1 3.5 1 3.5 65 6.5 65 6.5 6.9 59.5 6.9 59.5 65 62.5 65 62.5 1"/><path d="M15.6 3.7c-.5.1-.9.4-1.1.7h3.1C17.1 3.8 16.3 3.5 15.6 3.7zM37.5 20.3c-4.1-2.2-8.2-2.3-12-.1-1.7-1.6-4.9-5.4-6.9-12.4h-4.1c2.5 9.8 7.5 14.6 9.2 16.1 2 25.5 1.6 21.1 1.7 21.5-1.4 11.2-.9 11.2-.2 15.6.2 1.6 1.8 2.8 3.4 2.5 1.6-.2 2.8-1.8 2.5-3.4l-.7-4.8c.6-6 .9-8.9.9-9.6h.6c0 .6-.1-1.4.9 9.6l-.7 4.8c-.2 1.6.9 3.2 2.5 3.4 1.6.2 3.2-.9 3.4-2.5.7-5.3.8-5.2.8-5.9-.3-3.3-.9-9.5-1-10l1.6-21.3c1.9-1.6 6.9-6.5 9.2-16h-4.1C42.7 14.8 39.2 18.7 37.5 20.3zM47.6 3.7c-.8-.1-1.5.2-1.9.7h3.1C48.4 4 48 3.8 47.6 3.7z"/></svg>