<svg xmlns="http://www.w3.org/2000/svg" enable-background="new 0 0 66 66" viewBox="0 0 66 66"><path d="M17 2.6c-.4.1-.8.4-1 .7h3.2C18.6 2.7 17.8 2.4 17 2.6zM50 6.3h-4.2c-2.7 7.7-5.5 12.3-7.1 14.4-3.9-2-7.8-2.2-11.5-.1-1.6-2.1-4.3-6.6-7-14.3H16c3.6 11.1 7.7 16.5 9.1 18.1l1.6 21.1c-.1.6-1.3 8.3-2.5 15.9-.3 1.6.9 3.2 2.5 3.4 1.6.3 3.2-.9 3.4-2.5 2.1-13.5 2.5-15.4 2.5-16.2h.6c0 .5.4 2.7 2.5 16.2.3 1.7 1.8 2.8 3.4 2.5 1.6-.3 2.8-1.8 2.5-3.4-.5-3.5-2.4-15.4-2.5-15.9l1.6-21.2C42.3 22.7 46.4 17.3 50 6.3zM49 2.6c-.8-.3-1.7.1-2.2.7H50C49.8 3 49.4 2.8 49 2.6z"/><circle cx="33" cy="13.5" r="5.1"/><path d="M61.5,4.3h-1.4V2h-1.9v2.3h-0.3V1.6h-1.9v2.8h-0.3V1h-1.9v3.3H12.4V1h-1.9v3.3h-0.3V1.6H8.2v2.8H7.8V2H5.9v2.3H4.5
		C4.2,4.3,4,4.6,4,4.8c0,0.3,0.2,0.5,0.5,0.5h1.4v2.3h1.9V5.3h0.3v2.8h1.9V5.3h0.3v3.3h1.9V5.3h41.2v3.3h1.9V5.3h0.3v2.8h1.9V5.3
		h0.3v2.3h1.9V5.3h1.4c0.3,0,0.5-0.2,0.5-0.5C62,4.6,61.8,4.3,61.5,4.3z"/></svg>