<svg xmlns="http://www.w3.org/2000/svg" enable-background="new 0 0 66 66" viewBox="0 0 66 66"><path d="M16.9 33.1c1.1-.2 1.8-1.2 1.7-2.3l-1-6.9 2-1.9.3-3.6c.1-1 .4-2 .8-2.8L14 21.8c-.5.4-.7 1.1-.6 1.7l1.2 7.9C14.8 32.4 15.6 33.3 16.9 33.1zM37.9 27.6l-5 2.8-.3 4.3c-.1 1.2-.5 2.3-1.1 3.3l4.8-2.7v7.1c0 1.6 1.3 3 3 3s3-1.3 3-3V30.2C42.4 27.9 39.9 26.5 37.9 27.6z"/><rect width="2.5" height="2.7" x="50.1" y="62.3"/><path d="M36.5,45.2H32c-0.5,0-1,0.5-1,1.1v3.3h17.7v-3.3c0-0.6-0.4-1.1-1-1.1h-5.4C40.7,46.9,38,46.8,36.5,45.2z"/><rect width="2.5" height="2.7" x="27.1" y="62.3"/><path d="M40.8 55h6.9c.5 0 1-.5 1-1.1v-3.3H31v3.3c0 .6.4 1.1 1 1.1H39v7.3h-8.4V65h18.5v-2.7h-8.4V55zM32.2 26.8c-.1-.1-.3-.2-.4-.3l-6.4-5.4c-1.3-1.1-1.4-2.9-.3-4.2 1.1-1.3 3-1.4 4.2-.4l3.5 2.9 0-.1c.2-3.3-2.3-6.1-5.6-6.4-3.3-.2-6.1 2.3-6.4 5.6l-1 15.3c-.1 2.2.9 4.2 2.6 5.4-1.1 7.4-3.7 15-6.1 21.7-.6 1.5.2 3.3 1.8 3.8 1.5.6 3.3-.2 3.8-1.8 2.6-7.1 5.3-15.3 6.5-23.4 1.8-.9 3.2-2.7 3.3-4.9L32.2 26.8z"/><circle cx="28.1" cy="6.7" r="5.7"/><path d="M25.8,17.5c-0.7,0.8-0.6,2.1,0.2,2.8l6.4,5.4c0.7,0.6,1.6,0.6,2.4,0.2l6.4-4.1c0.9-0.6,1.2-1.8,0.6-2.8
		c-0.6-0.9-1.8-1.2-2.8-0.6l-5.2,3.3l-5.3-4.5C27.7,16.6,26.5,16.7,25.8,17.5z"/></svg>