<svg xmlns="http://www.w3.org/2000/svg" enable-background="new 0 0 66 66" viewBox="0 0 66 66"><path d="M33.5,12.5c3.2,0,5.8-2.6,5.8-5.8c0-3.2-2.6-5.8-5.8-5.8c-3.2,0-5.8,2.6-5.8,5.8C27.7,9.9,30.3,12.5,33.5,12.5z"/><path d="M56.5,5.6c-0.7-0.9-1.9-1-2.8-0.3l-13,10.2c-5.2-3-10.4-3.1-15.2,0.3L12.3,5.3c-0.9-0.7-2.1-0.5-2.8,0.3
		C8.8,6.5,8.9,7.7,9.8,8.4L24,19.5c0.2,0.1,0.4,0.2,0.6,0.3c2,25.1,1.7,23.7,2,24l-7.5,17c-0.7,1.5,0,3.3,1.5,4c1.5,0.7,3.3,0,4-1.5
		c8.8-20,8.3-18.6,8.5-19.2H34c0.1,0.6-0.4-0.8,8.5,19.2c0.7,1.5,2.5,2.2,4,1.5c1.5-0.7,2.2-2.4,1.5-4l-7.5-17c0.3-0.3,0,1.2,2-24.6
		L56.2,8.4C57.1,7.7,57.2,6.5,56.5,5.6z"/><path d="M12.9,14.5h-1c0,3.3,2.7,6,6,6v-1C15.2,19.6,12.9,17.3,12.9,14.5z"/><path d="M14.8 14.5h-1c0 2.3 1.9 4.1 4.1 4.1v-1C16.2 17.7 14.8 16.3 14.8 14.5zM47.9 19.6v1c3.3 0 6-2.7 6-6h-1C52.9 17.3 50.6 19.6 47.9 19.6z"/><path d="M51,14.5c0,1.7-1.4,3.1-3.1,3.1v1c2.3,0,4.1-1.9,4.1-4.1H51z"/></svg>