<svg xmlns="http://www.w3.org/2000/svg" enable-background="new 0 0 66 66" viewBox="0 0 66 66"><path d="M29.3,13.1c0,3.1,2.5,5.7,5.7,5.7c3.1,0,5.7-2.5,5.7-5.7c0-3.1-2.5-5.7-5.7-5.7C31.9,7.4,29.3,9.9,29.3,13.1z"/><path d="M37 21.7c-.7-1.2-1.9-2.2-3.3-2.6-1.9-.6-3.8-.2-5.3.9-2.1-7.8.1-13.4 8-15.1 1.1-.2 1.7-1.3 1.5-2.3-.2-1.1-1.3-1.7-2.3-1.5-11.7 2.6-14.3 12.5-9.7 23.6-1 3.6-2.9 11.8-1.9 17.7.1.7.4 1.3.7 1.9L18.5 61c-.6 1.5.2 3.2 1.8 3.8 1.5.6 3.2-.2 3.8-1.8l5.7-15.7 5.7 15.7c.6 1.5 2.3 2.3 3.8 1.8 1.5-.6 2.3-2.3 1.8-3.8l-6.1-16.9c1-1.9.6-3.4.6-4.1-.5-.1-1-.3-1.4-.7-1.2-1.1-1.3-2.9-.3-4.2l2.2-2.5c.3-1.5.6-3 1-4.3l1.9 2.5-4.4 5c-.7.8-.6 2.1.2 2.8.8.7 2.1.6 2.8-.2l5.4-6.2c.6-.7.7-1.7.1-2.5L37 21.7zM46.1 27.1l-.7.7c1.9 2.1 1.7 5.3-.3 7.2l.7.7C48.2 33.4 48.3 29.6 46.1 27.1z"/><path d="M44.8 28.3l-.7.7c1.3 1.4 1.2 3.5-.2 4.7l.7.7C46.3 32.8 46.4 30 44.8 28.3zM21.2 8.8c-.7-2.7.9-5.5 3.6-6.2l-.3-1c-3.2.9-5.2 4.2-4.3 7.4L21.2 8.8z"/><path d="M21.9,8.6l1-0.3c-0.5-1.8,0.6-3.6,2.4-4.1l-0.3-1C22.6,3.9,21.3,6.3,21.9,8.6z"/></svg>