<svg xmlns="http://www.w3.org/2000/svg" enable-background="new 0 0 66 66" viewBox="0 0 66 66"><path d="M17.6 36.9l11.9-1.2c.8-.1 1.5-.5 2-1.1.5-.6.7-1.4.7-2.2l-.7-6.5c-2.4.3-4.8-.6-6.3-2.5l.7 6.7L17 31c-1.7.2-2.8 1.6-2.7 3.3C14.5 35.9 15.9 37.1 17.6 36.9zM48.8 37.2c-1.1 1-2.8 1-4 0H25c-7.9.8-7.5.8-8.4.7v2.3h3.5v17.1h2.3V40.2h36.4v17.1h2.3V40.2h3.5v-3H48.8zM58.8 20.2c3.2 0 5.8-2.6 5.8-5.8 0-3.2-2.6-5.8-5.8-5.8-3.2 0-5.8 2.6-5.8 5.8C53.1 17.6 55.7 20.2 58.8 20.2z"/><path d="M25,21c0.9,2.6,3.6,4.3,6.4,3.9l12.7-1.7c0.2,3.7,0.4,8.3,0.7,11.9c0.1,1,1,1.8,2,1.8c1.2,0,2.1-1,2-2.2
		c-0.3-3.6-0.6-8.4-0.7-12.1c0.3-0.1,0.7-0.2,1-0.3c0.2,3.7,0.4,8.6,0.7,12.3c0.1,0.6-0.1,1.2-0.4,1.7c0.7,0.6,1.4,0.5,1.5,0.5
		c1.1-0.1,1.9-1.1,1.8-2.2c-0.4-4.6-0.7-10.9-0.8-14.7c0.7-1.2,1.1-2.6,0.9-4c-0.4-3.3-3.5-5.6-6.7-5.2L29.8,13
		c-1.4,0.2-2.7,0.9-3.6,1.9c-3.6,0.2-14.6,0.7-20.9-1.5c-1.6-0.5-3.3,0.3-3.8,1.9c-0.5,1.6,0.3,3.3,1.9,3.8
		C9.4,21.2,18.6,21.3,25,21z"/></svg>