<svg xmlns="http://www.w3.org/2000/svg" enable-background="new 0 0 66 66" viewBox="0 0 66 66"><path d="M27.1 41.8h-9c-1.9 0-3.3 1.8-2.9 3.7l3.9 17c.4 1.6 2 2.6 3.6 2.3 1.6-.4 2.6-2 2.3-3.6l-3-13.3h10.3.1c0 0 0 0-.1 0C29.4 47 27.4 44.6 27.1 41.8zM34.8 12.9c3.2 0 5.8-2.6 5.8-5.8 0-3.2-2.6-5.8-5.8-5.8-3.2 0-5.8 2.6-5.8 5.8C29 10.3 31.6 12.9 34.8 12.9z"/><path d="M50.4,53.8c-1-1.3-2.9-1.6-4.2-0.6l-3.2,2.4l-0.8,0.6c-0.4-1.2,1.3,4.2-3.5-11.4c1-1.2,1.4-2.5,1.4-3.9v-3.1
		c-0.1,0.1-2.6,4.2-2.4,3.9c-0.1,0.1-1.7,2.9-4.3,1.2c-1.3-0.8-1.9-2.6-1-4.1l5.3-8.5l-5.4-9c-0.9-1.4-0.4-3.3,1-4.1
		c1.4-0.9,3.3-0.4,4.1,1l2.6,4.3v-2.8c0-3.3-2.7-6-6-6c-3.3,0-6,2.7-6,6c0,22.3,0,21.1,0,21.9c0.3,2.5,2.2,4.6,4.8,5.1
		c6.5,21.1,4.2,13.6,4.7,15.3c0.6,2,3,2.7,4.7,1.5c0.1-0.1,8-6,7.5-5.6C51.1,57,51.4,55.2,50.4,53.8z"/><path d="M33.8,18.1c-0.9,0.6-1.3,1.8-0.7,2.7l5.7,9.5l-5.7,9.1c-0.6,0.9-0.3,2.2,0.6,2.8c0.9,0.6,2.2,0.3,2.8-0.6l6.3-10.1
		c0.4-0.6,0.4-1.4,0-2.1l-6.3-10.6C36,17.9,34.8,17.5,33.8,18.1z"/></svg>