<svg xmlns="http://www.w3.org/2000/svg" enable-background="new 0 0 66 66" viewBox="0 0 66 66"><path d="M12.5 30.9l-8.7.5c-1.7.1-2.9 1.5-2.8 3.2.1 1.8 1.8 3 3.2 2.8l8.5-.5C12.6 34.9 12.6 32.8 12.5 30.9zM20.4 26.7c.1 3.2.1 6.5.3 9.7h0c.9-.1 1.8-.5 2.3-1.3.5-.8.7-1.7.4-2.6l-1.8-6L20.4 26.7zM10.9 38l-5.6.3V41h3.5v14.1h2.3V41h1.7c0-1-.1-2-.1-3H10.9zM43.5 38c-.5.4-1.1.7-1.7.7-.7.1-1.6-.2-2.2-.7H20.7c0 1 .1 2 .1 3h37.3v14.1h2.3V41H65v-3H43.5z"/><path d="M19.4 25.8c.4 0 5.7-.5 18.4-1.8-.1-3.5-.2-6.1-.2-6.3 0-1.6 1.3-3 2.9-3.1 1.6 0 3 1.3 3.1 2.9 0 0 .1 2.4.2 5.7 2.5-.9 4.1-3.4 3.8-6.2-.3-3.3-3.3-5.7-6.5-5.4l-22.3 2.2c-2.8.3-5.6 2.7-5.4 6.3 0 5.3.3 28.3 1.7 33.8.4 1.6 2 2.6 3.6 2.2 1.6-.4 2.6-2 2.2-3.6C20.1 49.2 19.6 36.4 19.4 25.8zM54.2 21.4c3.2 0 5.8-2.6 5.8-5.7 0-3.2-2.6-5.8-5.8-5.8-3.2 0-5.8 2.6-5.8 5.8C48.4 18.8 51 21.4 54.2 21.4z"/><path d="M45.7 37.8c1.1-.1 1.9-1.1 1.8-2.2-.4-4-.6-9.4-.7-13.2-.8.9-1.8 1.5-2.9 1.9.2 3.5.4 7.9.7 11.2.1.6-.1 1.2-.4 1.7C44.8 37.9 45.6 37.7 45.7 37.8zM40.6 15.6c-1.1 0-2 .9-1.9 2.1 0 .1.3 11.2.9 18.3.1 1.1 1.1 1.9 2.2 1.8 1.1-.1 1.9-1.1 1.8-2.2-.6-7-.9-17.9-.9-18C42.6 16.5 41.7 15.6 40.6 15.6z"/></svg>