<svg xmlns="http://www.w3.org/2000/svg" enable-background="new 0 0 66 66" viewBox="0 0 66 66"><path d="M42.2,43.5l1.5-19.2c0.8,2.3,1.6,5.4,1.9,9.2c0.7-0.3,1.4-0.5,2.1-0.5c0.7,0,1.3,0.1,1.9,0.4c-0.5-6.2-3.3-15.9-5.6-16.9
		c-6.1-4.2-12.2-4.5-17.8,0c-1.3,0.6-5.7,8.1-6.1,15.1c-0.1,1.1,0.8,2,1.9,2.1c0,0,0.1,0,0.1,0c1.1,0,1.9-0.8,2-1.9
		c0.2-3.3,1.3-6.4,2.4-8.6l0.4,5.9c0.3-0.1,0.6-0.2,0.9-0.2c1.8,0,3.1,1.9,3.1,4.3c0,2.4-1.4,4.3-3.1,4.3c-0.1,0-0.2,0-0.2,0l0.5,6
		c0,0.2,0.2,0.4,0.3,0.5l-1.1,17.9c-0.1,1.7,1.2,3.1,2.8,3.2c1.6,0.1,3.1-1.2,3.2-2.8c0.5-7.6,1.1-17.6,1.1-18.2h1.5
		c0,0.6,0.5,9,1.1,18.2c0.1,1.7,1.5,2.9,3.2,2.8c1.7-0.1,2.9-1.5,2.8-3.2l-1.1-17.9C42.1,43.9,42.2,43.7,42.2,43.5z"/><circle cx="35.1" cy="6.8" r="5.8"/><path d="M19.1 32h-.8c-.3-1.2-1.1-2.1-2-2.1-1.2 0-2.1 1.5-2.1 3.3 0 1.8 1 3.3 2.1 3.3.9 0 1.7-.9 2-2.1h2.5C19.8 33.9 19.2 33 19.1 32zM29.9 33.2c0-1.8-1-3.3-2.1-3.3-.9 0-1.7.9-2 2.1H25c-.1 1.1-.8 1.9-1.7 2.4h2.5c.3 1.2 1.1 2.1 2 2.1C29 36.5 29.9 35 29.9 33.2zM47.7 34c-2.3 0-4.1 1.8-4.1 4.1 0 2.3 1.8 4.1 4.1 4.1 2.3 0 4.1-1.8 4.1-4.1C51.8 35.8 50 34 47.7 34zM47.7 39.3c-.7 0-1.3-.6-1.3-1.3 0-.7.6-1.3 1.3-1.3.7 0 1.3.6 1.3 1.3C49 38.8 48.4 39.3 47.7 39.3z"/></svg>