<svg xmlns="http://www.w3.org/2000/svg" enable-background="new 0 0 66 66" viewBox="0 0 66 66"><path d="M46.6,16.5c-6.1-4.3-12.3-4.5-17.8,0c-0.1,0-0.1,0.1-0.2,0.1c-0.9,0.6-3.2,1.6-4.4,0.9c-1.7-1-1.5-5.4-1.5-5.9l-3.8-0.4
		c-0.5,1.1-0.4,7.7,3.4,9.8c2.1,1.2,4.5,0.8,6.7-0.1l1.7,22.6c0,0.3,0.2,0.5,0.5,0.5l-3.6,17.4c-0.3,1.6,0.7,3.2,2.3,3.5
		c1.6,0.3,3.2-0.7,3.5-2.3c3.9-18.9,3.8-18,3.8-18.6h1.3l-0.5,17.9c0,1.7,1.3,3.1,3,3.1c1.6,0,2.9-1.3,3-2.9
		c0.1-3.9,0.5-17.6,0.5-18.1c0.2-0.1,0.3-0.3,0.3-0.5l0.3-3.6c-0.7-0.1-1.3-0.4-1.8-0.9c-1.1-1.2-1.1-3.1,0.1-4.2
		c0.9-0.9,1.7-1.8,2.3-2.6l0.8-10c0.9,1.3,1.8,3.1,1.8,5.2c0.1,2.8-1.3,5.5-4.1,8.2c-0.8,0.8-0.8,2-0.1,2.8c0.8,0.8,2,0.8,2.8,0.1
		c3.7-3.5,5.5-7.3,5.4-11.2C52,22.2,48.2,17.3,46.6,16.5z"/><circle cx="37.7" cy="6.8" r="5.8"/><path d="M25.4,12.8c1,0.1,2-1.1,2.1-2.7S27,7.2,25.9,7C25.2,7,24.4,7.7,24,8.7L17.5,8c-0.2-1.1-0.7-1.9-1.5-2c-1-0.1-2,1.1-2.1,2.7
		c-0.2,1.6,0.5,2.9,1.6,3.1c0.8,0.1,1.5-0.6,1.9-1.7l6.5,0.7C24,11.9,24.6,12.7,25.4,12.8z"/></svg>