<svg xmlns="http://www.w3.org/2000/svg" enable-background="new 0 0 66 66" viewBox="0 0 66 66"><path d="M39.9 25.5c-.6-5.2-.7-14.1.8-18.3-.3-.4-.7-.8-1.2-.9C38.4 6 37.3 6.7 37 7.8c-1.7 6.8-1.2 14-.5 18.7C37.9 26.1 39 25.8 39.9 25.5zM9.2 35.3l8-.6v-.1c.1-1.6.7-3.1 1.6-4.3l-12 1.3c-2.9.3-5 2.8-5 5.7l.3 13c0 2 2.1 3.2 3.2 2.9l.1-13.8C5.5 37.2 7.1 35.4 9.2 35.3zM42.3 39.4c-3.5 1-8.3 2-14.3 2.2-1.6 1.9-2.6 4.4-2.6 7.1 0 6.1 4.9 11 11 11 6.1 0 11-4.9 11-11C47.5 44.8 45.4 41.4 42.3 39.4z"/><path d="M45.8 24.5c.4 3.3.9 5.6.9 5.6.4 1.6-.6 3.2-2.2 3.6-1.8.4-3.3-.7-3.6-2.2 0-.2-.5-2.2-.9-5.1-3 1-8.3 2.4-15.6 2.2-3.4-.1-6.1 2.5-6.2 5.8 0 .4 0 .7.1 1l-9 .7c-1.6.1-2.8 1.4-2.8 3L6.4 55.6c0 1.7 1.3 3 3 3 0 0 0 0 0 0 1.7 0 3-1.3 3-3L12.5 42c8.9-1.5 26-.3 36.2-6.3 2.9-1.7 3.9-5.4 2.2-8.2C49.8 25.7 47.8 24.6 45.8 24.5zM59.7 20.8c-3.2-.8-6.5 1.1-7.3 4.3-.8 3.2 1.1 6.5 4.3 7.3 3.2.8 6.5-1.1 7.3-4.3C64.8 24.9 62.9 21.7 59.7 20.8z"/><path d="M41.9,31.4c0.3,1.1,1.3,1.7,2.4,1.5c1.1-0.3,1.7-1.3,1.5-2.4c0-0.1-2.8-11.8-0.3-21.7c0.3-1.1-0.4-2.2-1.5-2.4
		c-1.1-0.3-2.2,0.4-2.4,1.5C38.9,18.6,41.7,30.8,41.9,31.4z"/></svg>