<svg xmlns="http://www.w3.org/2000/svg" enable-background="new 0 0 66 66" viewBox="0 0 66 66"><path d="M35,41.7l-0.3,5.6c0,0.2,0,0.3,0,0.5l1.1,8.9c0.2,1.5,1.5,2.8,3.3,2.6c1.6-0.2,2.8-1.7,2.6-3.3l-1-8.6l0.3-7
		C38.1,42.7,35.2,41.7,35,41.7z"/><path d="M44.2,60.3c-0.1-0.7-0.7-1.1-1.3-1.1h-1.3c-0.6,0.6-1.4,1-2.3,1.1c-1.3,0.1-2.5-0.3-3.3-1.1h-3.3c-0.7,0-1.2,0.5-1.3,1.1
		l-0.9,4.4h3.4l0.5-1.3c0-0.4,0.3-0.6,0.7-0.6h5.5c0.4,0,0.7,0.3,0.7,0.6l0.5,1.3h3.4L44.2,60.3z"/><circle cx="36.7" cy="7.1" r="5.8"/><path d="M36.2,40.9c2.5,0.4,6.5-2,6.5-6V19.8c0-3.3-2.7-6-6-6s-6,2.7-6,6v0.3l0.1,0.1l3.9-2.8c1.3-1,3.2-0.6,4.2,0.7
		c1,1.3,0.7,3.2-0.7,4.2L32,26.6c-0.4,0.3-0.9,0.5-1.3,0.5v6.8l-6.3-1.1c-1.9-0.3-3.6,1.3-3.5,3.2l1,12.2c0.1,1.7,1.6,2.9,3.2,2.7
		c1.7-0.1,2.9-1.6,2.7-3.2l-0.7-8.3L36.2,40.9z"/><path d="M28.8,25.5c0.4,0.5,0.9,0.7,1.5,0.7c0.4,0,0.8-0.1,1.2-0.4l6.1-4.4c0.9-0.6,1.1-1.9,0.5-2.8c-0.6-0.9-1.9-1.1-2.8-0.5
		l-4.6,3.3L26,16.2c-0.7-0.8-2-0.9-2.8-0.2c-0.8,0.7-0.9,2-0.2,2.8L28.8,25.5z"/></svg>