<svg xmlns="http://www.w3.org/2000/svg" enable-background="new 0 0 66 66" viewBox="0 0 66 66"><path d="M39.6 21.9c-.8 1.1-2 2-3.4 2.4 1.3 4.1 3.5 10.4 5.8 14.6.5 1 1.8 1.3 2.7.8 1-.5 1.3-1.7.8-2.7C43.2 32.7 40.8 25.7 39.6 21.9zM4 33.9c-1.7 0-3 1.3-3 3s1.3 3 3 3h4.3l-.8-6H4zM21 28.3c-.1 0-6.5 1.7-6.1 1.6.5.7 2.6 4.2 2.5 4h-1.9l.8 6h6.5c2.4 0 3.8-2.6 2.5-4.6L21 28.3z"/><path d="M13.9 29.1c.7-.1-.3.1 14.2-3.7.3-2.8.8-5.5 1.5-8.1.5-1.6 2.2-2.5 3.7-2 1.6.5 2.5 2.2 2 3.7-.4 1.5-.8 3.1-1 4.7l1.3-.4c3.2-.9 5.1-4.1 4.3-7.3-.9-3.2-4.1-5.1-7.3-4.3l-21.1 5.6c-3.2.8-5.3 4.2-4.1 7.6l3.8 28.7c.2 1.6 1.7 2.8 3.4 2.6 1.6-.2 2.8-1.7 2.6-3.4L13.9 29.1zM45.5 20c2.9.3 5.4-1.8 5.7-4.7.3-2.9-1.8-5.4-4.7-5.7-2.9-.3-5.4 1.8-5.7 4.7C40.5 17.2 42.6 19.7 45.5 20z"/><path d="M18.1 40.9v2.6h2.7V56h1.9V43.5h2.2c-.1-1 .1-1.9.6-2.6H18.1zM65 40.9h-24c.1 1-.1 1.9-.5 2.6h19.8V56h1.9V43.5H65V40.9zM29.6 42.2l-.2.1c-.6-1-1.5-1.6-2.3-1.3-1 .3-1.5 1.9-1 3.4.5 1.6 1.7 2.6 2.7 2.3.8-.2 1.2-1.2 1.2-2.4l.3-.1C29.9 43.7 29.8 43.1 29.6 42.2zM37.2 37.9c-.8.2-1.2 1.2-1.2 2.4l-.6.2c.2 1.1.5 1.4.4 2.1l.8-.2c.6 1 1.5 1.6 2.3 1.3 1-.3 1.5-1.9 1-3.5C39.4 38.7 38.2 37.6 37.2 37.9zM34.4 18.8c.3-1.1-.3-2.2-1.3-2.5-1.1-.3-2.2.3-2.5 1.3-2.3 7.5-2.2 16.8.3 25.4.7 2.6 4.6 1.4 3.8-1.1C32.4 34.1 32.3 25.6 34.4 18.8z"/></svg>