<svg xmlns="http://www.w3.org/2000/svg" enable-background="new 0 0 66 66" viewBox="0 0 66 66"><path d="M42.5 32.1c-1.2.3-2.6.7-4 1.1 0 4.8.5 10.6 2.7 14.4.5.9 1.7 1.3 2.7.7.9-.5 1.3-1.8.7-2.7C42.8 42.5 42.4 36.8 42.5 32.1zM19.4 34.7c-.8-1.4-1-3-.8-4.5l-6.7 7.7-9.8 8.4c-1.3 1.1-1.4 2.9-.3 4.2 1.1 1.2 2.9 1.4 4.2.3 11.8-10.1 9.4-7.6 14.9-14.1C20.6 36.5 19.5 34.8 19.4 34.7z"/><path d="M46.6 18.1c-.5.1-13.2 1.9-24.1 8-2.9 1.6-3.9 5.2-2.3 8.1 1.4 2.5 1.4 1.9 7.6 7.6L20 46.3c-1.4.8-1.9 2.6-1.1 4.1.8 1.4 2.6 1.9 4.1 1.1l11.4-6.5c1.8-1 2-3.4.5-4.8l-5-4.4c4.5-2.3 9.4-3.8 13-4.7-.2-3.6-.1-6.3 0-6.5.1-1.6 1.5-2.9 3.1-2.8 1.6.1 2.9 1.5 2.8 3.1 0 0-.1 2.1 0 5.1 3-.7 5-3.5 4.5-6.6C52.9 19.9 49.9 17.6 46.6 18.1zM59.6 14.2c-3.1-.1-5.8 2.3-5.9 5.4-.1 3.1 2.3 5.8 5.4 5.9 3.1.1 5.8-2.3 5.9-5.4C65.1 17 62.7 14.3 59.6 14.2z"/><path d="M47.8,24.7c0-1.1-0.8-2-1.9-2.1c-1.1,0-2,0.8-2.1,1.9c0,0.6-0.6,15,3.3,23.3c0.5,1,1.6,1.4,2.6,0.9c1-0.5,1.4-1.7,0.9-2.6
		C47.2,38.7,47.8,24.8,47.8,24.7z"/></svg>