<svg xmlns="http://www.w3.org/2000/svg" width="32" height="32" enable-background="new 0 0 32 32" viewBox="0 0 32 32"><path d="M 15.457031 0 A 3 3 0 0 0 12.457031 3 A 3 3 0 0 0 15.457031 6 A 3 3 0 0 0 18.457031 3 A 3 3 0 0 0 15.457031 0 z M 9.5 0.015625 C 8.6713867 0.015625 8 0.6870117 8 1.515625 L 8 6.5 C 8 8.4296875 9.0683597 10 10.998047 10 L 12 10 L 12 20.498047 L 12 20.5 L 12 30.5 C 12 31.328613 12.671387 32 13.5 32 C 14.328613 32 15 31.328613 15 30.5 L 15 23 L 17 23 L 17 30.5 C 17 31.328613 17.671387 32 18.5 32 C 19.328613 32 20 31.328613 20 30.5 L 20 21.001953 L 20 21 L 20 18.597656 C 20 18.582336 19.766967 18.576787 19.783203 18.560547 L 24.171875 14.037109 C 24.453125 13.755859 24.542969 13.374512 24.542969 12.976562 C 24.542969 12.578613 24.316406 12.197266 24.035156 11.916016 L 19.558594 7.4394531 C 19.260071 7.1409302 18.869507 6.9982299 18.478516 7.0039062 C 18.471253 7.0037231 18.464294 7 18.457031 7 L 16.498047 7 L 12.457031 7 L 10.998047 7 C 10.722168 7 11 6.7758789 11 6.5 L 11 1.515625 C 11 0.6870117 10.328613 0.015625 9.5 0.015625 z M 20 11.580078 L 21.396484 12.976562 L 20 14.373047 L 20 11.580078 z "/></svg>