<svg xmlns="http://www.w3.org/2000/svg" width="32" height="32" enable-background="new 0 0 32 32" viewBox="0 0 32 32"><path d="M 14.5 0 A 3 3 0 0 0 11.5 3 A 3 3 0 0 0 14.5 6 A 3 3 0 0 0 17.5 3 A 3 3 0 0 0 14.5 0 z M 7.5 0.015625 C 6.6713867 0.015625 6 0.6875 6 1.515625 L 6 6.5 C 6 8.4296875 8.1113278 10 10.041016 10 L 10 10 L 10 20.359375 L 6.4628906 23.75 C 6.1674805 24.033203 6 24.424804 6 24.833984 L 6 30.5 C 6 31.328125 6.6713867 32 7.5 32 C 8.3286133 32 9 31.328125 9 30.5 L 9 25.472656 L 11.662109 22.767578 C 11.763245 22.783998 12.1151 22.804848 12.220703 22.798828 L 15.724609 22.599609 L 17.052734 26.423828 C 17.135254 26.727539 17.310547 26.997071 17.554688 27.195312 L 23.054688 31.664062 C 23.33252 31.890624 23.665527 32 23.998047 32 C 24.434082 32 24.867676 31.809572 25.164062 31.445312 C 25.686523 30.801758 25.588379 29.858397 24.945312 29.335938 L 19.570312 25.171875 L 18 20.300781 L 18 18.597656 C 18 18.597656 18.288391 18.373722 18.304688 18.357422 L 22.953125 14.037109 C 23.539063 13.451172 23.601563 12.501953 23.015625 11.916016 L 18.570312 7.4394531 C 18.382264 7.2514038 18.168518 7.1454468 17.929688 7.078125 C 17.816589 7.0286255 17.709412 7 17.578125 7 L 15.541016 7 L 11.421875 7 L 10.041016 7 C 9.7651364 7 9 6.7753906 9 6.5 L 9 1.515625 C 9 0.6875 8.3286133 0.015625 7.5 0.015625 z M 18 11.580078 L 19.396484 12.976562 L 18 14.373047 L 18 11.580078 z "/></svg>