<svg xmlns="http://www.w3.org/2000/svg" width="32" height="32" enable-background="new 0 0 32 32" viewBox="0 0 32 32"><path d="M 16.015625 0 A 3 3 0 0 0 13.015625 3 A 3 3 0 0 0 16.015625 6 A 3 3 0 0 0 19.015625 3 A 3 3 0 0 0 16.015625 0 z M 16.015625 7 C 15.707093 7 15.419189 7.076355 15.158203 7.2011719 C 14.88385 7.3065796 14.637573 7.4915771 14.458984 7.7519531 L 14.431641 7.7929688 C 14.379701 7.8610837 14.332097 7.9331665 14.289062 8.0078125 L 9.2519531 15.646484 C 8.7841797 16.330078 8.9589843 17.262696 9.6425781 17.730469 C 9.9013672 17.908204 10.196289 17.994141 10.488281 17.994141 C 10.966797 17.994141 11.436036 17.765625 11.726562 17.341797 L 14.015625 13.871094 L 14.015625 18.5 L 14.015625 20 L 14.015625 26.361328 L 13.292969 30.224609 C 13.140137 31.039062 13.675781 31.821289 14.490234 31.974609 C 14.583494 31.992189 14.67627 32 14.767578 32 C 15.475586 32 16.105468 31.496094 16.240234 30.775391 L 16.990234 26.775391 C 17.007324 26.684571 17.015625 26.592773 17.015625 26.5 L 17.015625 24.523438 L 18.097656 26.490234 L 19.050781 30.822266 C 19.205075 31.523438 19.82666 32 20.515625 32 C 20.622558 32 20.730958 31.989264 20.839844 31.964844 C 21.648438 31.787109 22.158692 30.986328 21.980469 30.177734 L 20.980469 25.634766 C 20.949709 25.495118 20.898928 25.360351 20.830078 25.234375 L 18.005859 20.097656 C 18.007459 20.064816 18.015625 20.03327 18.015625 20 L 18.015625 13.884766 L 20.273438 17.341797 C 20.563965 17.765625 21.033203 17.994141 21.511719 17.994141 C 21.803711 17.994141 22.098633 17.908205 22.357422 17.730469 C 23.041016 17.262696 23.215821 16.330078 22.748047 15.646484 L 17.789062 8.046875 C 17.768193 8.016357 17.74146 7.9913336 17.71875 7.9628906 C 17.367496 7.3876344 16.738892 7 16.015625 7 z "/></svg>