<svg xmlns="http://www.w3.org/2000/svg" width="32" height="32" enable-background="new 0 0 32 32" viewBox="0 0 32 32"><path d="M 14.5 6.5 C 13.865723 6.5 13.298828 6.8984376 13.085938 7.4960938 L 10.296875 15.333984 L 2.4941406 19.095703 C 2.4769896 19.080073 2.45398 19.075134 2.4375 19.058594 C 1.8470459 18.465941 0.80896 18.322022 0 18.626953 L 0 20.996094 C 0.2816162 20.847595 0.54797365 20.679199 0.76953125 20.46875 C 1.4306642 21.133789 2.4370117 21.5 3.375 21.5 C 4.3129883 21.5 5.2568359 21.133789 5.9570312 20.46875 C 6.6181642 21.133789 7.5307617 21.5 8.46875 21.5 C 9.4067383 21.5 10.303711 21.133789 11.003906 20.46875 C 11.665039 21.133789 12.554198 21.5 13.492188 21.5 C 14.430176 21.5 15.315918 21.133789 16.015625 20.46875 C 16.676757 21.133789 17.55957 21.5 18.498047 21.5 C 19.436523 21.5 20.320312 21.133789 21.019531 20.46875 C 21.679687 21.133789 22.561523 21.5 23.5 21.5 C 24.438476 21.5 25.320312 21.133789 26.019531 20.46875 C 26.679687 21.133789 27.561523 21.5 28.5 21.5 C 29.438476 21.5 30.320312 21.133789 31.019531 20.46875 C 31.307007 20.758362 31.64209 20.979675 32 21.150391 L 32 18.738281 C 31.226807 18.306091 30.210706 18.407166 29.5625 19.058594 C 28.996107 19.628906 28.003919 19.628906 27.4375 19.058594 C 26.658216 18.275391 25.34181 18.275391 24.5625 19.058594 C 23.996107 19.628906 23.003918 19.628906 22.4375 19.058594 C 21.658215 18.275391 20.341809 18.275391 19.5625 19.058594 C 18.996106 19.628906 18.003907 19.628907 17.435547 19.056641 C 16.913331 18.5318 16.153686 18.368042 15.472656 18.546875 C 15.736999 17.815124 15.721863 16.982911 15.357422 16.226562 C 15.007385 15.499633 14.400207 14.983215 13.699219 14.722656 L 15.558594 9.5 L 22 9.5 C 22.828613 9.5 23.5 8.828125 23.5 8 C 23.5 7.171875 22.828613 6.5 22 6.5 L 14.5 6.5 z M 18.8125 11.492188 A 2.9999988 2.9999988 0 0 0 17.658203 11.787109 A 2.9999988 2.9999988 0 0 0 16.257812 15.791016 A 2.9999988 2.9999988 0 0 0 20.261719 17.191406 A 2.9999988 2.9999988 0 0 0 21.662109 13.1875 A 2.9999988 2.9999988 0 0 0 18.8125 11.492188 z M 6 22.470703 C 5.476561 22.470703 4.953131 22.666015 4.5625 23.058594 C 3.9961057 23.626953 3.0048829 23.626954 2.4375 23.056641 C 1.8470459 22.46399 0.80896 22.322022 0 22.626953 L 0 24.996094 C 0.2816162 24.847595 0.54797365 24.679199 0.76953125 24.46875 C 1.4306642 25.133789 2.4370117 25.5 3.375 25.5 C 4.3129883 25.5 5.2568359 25.133789 5.9570312 24.46875 C 6.6181642 25.133789 7.5307617 25.5 8.46875 25.5 C 9.4067383 25.5 10.303711 25.133789 11.003906 24.46875 C 11.665039 25.133789 12.554198 25.5 13.492188 25.5 C 14.430176 25.5 15.315918 25.133789 16.015625 24.46875 C 16.676757 25.133789 17.55957 25.5 18.498047 25.5 C 19.436523 25.5 20.320312 25.133789 21.019531 24.46875 C 21.679687 25.133789 22.561523 25.5 23.5 25.5 C 24.438476 25.5 25.320312 25.133789 26.019531 24.46875 C 26.679687 25.133789 27.561523 25.5 28.5 25.5 C 29.438476 25.5 30.320312 25.133789 31.019531 24.46875 C 31.307007 24.758362 31.64209 24.979675 32 25.150391 L 32 22.738281 C 31.226807 22.306091 30.210706 22.407166 29.5625 23.058594 C 28.996107 23.628906 28.003919 23.628906 27.4375 23.058594 C 26.658216 22.275391 25.34181 22.275391 24.5625 23.058594 C 23.996107 23.628906 23.003918 23.628906 22.4375 23.058594 C 21.658215 22.275391 20.341809 22.275391 19.5625 23.058594 C 18.996106 23.628906 18.003907 23.628907 17.435547 23.056641 C 16.65625 22.273438 15.343762 22.273437 14.5625 23.058594 C 13.996106 23.626953 13.004882 23.626954 12.4375 23.056641 C 11.657226 22.273438 10.343762 22.273437 9.5625 23.058594 C 8.9961061 23.626953 8.0048828 23.626954 7.4375 23.056641 C 7.0473633 22.665039 6.523439 22.470703 6 22.470703 z "/></svg>