<svg xmlns="http://www.w3.org/2000/svg" width="32" height="32" enable-background="new 0 0 32 32" viewBox="0 0 32 32"><path d="M 17.794922 2.4980469 C 17.665077 2.4945126 17.532837 2.5161133 17.404297 2.5664062 C 16.890137 2.7685547 16.635743 3.3486328 16.837891 3.8632812 L 18.712891 8.6367188 L 15.34375 10 L 15.337891 10 L 11.642578 11.349609 C 11.624268 11.356309 11.613403 11.369323 11.595703 11.376953 C 11.326111 11.476323 11.097413 11.678222 10.994141 11.970703 L 9.0488281 17.498047 C 8.8779297 17.983399 9.1049808 18.518554 9.5722656 18.736328 L 14 20.792969 L 14 29.503906 C 14 30.056641 14.447754 30.503906 15 30.503906 C 15.552246 30.503906 16 30.056641 16 29.503906 L 16 22.498047 C 16 22.482607 16.180725 22.456179 16.285156 22.417969 L 18 21.779297 L 18 29.503906 C 18 30.056641 18.447754 30.503906 19 30.503906 C 19.552246 30.503906 20 30.056641 20 29.503906 L 20 20.419922 C 20 20.419922 19.965694 19.687683 19.898438 19.503906 L 16.992188 11.513672 L 20.378906 10.130859 C 20.887206 9.9257815 21.138183 9.3408202 20.9375 8.8300781 L 18.699219 3.1328125 C 18.547608 2.7475586 18.184456 2.5086498 17.794922 2.4980469 z M 12.503906 4.9316406 A 2.5 2.5 0 0 0 10.003906 7.4316406 A 2.5 2.5 0 0 0 12.503906 9.9316406 A 2.5 2.5 0 0 0 15.003906 7.4316406 A 2.5 2.5 0 0 0 12.503906 4.9316406 z M 11.972656 15.208984 L 13.048828 18.148438 L 11.234375 17.304688 L 11.972656 15.208984 z "/></svg>