<svg xmlns="http://www.w3.org/2000/svg" width="32" height="32" enable-background="new 0 0 32 32" viewBox="0 0 32 32"><path d="M 16.988281 0 A 3 3 0 0 0 13.988281 3 A 3 3 0 0 0 16.988281 6 A 3 3 0 0 0 19.988281 3 A 3 3 0 0 0 16.988281 0 z M 13.910156 7 C 13.77893 7 13.655945 7.028687 13.542969 7.078125 C 13.303895 7.145447 13.074585 7.2512817 12.886719 7.4394531 L 8.4101562 11.916016 C 7.8242188 12.501953 7.8242188 13.451172 8.4101562 14.037109 L 12.939453 18.560547 C 12.955753 18.576847 13 18.582276 13 18.597656 L 13 20.300781 L 11.671875 25.171875 L 6.5449219 29.335938 C 5.9018585 29.858398 5.803711 30.801758 6.3261719 31.445312 C 6.6225586 31.80957 7.0541993 32 7.4902344 32 C 7.8227539 32 8.1557617 31.889649 8.4335938 31.664062 L 13.933594 27.195312 C 14.177735 26.99707 14.353027 26.727539 14.435547 26.423828 L 15.365234 23 L 19.066406 23 C 19.17218 23 19.279724 22.98517 19.380859 22.96875 L 22 25.472656 L 22 30.5 C 22 31.328125 22.671387 32 23.5 32 C 24.328613 32 25 31.328125 25 30.5 L 25 24.833984 C 25 24.424804 24.832519 24.033203 24.537109 23.75 L 21 20.359375 L 21 18.601562 C 21 18.584782 21.036808 18.578427 21.054688 18.560547 L 25.576172 14.037109 C 26.16211 13.451172 26.160192 12.501953 25.574219 11.916016 L 21.097656 7.4394531 C 20.907653 7.2494507 20.675232 7.1448975 20.433594 7.078125 C 20.321167 7.0292969 20.196777 7 20.066406 7 L 13.910156 7 z M 21 11.574219 L 22.402344 12.976562 L 21 14.378906 L 21 11.574219 z M 13 11.580078 L 13 14.373047 L 11.603516 12.976562 L 13 11.580078 z "/></svg>