<svg xmlns="http://www.w3.org/2000/svg" width="32" height="32" enable-background="new 0 0 32 32" viewBox="0 0 32 32"><path d="M 16.021484 0 A 3 3 0 0 0 13.021484 3 A 3 3 0 0 0 16.021484 6 A 3 3 0 0 0 19.021484 3 A 3 3 0 0 0 16.021484 0 z M 5.5214844 7 C 4.6958008 7 4.0249024 7.6679688 4.0214844 8.4941406 C 4.0180671 9.3227539 4.6752929 9.996582 5.5039062 10 L 12 10.009766 L 12 20.5 L 12 21 L 12 30.5 C 12 31.328613 12.671387 32 13.5 32 C 14.328613 32 15 31.328613 15 30.5 L 15 23 L 17 23 L 17 30.5 C 17 31.328613 17.671387 32 18.5 32 C 19.328613 32 20 31.328613 20 30.5 L 20 21 L 20 20.5 L 20 10.007812 L 26.472656 10 L 26.478516 10 C 27.3042 10 27.975098 9.3398438 27.978516 8.5136719 C 27.981916 7.6850586 27.312989 7.019043 26.484375 7.015625 L 19.048828 7.0058594 C 19.039184 7.0055544 19.031188 7 19.021484 7 L 13.021484 7 C 13.003724 7 12.988283 7.0088536 12.970703 7.0097656 L 5.5273438 7 L 5.5214844 7 z "/></svg>