<svg xmlns="http://www.w3.org/2000/svg" width="32" height="32" enable-background="new 0 0 32 32" viewBox="0 0 32 32"><path d="M 13.204338,1.9972562 C 12.814804,2.007859 12.451653,2.2467676 12.300041,2.6320218 L 10.06176,8.3292874 c -0.2006834,0.5107421 0.05225,1.0957031 0.560547,1.3007813 l 3.384765,1.3828123 -2.904297,7.990234 c -0.06726,0.183777 -0.101562,0.916016 -0.101562,0.916016 l 0,9.083984 c 0,0.552735 0.447754,1 1,1 0.552246,0 1,-0.447265 1,-1 l 0,-7.724609 1.714844,0.638672 c 0.104431,0.03821 0.285156,0.06464 0.285156,0.08008 l 0,7.005859 c 0,0.552735 0.447754,1 1,1 0.552246,0 1,-0.447265 1,-1 l 0,-8.710937 4.425781,-2.056641 c 0.467285,-0.217774 0.694336,-0.752929 0.523438,-1.238281 l -1.94336,-5.527344 C 19.9038,11.177431 19.673149,10.97748 19.403557,10.878115 c -0.0177,-0.0076 -0.02857,-0.02259 -0.04687,-0.0293 l -3.695313,-1.3496087 -0.0059,0 -3.369141,-1.3632812 1.875,-4.7734376 c 0.202185,-0.5146454 -0.05221,-1.0947235 -0.56637,-1.296872 -0.12854,-0.050293 -0.26078,-0.071894 -0.390625,-0.068359 z m 5.291016,2.4335937 a 2.5,2.5 0 0 0 -2.5,2.5 2.5,2.5 0 0 0 2.5,2.5 2.5,2.5 0 0 0 2.5,-2.5 2.5,2.5 0 0 0 -2.5,-2.5 z m 0.53125,10.2773431 0.738281,2.095704 -1.814453,0.84375 1.076172,-2.939454 z"/></svg>