<svg xmlns="http://www.w3.org/2000/svg" width="32" height="32" enable-background="new 0 0 32 32" viewBox="0 0 32 32"><path d="M 17.578125 3.984375 A 2.5000174 2.5000012 23.008582 0 0 15.201172 5.5058594 A 2.5000174 2.5000012 23.008582 0 0 16.525391 8.7851562 A 2.5000174 2.5000012 23.008582 0 0 19.802734 7.4609375 A 2.5000174 2.5000012 23.008582 0 0 18.478516 4.1816406 A 2.5000174 2.5000012 23.008582 0 0 17.578125 3.984375 z M 11 10 C 10.447754 10 10 10.447266 10 11 C 10 11.552734 10.447754 12 11 12 L 16.919922 12 C 16.825862 12 16.853938 12.950379 17.035156 13.416016 L 18.914062 18.060547 L 14.517578 18.009766 C 13.683594 17.97461 13.009277 18.655273 13 19.484375 C 12.999451 19.532835 12.994859 19.756165 13.005859 19.824219 L 14.03125 26.175781 C 14.10522 26.632306 14.478958 26.95506 14.917969 27 L 2.5 27 C 2.2236328 27 2 27.223633 2 27.5 C 2 27.776367 2.2236328 28 2.5 28 L 29.5 28 C 29.776367 28 30 27.776367 30 27.5 C 30 27.223633 29.776367 27 29.5 27 L 15.1875 27 C 15.726974 26.907098 16.093166 26.398728 16.005859 25.857422 L 15.21875 20.974609 L 21.777344 21 L 21.794922 21 C 22.096192 21 22.403321 20.954106 22.701172 20.837891 C 23.987794 20.337891 24.625488 18.894531 24.125 17.607422 L 21.695312 11.603516 C 21.279602 10.533326 20.423523 10 19 10 L 11 10 z "/></svg>