<svg xmlns="http://www.w3.org/2000/svg" width="32" height="32" enable-background="new 0 0 32 32" viewBox="0 0 32 32"><path d="M 16 3 A 2.5 2.5 0 0 0 13.5 5.5 A 2.5 2.5 0 0 0 16 8 A 2.5 2.5 0 0 0 18.5 5.5 A 2.5 2.5 0 0 0 16 3 z M 2.5 28 C 2.2236328 28 2 28.223633 2 28.5 C 2 28.776367 2.2236328 29 2.5 29 L 29.5 29 C 29.776367 29 30 28.776367 30 28.5 C 30 28.223633 29.776367 28 29.5 28 L 22 28 L 7 28 L 2.5 28 z "/><path d="M 14.430603,20.98352 C 14.484924,20.989197 14.537781,21 14.593506,21 L 17,21 17.442749,21 21,21 l 0,6.000122 c 0,0.552734 0.447754,1 1,1 0.552246,0 1,-0.447266 1,-1 l 0,-7 C 23,19.447388 22.552246,19 22,19 l -3,0 0,-8 6,0 c 0.552246,0 1,-0.447266 1,-1 C 26,9.4472656 25.552246,9 25,9 L 17.950989,9 14.017639,9 7,9 c -0.5522461,0 -1,0.4472656 -1,1 0,0.552734 0.4477539,1 1,1 l 6,0 0,8.406616 c 0,0.05572 0.01086,0.108582 0.01654,0.162903 l -6.7235723,6.723572 c -0.390625,0.390625 -0.390625,1.023437 0,1.414062 C 6.4882812,27.902466 6.7441406,28.000122 7,28.000122 c 0.2558594,0 0.5117188,-0.09769 0.7070312,-0.292999 L 14.430603,20.98352 Z"/></svg>