<svg xmlns="http://www.w3.org/2000/svg" width="32" height="32" enable-background="new 0 0 32 32" viewBox="0 0 32 32"><path d="M 15.988281 0 A 3 3 0 0 0 12.988281 3 A 3 3 0 0 0 15.988281 6 A 3 3 0 0 0 18.988281 3 A 3 3 0 0 0 15.988281 0 z M 26.632812 1.9765625 C 26.152728 1.9377098 25.663025 2.1298828 25.339844 2.5351562 L 21.767578 7 L 9.5117188 7 L 9.4882812 7 C 8.9456176 7 8.4762573 7.2911987 8.2128906 7.7226562 L 4.3183594 12.59375 C 3.8007813 13.240234 3.9057617 14.183594 4.5527344 14.701172 C 4.8295899 14.921875 5.1596679 15.029297 5.4882812 15.029297 C 5.9282227 15.029297 6.3642577 14.835938 6.6601562 14.464844 L 10.232422 10 L 13.990234 10 L 13.990234 18.228516 L 11.716797 24.287109 L 8.2617188 22.212891 C 7.5502929 21.785157 6.6293946 22.018555 6.203125 22.728516 C 5.7768554 23.438476 6.0068359 24.361327 6.7167969 24.787109 L 11.716797 27.787109 C 11.952637 27.92871 12.221679 28 12.490234 28 C 12.656738 28 12.821778 27.972656 12.982422 27.916016 C 13.402833 27.769531 13.738281 27.444336 13.894531 27.027344 L 15.787109 21.980469 C 15.792609 21.98108 15.797174 21.979969 15.802734 21.980469 L 19.089844 25.642578 L 20.013672 30.765625 C 20.14453 31.490239 20.776855 32 21.488281 32 C 21.576661 32 21.665527 31.992203 21.755859 31.976562 C 22.570801 31.829103 23.111817 31.047852 22.964844 30.232422 L 21.964844 24.691406 C 21.915524 24.417969 21.791016 24.162109 21.605469 23.955078 L 17.990234 19.925781 L 17.990234 10 L 22.490234 10 L 22.509766 10 C 23.052369 10 23.523742 9.7087402 23.787109 9.2773438 L 27.681641 4.4082031 C 28.199219 3.7617187 28.094239 2.8164062 27.447266 2.2988281 C 27.204834 2.1054688 26.920863 1.9998741 26.632812 1.9765625 z "/></svg>