<svg xmlns="http://www.w3.org/2000/svg" width="32" height="32" enable-background="new 0 0 32 32" viewBox="0 0 32 32"><path d="M 15.998047 0 A 3 3 0 0 0 12.998047 3 A 3 3 0 0 0 15.998047 6 A 3 3 0 0 0 18.998047 3 A 3 3 0 0 0 15.998047 0 z M 12.998047 7 C 12.990647 7 12.983883 7.0037262 12.976562 7.0039062 C 12.585328 6.9981662 12.192627 7.1408691 11.894531 7.4394531 L 7.4179688 11.916016 C 6.8320312 12.501953 6.8320311 13.45166 7.4179688 14.037109 L 11.943359 18.560547 C 11.959659 18.576847 12 18.582276 12 18.597656 L 12 20.117188 L 9.1816406 25.28125 C 9.1142576 25.404785 9.0639648 25.536621 9.0332031 25.673828 L 8.0332031 30.173828 C 7.8535156 30.982422 8.362793 31.785157 9.171875 31.964844 C 9.28125 31.989254 9.3901368 32 9.4980469 32 C 10.185547 32 10.805662 31.523438 10.960938 30.824219 L 11.916016 26.53125 L 13.849609 22.984375 C 13.898982 22.988044 13.947754 23 13.998047 23 L 17.998047 23 C 18.048337 23 18.095151 22.988035 18.144531 22.984375 L 20.078125 26.53125 L 21.033203 30.824219 C 21.188477 31.523438 21.808594 32 22.496094 32 C 22.604004 32 22.712891 31.989254 22.822266 31.964844 C 23.631348 31.785157 24.140626 30.982422 23.960938 30.173828 L 22.960938 25.673828 C 22.930177 25.536621 22.883784 25.404785 22.816406 25.28125 L 20 20.117188 L 20 18.599609 C 20 18.582819 20.040714 18.578427 20.058594 18.560547 L 24.582031 14.037109 C 25.167969 13.45166 25.167969 12.501954 24.582031 11.916016 L 20.105469 7.4394531 C 19.806214 7.1401977 19.413452 6.9974976 19.021484 7.0039062 C 19.013305 7.0037231 19.006286 7 18.998047 7 L 12.998047 7 z M 20 11.574219 L 21.402344 12.976562 L 20 14.378906 L 20 11.574219 z M 12 11.580078 L 12 14.373047 L 10.603516 12.976562 L 12 11.580078 z "/></svg>