<svg xmlns="http://www.w3.org/2000/svg" width="32" height="32" enable-background="new 0 0 32 32" viewBox="0 0 32 32"><path d="M 23 11 C 22.447754 11 22 11.447266 22 12 L 22 16 L 12 16 L 12 12 C 12 11.585938 11.744141 11.213867 11.357422 11.066406 C 10.969238 10.916016 10.532715 11.024414 10.255859 11.333984 L 6.9257812 15.048828 C 6.208374 14.923035 5.4435425 15.099548 4.8515625 15.615234 C 3.8104858 16.522155 3.7024536 18.101501 4.609375 19.142578 C 5.5162964 20.183655 7.0956421 20.291687 8.1367188 19.384766 C 9.0784301 18.564392 9.2472534 17.198425 8.6015625 16.173828 L 10 14.615234 L 10 17.980469 C 9.999939 17.987061 9.9980469 17.993347 9.9980469 18 C 9.9980469 19.104492 10.893555 20 11.998047 20 L 2.5 20 C 2.2236328 20 2 20.223633 2 20.5 C 2 20.776367 2.2236328 21 2.5 21 L 29.5 21 C 29.776367 21 30 20.776367 30 20.5 C 30 20.223633 29.776367 20 29.5 20 L 22 20 C 23.104492 20 24 19.104492 24 18 L 24 13 L 28 13 C 28.552246 13 29 12.552734 29 12 C 29 11.447266 28.552246 11 28 11 L 23 11 z "/></svg>