<svg xmlns="http://www.w3.org/2000/svg" width="32" height="32" enable-background="new 0 0 32 32" viewBox="0 0 32 32"><path d="M 16.009766 0 A 3 3 0 0 0 13.009766 3 A 3 3 0 0 0 16.009766 6 A 3 3 0 0 0 19.009766 3 A 3 3 0 0 0 16.009766 0 z M 23.46875 0 C 22.987498 0.013342036 22.519898 0.25860594 22.242188 0.6953125 L 18.232422 7 L 13.009766 7 C 13.002366 7 12.995601 7.0037162 12.988281 7.0039062 C 12.597045 6.9981662 12.204345 7.1408691 11.90625 7.4394531 L 7.4296875 11.916016 C 6.84375 12.501954 6.84375 13.45166 7.4296875 14.037109 L 11.949219 18.560547 C 11.965519 18.576847 12 18.582276 12 18.597656 L 12 20.117188 L 9.1875 25.28125 C 9.120117 25.404785 9.0737304 25.536621 9.0429688 25.673828 L 8.0429688 30.173828 C 7.8632817 30.982422 8.3745117 31.785156 9.1835938 31.964844 C 9.2929688 31.989254 9.4018555 32 9.5097656 32 C 10.197266 32 10.817383 31.523437 10.972656 30.824219 L 11.927734 26.53125 L 13.861328 22.984375 C 13.910708 22.988075 13.95947 23 14.009766 23 L 18.009766 23 C 18.060056 23 18.10687 22.988045 18.15625 22.984375 L 20.089844 26.53125 L 21.044922 30.824219 C 21.200196 31.523438 21.820312 32 22.507812 32 C 22.615723 32 22.724609 31.989264 22.833984 31.964844 C 23.643066 31.785156 24.152344 30.982422 23.972656 30.173828 L 22.972656 25.673828 C 22.941896 25.536621 22.889648 25.404785 22.822266 25.28125 L 20 20.117188 L 20 9.6484375 C 20 9.6394845 19.990122 9.6501866 19.986328 9.6484375 C 20.007835 9.6322177 19.980547 9.6721087 20.054688 9.5917969 L 24.507812 2.5917969 C 24.952637 1.8925781 25.01123 0.6791992 24.3125 0.234375 C 24.050293 0.067565925 23.757501 -0.0080052217 23.46875 0 z M 12 11.580078 L 12 14.373047 L 10.603516 12.976562 L 12 11.580078 z "/></svg>