<svg xmlns="http://www.w3.org/2000/svg" width="32" height="32" enable-background="new 0 0 32 32" viewBox="0 0 32 32"><path d="M 15.998047 1.9960938 A 2.5 2.5 0 0 0 13.498047 4.4960938 A 2.5 2.5 0 0 0 15.998047 6.9960938 A 2.5 2.5 0 0 0 18.498047 4.4960938 A 2.5 2.5 0 0 0 15.998047 1.9960938 z M 14.015625 8 C 13.955015 8 13.903382 8.0230711 13.845703 8.0332031 C 13.811283 8.0379031 13.779842 8.0444944 13.746094 8.0527344 C 13.670954 8.0739744 13.600219 8.0977786 13.533203 8.1347656 C 13.468013 8.1676636 13.410889 8.2084351 13.353516 8.2558594 C 13.321346 8.2839354 13.292112 8.311829 13.263672 8.34375 C 13.229122 8.380554 13.18567 8.4043577 13.15625 8.4472656 L 10.726562 11.984375 L 8.3613281 11.064453 C 7.927124 10.892884 7.4611816 11.062744 7.2011719 11.425781 C 7.081787 11.51709 7 11.654297 7 11.816406 L 7 20.984375 C 7 25.958008 11.037598 30.003906 16 30.003906 C 20.962402 30.003906 25 25.958008 25 20.984375 L 25 12.054688 L 25 11.902344 L 25 11.816406 L 25 11.597656 L 25 11.59375 C 25 11.082031 24.186035 10.831054 23.671875 11.037109 L 21.291016 11.980469 L 18.826172 8.4433594 C 18.799562 8.4049074 18.757324 8.3831184 18.726562 8.3496094 C 18.698553 8.3183594 18.666316 8.293335 18.634766 8.265625 C 18.571166 8.211792 18.506836 8.1646733 18.433594 8.1289062 C 18.373234 8.0969243 18.310791 8.0745845 18.244141 8.0546875 C 18.201901 8.0438845 18.160463 8.036438 18.117188 8.03125 C 18.060179 8.0216657 18.008973 8 17.949219 8 L 14.015625 8 z M 19 12.205078 L 20.089844 13.775391 C 20.28125 14.050782 20.589844 14.205078 20.910156 14.205078 C 21.034179 14.205078 21.160645 14.180662 21.28125 14.132812 L 24 13.046875 L 24 20.984375 C 24 25.407226 20.411133 29.003906 16 29.003906 C 11.588867 29.003906 8 25.407227 8 20.984375 L 8 13.068359 L 10.740234 14.136719 C 10.858887 14.182619 10.980469 14.205078 11.101562 14.205078 C 11.423827 14.205078 11.736816 14.048828 11.927734 13.771484 L 13 12.210938 L 13 16.996094 L 13 18.402344 L 13 25.996094 C 13 26.548828 13.447754 26.996094 14 26.996094 C 14.552246 26.996094 15 26.548828 15 25.996094 L 15 20 L 17 20 L 17 25.996094 C 17 26.548828 17.447754 26.996094 18 26.996094 C 18.552246 26.996094 19 26.548828 19 25.996094 L 19 18.439453 L 19 16.996094 L 19 12.205078 z "/></svg>