<svg xmlns="http://www.w3.org/2000/svg" width="32" height="32" enable-background="new 0 0 32 32" viewBox="0 0 32 32"><path d="M 9.75 2.25 C 9.4736328 2.25 9.25 2.4736328 9.25 2.75 C 8.9736328 2.75 8.75 2.9736328 8.75 3.25 C 8.75 3.5263672 8.9736328 3.75 9.25 3.75 C 9.25 4.0263672 9.4736328 4.25 9.75 4.25 C 10.026367 4.25 10.25 4.0263672 10.25 3.75 L 11.25 3.75 L 11.25 9.75 C 11.25 11.404297 12.595703 12.75 14.25 12.75 L 14.25 19.75 L 14.25 21.15625 L 14.25 28.75 C 14.25 29.302734 14.697754 29.75 15.25 29.75 C 15.802246 29.75 16.25 29.302734 16.25 28.75 L 16.25 22.75 L 18.25 22.75 L 18.25 28.75 C 18.25 29.302734 18.697754 29.75 19.25 29.75 C 19.802246 29.75 20.25 29.302734 20.25 28.75 L 20.25 21.193359 L 20.25 19.75 L 20.25 12.75 C 20.801269 12.75 21.25 13.198242 21.25 13.75 L 21.25 19.75 C 21.25 20.302734 21.697754 20.75 22.25 20.75 C 22.802246 20.75 23.25 20.302734 23.25 19.75 L 23.25 13.75 C 23.25 12.095703 21.904297 10.75 20.25 10.75 L 19.25 10.75 L 19.201172 10.75 L 15.267578 10.75 L 15.25 10.75 L 14.25 10.75 C 13.698731 10.75 13.25 10.301758 13.25 9.75 L 13.25 3.75 L 14.25 3.75 C 14.25 4.0263672 14.473633 4.25 14.75 4.25 C 15.026367 4.25 15.25 4.0263672 15.25 3.75 C 15.526367 3.75 15.75 3.5263672 15.75 3.25 C 15.75 2.9736328 15.526367 2.75 15.25 2.75 C 15.25 2.4736328 15.026367 2.25 14.75 2.25 C 14.473633 2.25 14.25 2.4736328 14.25 2.75 L 10.25 2.75 C 10.25 2.4736328 10.026367 2.25 9.75 2.25 z M 17.25 4.75 A 2.5 2.5 0 0 0 14.75 7.25 A 2.5 2.5 0 0 0 17.25 9.75 A 2.5 2.5 0 0 0 19.75 7.25 A 2.5 2.5 0 0 0 17.25 4.75 z "/></svg>