<svg xmlns="http://www.w3.org/2000/svg" width="32" height="32" enable-background="new 0 0 32 32" viewBox="0 0 32 32"><path d="M 7.4179688 -0.009765625 C 7.1293945 0.0015869305 6.841919 0.095458975 6.5917969 0.27929688 C 5.9238282 0.76953118 5.7792968 1.7089842 6.2695312 2.3769531 L 11.792969 9.9003906 C 11.853269 9.9824826 11.925537 10.051147 11.998047 10.117188 L 11.998047 20.511719 L 11.998047 21.011719 L 11.998047 30.511719 C 11.998047 31.339844 12.669433 32.011719 13.498047 32.011719 C 14.32666 32.011719 14.998047 31.339844 14.998047 30.511719 L 14.998047 23.011719 L 16.998047 23.011719 L 16.998047 30.511719 C 16.998047 31.339844 17.669433 32.011719 18.498047 32.011719 C 19.32666 32.011719 19.998047 31.339844 19.998047 30.511719 L 19.998047 21.011719 L 19.998047 20.511719 L 19.998047 10.123047 C 20.072757 10.055667 20.145141 9.9846801 20.207031 9.9003906 L 25.730469 2.3769531 C 26.220704 1.7089842 26.076172 0.76953127 25.408203 0.27929688 C 24.740723 -0.21093753 23.80371 -0.0664062 23.3125 0.6015625 L 18.605469 7.0117188 L 13.394531 7.0117188 L 8.6875 0.6015625 C 8.3804932 0.184082 7.8989258 -0.028686551 7.4179688 -0.009765625 z M 15.998047 0.01171875 A 3 3 0 0 0 12.998047 3.0117188 A 3 3 0 0 0 15.998047 6.0117188 A 3 3 0 0 0 18.998047 3.0117188 A 3 3 0 0 0 15.998047 0.01171875 z "/></svg>