<svg xmlns="http://www.w3.org/2000/svg" width="32" height="32" enable-background="new 0 0 32 32" viewBox="0 0 32 32"><path d="M 9.5 0 C 8.6713867 0 8 0.6713867 8 1.5 L 8 6.5 C 8 8.4296875 9.5703125 10 11.5 10 L 12 10 L 12 20.5 L 12 20.9375 L 12 30.5 C 12 31.328613 12.671387 32 13.5 32 C 14.328613 32 15 31.328613 15 30.5 L 15 23 L 17 23 L 17 30.5 C 17 31.328613 17.671387 32 18.5 32 C 19.328613 32 20 31.328613 20 30.5 L 20 20.9375 L 20 20.5 L 20 10 L 20.5 10 C 20.775879 10 21 10.224121 21 10.5 L 21 16.5 C 21 17.328613 21.671387 18 22.5 18 C 23.328613 18 24 17.328613 24 16.5 L 24 10.5 C 24 8.5703125 22.429687 7 20.5 7 L 17 7 L 15.25 7 L 11.5 7 C 11.224121 7 11 6.7758789 11 6.5 L 11 1.5 C 11 0.6713867 10.328613 0 9.5 0 z M 16 0 A 3 3 0 0 0 13 3 A 3 3 0 0 0 16 6 A 3 3 0 0 0 19 3 A 3 3 0 0 0 16 0 z "/></svg>