<svg xmlns="http://www.w3.org/2000/svg" width="32" height="32" enable-background="new 0 0 32 32" viewBox="0 0 32 32"><path d="M 14 0 A 3 3 0 0 0 11 3 A 3 3 0 0 0 14 6 A 3 3 0 0 0 17 3 A 3 3 0 0 0 14 0 z M 7.5 0.015625 C 6.6713867 0.015625 6 0.6870117 6 1.515625 L 6 6.5 C 6 8.4296875 7.5703125 10 9.5 10 L 10 10 L 10 20.5 L 10 21 L 10 30.5 C 10 31.328613 10.671387 32 11.5 32 C 12.328614 32 13 31.328613 13 30.5 L 13 23 L 15 23 L 15 30.5 C 15 31.328613 15.671386 32 16.5 32 C 17.328614 32 18 31.328613 18 30.5 L 18 21 L 18 20.5 L 18 10.009766 L 24.505859 10 C 25.334472 9.996582 26.003418 9.3227539 26 8.4941406 C 25.996582 7.6674805 25.325684 7 24.5 7 L 24.494141 7 L 17.050781 7.0097656 C 17.033244 7.0088499 17.017761 7 17 7 L 15 7 L 11 7 L 9.5 7 C 9.2241211 7 9 6.7758789 9 6.5 L 9 1.515625 C 9 0.6870117 8.3286133 0.015625 7.5 0.015625 z "/></svg>