<svg xmlns="http://www.w3.org/2000/svg" width="32" height="32" enable-background="new 0 0 32 32" viewBox="0 0 32 32"><path d="M 23 8.5 C 22.447754 8.5 22 8.9472656 22 9.5 L 22 18.5 L 11.998047 18.5 C 10.893555 18.5 9.9980469 19.395508 9.9980469 20.5 C 9.9980469 21.604492 10.893555 22.5 11.998047 22.5 L 6.5351562 22.5 L 2.5 22.5 C 2.2236328 22.5 2 22.723633 2 23 C 2 23.276367 2.2236328 23.5 2.5 23.5 L 29.5 23.5 C 29.776367 23.5 30 23.276367 30 23 C 30 22.723633 29.776367 22.5 29.5 22.5 L 22 22.5 C 23.097778 22.5 23.987305 21.608948 23.998047 20.513672 C 23.998108 20.510193 24 20.503479 24 20.5 L 24 9.5 C 24 8.9472656 23.552246 8.5 23 8.5 z M 6.5351562 22.5 A 2.4999871 2.4999871 0 0 0 8.1367188 21.884766 A 2.4999871 2.4999871 0 0 0 8.3789062 18.357422 A 2.4999871 2.4999871 0 0 0 4.8515625 18.115234 A 2.4999871 2.4999871 0 0 0 4.609375 21.642578 A 2.4999871 2.4999871 0 0 0 6.5351562 22.5 z "/></svg>