<svg xmlns="http://www.w3.org/2000/svg" width="32" height="32" enable-background="new 0 0 32 32" viewBox="0 0 32 32"><path d="M 11.357422 7.0019531 C 10.71875 7.0385743 10.093994 7.3188477 9.6347656 7.8339844 C 9.1621095 8.3639527 8.9824219 8.9093008 8.9824219 9.8359375 L 9.0175781 23.003906 C 9.019043 23.554687 9.4663088 24 10.017578 24 L 2.5 24 C 2.2236328 24 2 24.223633 2 24.5 C 2 24.776367 2.2236328 25 2.5 25 L 29.5 25 C 29.776367 25 30 24.776367 30 24.5 C 30 24.223633 29.776367 24 29.5 24 L 13.175781 24 C 13.46694 23.99475 13.754014 23.866925 13.947266 23.619141 L 19.041016 17.085938 C 19.219788 16.968507 19.391968 16.835144 19.541016 16.667969 C 20.459961 15.637695 20.368164 14.055664 19.337891 13.136719 L 13.164062 7.6308594 C 12.648195 7.1713867 11.996094 6.9653319 11.357422 7.0019531 z M 10.988281 12.390625 L 16.009766 16.869141 C 16.143494 16.98822 16.287964 17.086547 16.4375 17.171875 L 12.369141 22.388672 C 12.029297 22.824219 12.10791 23.452148 12.542969 23.791016 C 12.719373 23.928376 12.927289 23.995104 13.134766 24 L 10.019531 24 C 10.571777 24 11.019043 23.636719 11.017578 23.083984 L 10.988281 12.390625 z M 21.492188 16.988281 A 2.5 2.5 0 0 0 18.992188 19.488281 A 2.5 2.5 0 0 0 21.492188 21.988281 A 2.5 2.5 0 0 0 23.992188 19.488281 A 2.5 2.5 0 0 0 21.492188 16.988281 z "/></svg>