<svg xmlns="http://www.w3.org/2000/svg" width="32" height="32" enable-background="new 0 0 32 32" viewBox="0 0 32 32"><path d="M 15.011719 0 A 3 3 0 0 0 12.011719 3 A 3 3 0 0 0 15.011719 6 A 3 3 0 0 0 18.011719 3 A 3 3 0 0 0 15.011719 0 z M 11.933594 7 C 11.803162 7 11.680786 7.029297 11.568359 7.078125 C 11.326904 7.144959 11.094177 7.2495727 10.904297 7.4394531 L 6.4277344 11.916016 C 5.8417969 12.501953 5.8417969 13.451172 6.4277344 14.037109 L 10.945312 18.560547 C 10.963195 18.57843 11 18.584716 11 18.601562 L 11 20.359375 L 7.4628906 23.75 C 7.1674805 24.033203 7 24.424804 7 24.833984 L 7 30.5 C 7 31.328125 7.6713867 32 8.5 32 C 9.3286133 32 10 31.328125 10 30.5 L 10 25.472656 L 12.619141 22.96875 C 12.720276 22.985169 12.827759 23 12.933594 23 L 16.634766 23 L 17.564453 26.423828 C 17.646973 26.727539 17.822266 26.997071 18.066406 27.195312 L 23.566406 31.664062 C 23.844238 31.890625 24.177247 32 24.509766 32 C 24.945802 32 25.379394 31.809571 25.675781 31.445312 C 26.198241 30.801758 26.100097 29.858398 25.457031 29.335938 L 20.326172 25.171875 L 19 20.300781 L 19 18.597656 C 19 18.582276 19.044317 18.576787 19.060547 18.560547 L 23.587891 14.037109 C 23.869141 13.755859 24.029297 13.374023 24.029297 12.976562 C 24.029297 12.579102 23.871094 12.197266 23.589844 11.916016 L 19.113281 7.4394531 C 18.925293 7.2514648 18.695801 7.1455078 18.457031 7.078125 C 18.343994 7.0286255 18.221192 7 18.089844 7 L 11.933594 7 z M 11 11.574219 L 11 14.378906 L 9.5976562 12.976562 L 11 11.574219 z M 19 11.580078 L 20.396484 12.976562 L 19 14.373047 L 19 11.580078 z "/></svg>