<svg xmlns="http://www.w3.org/2000/svg" width="32" height="32" enable-background="new 0 0 32 32" viewBox="0 0 32 32"><path d="M 16 0 A 3 3 0 0 0 13 3 A 3 3 0 0 0 16 6 A 3 3 0 0 0 19 3 A 3 3 0 0 0 16 0 z M 9.5 0.015625 C 8.6713867 0.015625 8 0.6870117 8 1.515625 L 8 6.5 C 8 8.4296875 9.5703125 10 11.5 10 L 12 10 L 12 20.5 L 12 21 L 12 30.5 C 12 31.328613 12.671387 32 13.5 32 C 14.328613 32 15 31.328613 15 30.5 L 15 23 L 17 23 L 17 30.5 C 17 31.328613 17.671387 32 18.5 32 C 19.328613 32 20 31.328613 20 30.5 L 20 21 L 20 20.5 L 20 10 L 20.458984 10 C 22.388672 10 24 8.4296875 24 6.5 L 24 1.515625 C 24 0.6870117 23.328613 0.015625 22.5 0.015625 C 21.671387 0.015625 21 0.6870117 21 1.515625 L 21 6.5 C 21 6.7758789 20.734863 7 20.458984 7 L 19 7 L 17 7 L 14.958984 7 L 13 7 L 11.5 7 C 11.224121 7 11 6.7758789 11 6.5 L 11 1.515625 C 11 0.6870117 10.328613 0.015625 9.5 0.015625 z "/></svg>