<svg xmlns="http://www.w3.org/2000/svg" width="32" height="32" enable-background="new 0 0 32 32" viewBox="0 0 32 32"><path d="M 16 3 A 2.5 2.5 0 0 0 13.5 5.5 A 2.5 2.5 0 0 0 16 8 A 2.5 2.5 0 0 0 18.5 5.5 A 2.5 2.5 0 0 0 16 3 z M 9.0898438 3.0039062 C 8.8348999 2.9810791 8.5710449 3.055664 8.359375 3.2324219 C 7.9355469 3.5859375 7.8789063 4.2167969 8.2324219 4.640625 L 13 10.355469 L 13 13.164062 C 10.264343 13.473816 8 14.23114 8 15.5 C 8 16.76886 10.264343 17.526184 13 17.835938 L 13 17.902344 L 11.019531 27.804688 C 10.911133 28.34668 11.263184 28.87207 11.804688 28.980469 C 11.871097 28.994139 11.937011 29 12.001953 29 C 12.46875 29 12.885742 28.672852 12.980469 28.197266 L 14.419922 21 L 17.580078 21 L 19.019531 28.195312 C 19.114258 28.670898 19.531251 29 19.998047 29 C 20.062987 29 20.128906 28.994099 20.195312 28.980469 C 20.736816 28.87207 21.088867 28.34668 20.980469 27.804688 L 19 17.900391 L 19 17.835938 C 21.735657 17.526188 24 16.76886 24 15.5 C 24 14.23114 21.735657 13.473816 19 13.164062 L 19 10.363281 L 23.767578 4.640625 C 24.121094 4.2158203 24.064941 3.5839844 23.640625 3.2304688 C 23.21582 2.8789062 22.585937 2.9355469 22.232422 3.359375 L 17.53125 9 L 14.474609 9 L 9.7675781 3.359375 C 9.590332 3.1469726 9.3447876 3.0267334 9.0898438 3.0039062 z M 13 14.167969 L 13 16.832031 C 10.355957 16.517212 9 15.83783 9 15.5 C 9 15.16217 10.355957 14.482788 13 14.167969 z M 19 14.167969 C 21.644043 14.482788 23 15.16217 23 15.5 C 23 15.83783 21.644043 16.517212 19 16.832031 L 19 14.167969 z "/></svg>