<svg xmlns="http://www.w3.org/2000/svg" width="32" height="32" enable-background="new 0 0 32 32" viewBox="0 0 32 32"><path d="M 20.5 0 A 3 3 0 0 0 17.5 3 A 3 3 0 0 0 20.5 6 A 3 3 0 0 0 23.5 3 A 3 3 0 0 0 20.5 0 z M 14.5 0.5 C 13.671387 0.5 13 1.171875 13 2 L 13 6.5 C 13 8.4296875 15.070313 10 17 10 L 17 17 L 14 17 C 13.171387 17 12 17.671875 12 18.5 L 12 22 L 10 22 L 10 19.5 C 10 18.671875 9.8286133 18 9 18 L 6 18 C 5.1713867 18 4.5 18.671875 4.5 19.5 C 4.5 20.328125 5.1713867 21 6 21 L 7 21 L 7 23.5 C 7 24.328125 8.1713867 25 9 25 L 15 25 L 15 27.5 C 15 28.328125 16.171387 29 17 29 L 23 29 L 23 30.5 C 23 31.328125 23.671387 32 24.5 32 C 25.328613 32 26 31.328125 26 30.5 L 26 27.5 C 26 26.671875 25.828613 26 25 26 L 23 26 L 23 17.5 C 23 17.41437 22.988409 17.331726 22.974609 17.25 C 22.98163 17.166199 23 17.085632 23 17 L 23 10 L 24 10 C 24.275879 10 24 10.224609 24 10.5 L 24 15 C 24 15.828125 24.671387 16.5 25.5 16.5 C 26.328613 16.5 27 15.828125 27 15 L 27 10.5 C 27 8.5703125 25.929687 7 24 7 L 20.5 7 L 17 7 C 16.724121 7 16 6.7753906 16 6.5 L 16 2 C 16 1.171875 15.328613 0.5 14.5 0.5 z M 15 20 L 20 20 L 20 26 L 18 26 L 18 23.5 C 18 22.671875 17.828613 22 17 22 L 15 22 L 15 20 z "/></svg>