<svg xmlns="http://www.w3.org/2000/svg" width="32" height="32" enable-background="new 0 0 32 32" viewBox="0 0 32 32"><path d="M 17 0 A 3 3 0 0 0 14 3 A 3 3 0 0 0 17 6 A 3 3 0 0 0 20 3 A 3 3 0 0 0 17 0 z M 24.458984 0 C 23.977444 0.01314096 23.51178 0.25769038 23.234375 0.6953125 L 19.224609 7 L 13.4375 7 C 13.222962 7 13.05304 7.1575928 13.015625 7.3613281 C 12.978395 7.3920291 12.931275 7.4046021 12.896484 7.4394531 L 8.421875 11.916016 C 7.835938 12.501953 7.835938 13.451172 8.421875 14.037109 L 12.945312 18.560547 C 12.961612 18.576847 13 18.582276 13 18.597656 L 13 20.300781 L 11.677734 25.171875 L 6.5546875 29.335938 C 5.9116191 29.858396 5.8134766 30.803711 6.3359375 31.447266 C 6.6323242 31.811524 7.0639648 32 7.5 32 C 7.8325195 32 8.1674804 31.889647 8.4453125 31.664062 L 13.945312 27.195312 C 14.189455 26.997069 14.364747 26.727539 14.447266 26.423828 L 15.376953 23 L 19.419922 23 L 22 25.472656 L 22 30.5 C 22 31.328125 22.671387 32 23.5 32 C 24.328613 32 25 31.328125 25 30.5 L 25 24.833984 C 25 24.424804 24.832519 24.033203 24.537109 23.75 L 21 20.361328 L 21 9.6484375 C 21 9.5509035 21.226074 9.4408569 21.3125 9.3046875 L 25.765625 2.3046875 C 26.210449 1.6064452 26.003418 0.6787108 25.304688 0.234375 C 25.042663 0.06738281 24.747909 -0.00788457 24.458984 0 z M 13 11.580078 L 13 14.373047 L 11.603516 12.976562 L 13 11.580078 z "/></svg>