<svg xmlns="http://www.w3.org/2000/svg" width="32" height="32" enable-background="new 0 0 32 32" viewBox="0 0 32 32"><path d="M 22.837891 0.78710938 A 3 3 0 0 0 19.837891 3.7871094 A 3 3 0 0 0 22.837891 6.7871094 A 3 3 0 0 0 25.837891 3.7871094 A 3 3 0 0 0 22.837891 0.78710938 z M 12.712891 7.6660156 C 12.202149 7.6660156 11.727051 7.9863281 11.451172 8.4160156 L 8.5 13.044922 C 8.0522461 13.742188 8.2543945 14.68457 8.9511719 15.132812 C 9.2021485 15.292969 9.4824219 15.376953 9.7597656 15.376953 C 10.253418 15.376953 10.736816 15.079102 11.023438 14.632812 L 13.533203 10.666016 L 16.613281 10.666016 L 11.933594 17.880859 L 5.0449219 28.09375 C 4.5805664 28.780273 4.7592773 29.727539 5.4453125 30.191406 C 5.703125 30.366211 5.9960938 30.457031 6.2851562 30.457031 C 6.7666015 30.457031 7.2397462 30.231445 7.5292969 29.802734 L 13.357422 21.189453 L 17.533203 23.265625 L 13.847656 28.890625 C 13.394043 29.583984 13.587891 30.514648 14.28125 30.96875 C 14.534668 31.134766 14.819824 31.212891 15.101562 31.212891 C 15.590331 31.212891 16.069336 30.974609 16.357422 30.535156 L 20.96875 23.498047 C 21.203614 23.138672 21.274414 22.697266 21.162109 22.283203 C 21.049805 21.869141 20.765136 21.52246 20.380859 21.332031 L 15.037109 18.675781 L 19.056641 12.53125 L 20.632812 16.515625 C 20.865723 17.104492 21.429688 17.464844 22.027344 17.464844 C 22.079104 17.464844 22.131592 17.456642 22.183594 17.451172 C 22.217594 17.453472 22.251155 17.464844 22.285156 17.464844 C 22.77539 17.464844 23.255372 17.224609 23.542969 16.783203 L 26.970703 11.521484 C 27.422852 10.828125 27.227051 9.897461 26.533203 9.4453125 C 25.838379 8.9912109 24.909668 9.1914062 24.457031 9.8847656 L 22.453125 12.960938 L 20.78125 8.734375 C 20.77915 8.729185 20.775638 8.723938 20.773438 8.71875 C 20.751098 8.663818 20.722289 8.612732 20.693359 8.5605469 C 20.674069 8.5257569 20.658389 8.4897458 20.636719 8.4570312 C 20.613649 8.4221803 20.582821 8.3905029 20.556641 8.3574219 C 20.521421 8.3130489 20.488766 8.2662356 20.449219 8.2265625 C 20.428529 8.2058105 20.402889 8.1895139 20.380859 8.1699219 C 20.328669 8.1234129 20.27649 8.0775761 20.21875 8.0390625 C 20.21475 8.0363725 20.211081 8.0319169 20.207031 8.0292969 C 20.181521 8.0126339 20.155026 8.0031743 20.128906 7.9882812 C 20.072816 7.9561772 20.016724 7.9249266 19.957031 7.9003906 C 19.922481 7.8861696 19.886775 7.8766484 19.851562 7.8652344 C 19.793153 7.8460694 19.734436 7.8283082 19.673828 7.8164062 C 19.641298 7.8101163 19.608892 7.8087785 19.576172 7.8046875 C 19.511902 7.7963875 19.448303 7.7888185 19.382812 7.7890625 C 19.351623 7.7891846 19.322086 7.7928519 19.291016 7.7949219 C 19.232306 7.7988319 19.172058 7.7409061 19.113281 7.7519531 C 19.029851 7.7375491 18.946899 7.6660156 18.859375 7.6660156 L 12.712891 7.6660156 z "/></svg>