<svg xmlns="http://www.w3.org/2000/svg" width="32" height="32" enable-background="new 0 0 32 32" viewBox="0 0 32 32"><path d="M 5.453125 11 A 2.4999871 2.4999871 0 0 0 3.8515625 11.615234 A 2.4999871 2.4999871 0 0 0 3.609375 15.142578 A 2.4999871 2.4999871 0 0 0 7.1367188 15.384766 A 2.4999871 2.4999871 0 0 0 7.3789062 11.857422 A 2.4999871 2.4999871 0 0 0 5.453125 11 z M 19.890625 11.501953 L 10.888672 11.992188 C 9.7856447 12.052734 8.9418945 12.995117 9.0019531 14.097656 C 9.0401 14.797729 9.4358521 15.389831 10 15.716797 L 10 19 C 10 19.552735 10.447754 20 11 20 C 11.552246 20 12 19.552735 12 19 L 12 15.939453 L 20.109375 15.496094 C 21.000732 15.447144 21.714782 14.819824 21.927734 14 L 25.839844 14 C 24.242432 14.06708 22.964844 15.37439 22.964844 16.988281 C 22.964844 18.645141 24.307984 19.988281 25.964844 19.988281 C 27.621705 19.988281 28.964844 18.645141 28.964844 16.988281 C 28.964844 15.37439 27.689209 14.067078 26.091797 14 L 28 14 C 28.552246 14 29 13.552734 29 13 C 29 12.447266 28.552246 12 28 12 L 21.316406 12 C 20.937805 11.669739 20.434876 11.477478 19.890625 11.501953 z M 11 20 L 2.5 20 C 2.2236328 20 2 20.223633 2 20.5 C 2 20.776367 2.2236328 21 2.5 21 L 29.5 21 C 29.776367 21 30 20.776367 30 20.5 C 30 20.223633 29.776367 20 29.5 20 L 11 20 z "/></svg>