<svg xmlns="http://www.w3.org/2000/svg" width="32" height="32" enable-background="new 0 0 32 32" viewBox="0 0 32 32"><path d="M 8.8417969 5.0117188 C 8.713562 5.0323639 8.5855713 5.0788574 8.46875 5.1523438 C 8.0004883 5.4453126 7.8593749 6.0634766 8.1523438 6.53125 L 13 14.279297 L 13 23.197266 L 4.7832031 25.023438 C 4.2441406 25.143555 3.9033203 25.677735 4.0234375 26.216797 C 4.1269532 26.682618 4.5395508 27 4.9980469 27 C 5.0698243 27 5.1440429 26.992193 5.2167969 26.976562 L 14.144531 24.992188 C 14.156966 24.992575 14.167158 25 14.179688 25 L 17.820312 25 C 17.832842 25 17.843034 24.992575 17.855469 24.992188 L 26.783203 26.976562 C 26.855957 26.992202 26.930173 27 27.001953 27 C 27.460449 27 27.873047 26.682618 27.976562 26.216797 C 28.09668 25.677735 27.75586 25.143555 27.216797 25.023438 L 19 23.197266 L 19 14.287109 L 23.847656 6.53125 C 24.140136 6.0625 23.998047 5.4443359 23.529297 5.1523438 C 23.061524 4.8574219 22.445313 5.0019531 22.152344 5.4707031 L 17.447266 13 L 14.558594 13 L 9.8476562 5.4707031 C 9.6282959 5.1191406 9.2265015 4.9497833 8.8417969 5.0117188 z M 16 7 A 2.5 2.5 0 0 0 13.5 9.5 A 2.5 2.5 0 0 0 16 12 A 2.5 2.5 0 0 0 18.5 9.5 A 2.5 2.5 0 0 0 16 7 z "/></svg>