<svg xmlns="http://www.w3.org/2000/svg" width="32" height="32" enable-background="new 0 0 32 32" viewBox="0 0 32 32"><path d="M 6.5 7.375 C 5.1193237 7.375 4 8.4317627 4 9.8125 C 4 11.193176 5.1193237 12.40625 6.5 12.40625 C 7.5245972 12.40625 8.4029541 12 8.7890625 11 L 10.542969 11 L 9.0566406 12.328125 C 8.8952636 12.441467 8.7429199 12.504944 8.6074219 12.660156 C 7.6982422 13.699219 7.8041992 15.249023 8.84375 16.158203 L 16.855469 23.148438 C 17.32959 23.563477 17.916016 23.757812 18.5 23.757812 C 18.90332 23.757812 19.299133 23.644653 19.662109 23.453125 C 19.68927 23.441284 19.711731 23.421753 19.738281 23.408203 C 19.888123 23.322144 20.029785 23.218689 20.162109 23.099609 C 20.16394 23.097656 20.166199 23.095703 20.167969 23.09375 L 20.173828 23.085938 C 20.243225 23.022583 20.319519 22.968933 20.382812 22.896484 C 20.425354 22.847839 20.454041 22.791138 20.492188 22.740234 L 23.052734 19.955078 L 26.423828 23.451172 C 26.697266 23.724609 27.050354 24 27.408203 24 L 18.5 24 L 2.5 24 C 2.2236328 24 2 24.223633 2 24.5 C 2 24.776367 2.2236328 25 2.5 25 L 29.5 25 C 29.776367 25 30 24.776367 30 24.5 C 30 24.223633 29.776367 24 29.5 24 L 27.558594 24 C 27.916443 24 28.271484 23.722656 28.544922 23.449219 C 29.130859 22.863281 29.130859 21.851563 28.544922 21.265625 L 24.068359 16.757812 C 23.779785 16.46875 23.409668 16.302734 22.974609 16.302734 C 22.565918 16.311523 22.179199 16.479492 21.902344 16.78125 L 19.796875 19.068359 L 12.132812 12.363281 C 12.063599 12.302673 11.987732 12.258667 11.914062 12.207031 L 13.693359 10.464844 C 13.983887 10.180664 14.07373 9.875 13.919922 9.4980469 C 13.766602 9.1220703 13.400391 9 12.994141 9 L 8.7890625 9 C 8.4030152 8 7.5246582 7.375 6.5 7.375 z "/></svg>