<svg xmlns="http://www.w3.org/2000/svg" width="32" height="32" enable-background="new 0 0 32 32" viewBox="0 0 32 32"><path d="M 15.507812 0 A 3 3 0 0 0 12.507812 3 A 3 3 0 0 0 15.507812 6 A 3 3 0 0 0 18.507812 3 A 3 3 0 0 0 15.507812 0 z M 15.501953 6.9609375 C 15.459903 6.9612427 15.417362 6.96485 15.375 6.96875 C 15.31598 6.97412 15.257203 6.9818726 15.199219 6.9941406 C 15.182069 6.9978006 15.165588 6.9976731 15.148438 7.0019531 L 8.7519531 8.5859375 C 8.3154297 8.6943359 7.9506836 8.991211 7.7578125 9.3964844 L 5.6367188 13.855469 C 5.2807617 14.603516 5.5976562 15.497071 6.3457031 15.853516 C 6.5537109 15.952149 6.7739258 16 6.9902344 16 C 7.5507813 16 8.0888672 15.68457 8.3457031 15.144531 L 10.162109 11.326172 L 13.507812 10.498047 L 13.507812 18.228516 L 10.679688 25.773438 L 7.8085938 29.599609 C 7.3115234 30.262695 7.4467769 31.202149 8.109375 31.699219 C 8.3789064 31.901368 8.6943359 32 9.0078125 32 C 9.4638672 32 9.9140629 31.792969 10.208984 31.400391 L 13.208984 27.400391 C 13.294434 27.286133 13.364257 27.15918 13.414062 27.025391 L 15.304688 21.978516 C 15.310187 21.979127 15.316706 21.979969 15.322266 21.980469 L 18.609375 25.642578 L 19.533203 30.765625 C 19.664061 31.490243 20.296387 32 21.007812 32 C 21.096193 32 21.185059 31.992203 21.275391 31.976562 C 22.090332 31.829103 22.631348 31.047852 22.484375 30.232422 L 21.484375 24.691406 C 21.435055 24.417969 21.310547 24.162109 21.125 23.955078 L 17.507812 19.925781 L 17.507812 11.765625 L 20.179688 13.707031 C 20.440918 13.897461 20.749512 13.994141 21.060547 13.994141 C 21.291504 13.994141 21.524902 13.940424 21.738281 13.832031 L 25.685547 11.837891 C 26.425294 11.463868 26.721191 10.564454 26.347656 9.8242188 C 25.974121 9.084961 25.070801 8.7871094 24.332031 9.1601562 L 21.203125 10.742188 L 16.390625 7.2460938 C 16.375365 7.2349248 16.35925 7.2272949 16.34375 7.2167969 C 16.29639 7.1849369 16.245973 7.1571654 16.195312 7.1308594 C 16.155452 7.1101074 16.117123 7.0891106 16.076172 7.0722656 C 16.030212 7.0533446 15.983333 7.0396736 15.935547 7.0253906 C 15.888607 7.0113526 15.840642 6.9974972 15.792969 6.9882812 C 15.747739 6.9794912 15.702513 6.9752801 15.65625 6.9707031 C 15.60413 6.9655731 15.554077 6.9606275 15.501953 6.9609375 z "/></svg>